<svg xmlns="http://www.w3.org/2000/svg" xmlns:xlink="http://www.w3.org/1999/xlink" width="794" zoomAndPan="magnify" viewBox="0 0 595.5 842.249979" height="1123" preserveAspectRatio="xMidYMid meet" version="1.0"><defs><clipPath id="48b4d568c7"><path d="M 0.601562 0.871094 L 520.496094 0.871094 L 520.496094 738.871094 L 0.601562 738.871094 Z M 0.601562 0.871094 " clip-rule="nonzero"/></clipPath><clipPath id="b2e54f4682"><path d="M 180 223 L 382 223 L 382 738.871094 L 180 738.871094 Z M 180 223 " clip-rule="nonzero"/></clipPath><clipPath id="561c164b7a"><path d="M 2 0.871094 L 400 0.871094 L 400 283 L 2 283 Z M 2 0.871094 " clip-rule="nonzero"/></clipPath><clipPath id="a829404c0a"><rect x="0" width="521" y="0" height="739"/></clipPath><clipPath id="1d346f865b"><path d="M 75 490.335938 L 389 490.335938 L 389 802 L 75 802 Z M 75 490.335938 " clip-rule="nonzero"/></clipPath><clipPath id="f65929a360"><rect x="0" width="527" y="0" height="802"/></clipPath></defs><g transform="matrix(1, 0, 0, 1, 15, 8)"><g clip-path="url(#f65929a360)"><g clip-path="url(#48b4d568c7)"><g transform="matrix(1, 0, 0, 1, -0.000000000000001776, 0)"><g clip-path="url(#a829404c0a)"><g clip-path="url(#b2e54f4682)"><path fill="#147b4a" d="M 364.027344 738.320312 L 381.664062 726.300781 C 379.601562 723.242188 173.011719 416.378906 205.511719 227.496094 L 184.175781 223.941406 C 169.953125 307.144531 195.839844 419.152344 261.40625 556.902344 C 291.523438 619.691406 325.730469 680.160156 364.027344 738.320312 Z M 364.027344 738.320312 " fill-opacity="1" fill-rule="nonzero"/></g><path fill="#147b4a" d="M 448.65625 222.019531 C 448.65625 222.019531 519.273438 299.179688 519.769531 333.742188 C 520.269531 368.304688 397.808594 511.53125 397.808594 511.53125 L 288.644531 587.339844 C 288.644531 587.339844 300.164062 489.699219 307.0625 464.097656 C 313.960938 438.496094 380.027344 352.160156 380.027344 352.160156 C 380.027344 352.160156 432.300781 320.445312 448.65625 222.019531 Z M 448.65625 222.019531 " fill-opacity="1" fill-rule="nonzero"/><path fill="#147b4a" d="M 55.8125 320.160156 C 55.8125 320.160156 36.183594 387.789062 45.359375 410.050781 C 54.53125 432.308594 167.320312 492.1875 167.320312 492.1875 L 253.015625 511.886719 C 253.015625 511.886719 218.738281 452.503906 207.503906 437.996094 C 196.265625 423.492188 133.042969 385.371094 133.042969 385.371094 C 133.042969 385.371094 93.078125 378.757812 55.8125 320.160156 Z M 55.8125 320.160156 " fill-opacity="1" fill-rule="nonzero"/><path fill="#147b4a" d="M 153.808594 592.816406 C 153.808594 592.816406 160.921875 640.179688 173.4375 651.0625 C 185.953125 661.941406 272.289062 666.207031 272.289062 666.207031 L 330.675781 653.550781 C 330.675781 653.550781 292.414062 626.953125 280.894531 621.261719 C 269.371094 615.574219 219.875 610.523438 219.875 610.523438 C 219.875 610.523438 193.847656 617.921875 153.808594 592.816406 Z M 153.808594 592.816406 " fill-opacity="1" fill-rule="nonzero"/><g clip-path="url(#561c164b7a)"><path fill="#e73537" d="M 182.824219 230.695312 L 209.421875 281.328125 C 209.421875 281.328125 299.382812 286.378906 311.542969 274.21875 C 323.707031 262.058594 328.398438 213.628906 328.398438 213.628906 L 283.453125 180.914062 C 283.453125 180.914062 344.898438 206.660156 366.945312 191.9375 C 373.800781 187.136719 380 181.597656 385.542969 175.324219 C 391.082031 169.050781 395.8125 162.214844 399.726562 154.816406 C 399.726562 154.816406 393.042969 80.144531 380.597656 64.925781 C 368.152344 49.707031 310.265625 40.390625 310.265625 40.390625 L 244.480469 97.992188 L 235.734375 30.363281 C 235.734375 30.363281 199.039062 0.921875 189.367188 0.921875 C 179.695312 0.921875 137.808594 18.34375 137.808594 18.34375 L 120.667969 61.011719 L 132.332031 100.484375 C 132.332031 100.484375 100.6875 62.082031 72.949219 62.4375 C 45.214844 62.792969 8.945312 87.824219 8.945312 87.824219 C 8.945312 87.824219 -6.910156 141.375 9.941406 157.800781 C 26.796875 174.230469 73.945312 176.859375 73.945312 176.859375 C 73.945312 176.859375 29 219.53125 38.390625 237.378906 C 47.777344 255.230469 72.238281 276.851562 90.019531 272.9375 C 107.796875 269.027344 114.410156 271.585938 123.371094 276.992188 C 132.332031 282.398438 166.46875 264.050781 166.46875 264.050781 Z M 182.824219 230.695312 " fill-opacity="1" fill-rule="nonzero"/></g><path fill="#ffbd59" d="M 222.507812 158.300781 L 203.945312 131.203125 L 179.054688 136.394531 L 170.878906 168.398438 L 199.894531 180.488281 Z M 222.507812 158.300781 " fill-opacity="1" fill-rule="nonzero"/></g></g></g><g clip-path="url(#1d346f865b)"><path fill="#ff914d" d="M 251.082031 598.042969 C 253.585938 589.972656 256.085938 581.96875 258.585938 573.902344 C 263.089844 559.332031 266.90625 544.511719 272.40625 530.378906 C 274.847656 524.125 280.726562 519.246094 285.164062 513.804688 C 285.664062 513.179688 286.539062 512.929688 287.351562 512.554688 C 299.921875 507.238281 315.871094 514.808594 321.683594 526.875 C 328.9375 541.820312 323.125 549.390625 312.054688 555.453125 C 295.359375 564.585938 283.726562 579.34375 270.71875 592.539062 C 265.214844 598.167969 259.710938 603.730469 253.585938 609.921875 C 252.144531 607.609375 251.082031 605.859375 249.832031 603.855469 C 248.269531 604.105469 246.394531 604.230469 244.640625 604.734375 C 237.074219 607.046875 232.386719 602.480469 229.007812 597.164062 C 218.125 580.09375 207.371094 562.894531 197.429688 545.261719 C 194.425781 539.945312 194.113281 533.128906 192.613281 527 C 191.675781 523.1875 191.488281 518.996094 189.859375 515.496094 C 184.296875 503.800781 188.109375 496.171875 200.804688 494.234375 C 204.933594 493.605469 208.871094 491.980469 213 491.480469 C 216.5625 490.980469 220.566406 490.417969 223.878906 491.542969 C 232.449219 494.359375 240.828125 497.859375 246.894531 505.113281 C 251.832031 510.992188 252.082031 518.246094 251.832031 525.1875 C 251.269531 542.386719 249.707031 559.582031 249.019531 576.777344 C 248.769531 583.84375 249.894531 590.914062 250.394531 598.042969 C 250.644531 598.105469 250.894531 598.042969 251.082031 598.042969 Z M 244.390625 798.464844 C 249.019531 793.777344 253.210938 788.398438 256.398438 782.644531 C 260.652344 774.953125 262.714844 765.949219 267.46875 758.632812 C 279.472656 740.121094 279.660156 720.609375 272.90625 700.847656 C 267.21875 684.214844 259.585938 668.269531 253.023438 651.945312 C 249.332031 642.753906 249.519531 642.816406 240.078125 644.753906 C 235.011719 645.753906 232.136719 647.945312 231.757812 653.574219 C 230.695312 667.832031 222.816406 679.898438 217.1875 692.40625 C 213.75 700.035156 208.371094 706.976562 207.496094 715.542969 C 206.183594 728.488281 204.808594 741.496094 204.996094 754.441406 C 205.058594 761.007812 209.496094 767.449219 210.183594 774.140625 C 211.3125 785.210938 217.6875 791.648438 226.757812 796.464844 C 232.386719 799.28125 238.136719 804.84375 244.390625 798.464844 Z M 137.269531 714.167969 C 131.015625 727.113281 125.886719 740.183594 126.699219 755.003906 C 127.261719 765.449219 127.324219 775.578125 137.644531 782.269531 C 145.585938 787.398438 158.96875 786.210938 163.785156 778.457031 C 166.847656 773.515625 169.347656 768.136719 171.226562 762.632812 C 177.542969 743.625 182.980469 724.238281 189.734375 705.414062 C 193.613281 694.59375 199.304688 684.402344 204.371094 674.082031 C 206.746094 669.332031 209.496094 664.703125 212.4375 660.199219 C 216.75 653.636719 221.566406 647.382812 225.820312 640.753906 C 226.570312 639.628906 226.132812 637.0625 225.320312 635.6875 C 222.816406 631.621094 219.878906 634 217.25 635.6875 C 208.871094 641.191406 201.117188 647.820312 192.175781 652.070312 C 180.792969 657.511719 171.351562 664.640625 164.097656 674.835938 C 163.410156 675.773438 162.59375 676.585938 161.78125 677.460938 C 156.21875 683.402344 150.714844 689.34375 145.898438 694.53125 C 142.648438 701.976562 140.144531 708.164062 137.269531 714.167969 Z M 101.1875 561.832031 C 108.816406 575.527344 118.945312 586.160156 136.019531 587.160156 C 141.519531 587.472656 147.085938 588.035156 152.464844 589.222656 C 157.65625 590.347656 162.847656 591.976562 167.660156 594.164062 C 173.851562 596.976562 179.480469 600.980469 185.734375 603.667969 C 195.425781 607.796875 205.371094 611.359375 215.3125 614.675781 C 218.316406 615.675781 222.191406 616.238281 225.003906 615.175781 C 227.507812 614.300781 229.570312 611.171875 230.820312 608.546875 C 231.320312 607.546875 229.382812 604.859375 228.007812 603.605469 C 225.382812 601.292969 222.066406 599.730469 219.566406 597.289062 C 213.875 591.914062 208.433594 586.222656 202.867188 580.71875 C 199.554688 577.46875 196.050781 574.402344 192.800781 571.089844 C 188.484375 566.585938 184.609375 561.582031 180.105469 557.207031 C 175.914062 553.140625 171.226562 549.578125 166.597656 545.949219 C 161.34375 541.820312 156.34375 537.257812 150.652344 533.816406 C 141.582031 528.3125 131.578125 526.4375 120.882812 526.8125 C 113.566406 527.0625 107.816406 528.878906 104.3125 535.128906 C 97.746094 543.636719 97.933594 556.015625 101.1875 561.832031 Z M 99.746094 652.757812 C 104.25 654.074219 109.191406 654.636719 113.878906 654.511719 C 119.320312 654.324219 124.761719 652.070312 130.140625 652.195312 C 142.523438 652.382812 153.277344 647.820312 164.285156 643.066406 C 173.164062 639.25 182.167969 635.625 191.488281 632.875 C 199.804688 630.433594 208.558594 629.558594 216.9375 627.433594 C 218.691406 626.996094 219.878906 624.054688 221.253906 622.304688 C 219.878906 621.179688 218.628906 619.492188 217 619.054688 C 206.933594 616.425781 196.613281 614.800781 186.859375 611.484375 C 180.542969 609.296875 174.539062 606.734375 167.660156 606.359375 C 162.59375 606.046875 157.40625 604.859375 152.652344 603.105469 C 144.898438 600.292969 137.332031 598.917969 129.078125 600.417969 C 121.199219 601.855469 112.941406 601.542969 105.1875 603.417969 C 96.683594 605.484375 88.492188 609.046875 80.238281 612.113281 C 79.171875 612.550781 78.109375 613.925781 77.671875 615.050781 C 73.796875 625.367188 73.921875 639.628906 86.867188 647.007812 C 90.554688 648.632812 94.933594 651.320312 99.746094 652.757812 Z M 254.335938 637.1875 C 254.085938 639.503906 254.835938 642.441406 256.210938 644.253906 C 265.089844 655.761719 274.285156 667.015625 283.351562 678.335938 C 287.289062 683.277344 291.980469 687.777344 295.171875 693.15625 C 301.675781 704.164062 309.742188 713.542969 320.371094 720.671875 C 323.125 722.546875 326.0625 723.988281 328.75 720.546875 C 337.632812 709.292969 346.449219 697.910156 355.328125 686.652344 C 356.765625 684.839844 358.019531 682.777344 359.769531 681.339844 C 362.332031 679.210938 361.957031 677.398438 360.394531 674.898438 C 354.765625 665.765625 346.824219 660.640625 336.066406 659.386719 C 332.378906 658.949219 328.6875 657.261719 325.375 655.511719 C 320.371094 652.882812 315.746094 649.382812 310.742188 646.695312 C 304.425781 643.316406 298.296875 638.75 290.667969 639.816406 C 281.164062 641.128906 273.53125 636.25 266.589844 633.75 C 259.210938 629.246094 255.023438 630.683594 254.335938 637.1875 Z M 276.660156 623.492188 C 292.480469 626.308594 308.679688 627.683594 324.125 631.683594 C 342.820312 636.5 360.644531 634.3125 378.59375 629.183594 C 380.84375 628.558594 383.34375 626.808594 384.53125 624.867188 C 388.472656 618.363281 389.535156 610.734375 386.035156 604.230469 C 382.96875 598.417969 376.589844 595.789062 369.460938 595.789062 C 365.460938 595.789062 361.394531 594.601562 357.457031 593.664062 C 345.574219 590.851562 333.878906 587.972656 321.621094 593.289062 C 314.054688 596.539062 305.675781 598.105469 297.671875 600.292969 C 293.167969 601.542969 288.605469 602.542969 284.039062 603.792969 C 278.410156 605.296875 272.90625 607.234375 267.21875 608.484375 C 260.402344 610.046875 258.210938 611.863281 256.835938 618.867188 C 263.652344 620.429688 270.09375 622.304688 276.660156 623.492188 Z M 276.660156 623.492188 " fill-opacity="1" fill-rule="nonzero"/></g><path fill="#ffd040" d="M 230.695312 616.363281 C 232.636719 615.050781 235.511719 612.238281 238.949219 611.109375 C 248.769531 607.859375 255.773438 613.113281 255.273438 623.367188 C 254.898438 630.746094 251.707031 637.625 244.703125 639.25 C 238.949219 640.628906 232.261719 638.125 229.132812 632.6875 C 226.257812 627.683594 227.632812 622.804688 230.695312 616.363281 Z M 230.695312 616.363281 " fill-opacity="1" fill-rule="nonzero"/></g></g></svg>