<svg xmlns="http://www.w3.org/2000/svg" xmlns:xlink="http://www.w3.org/1999/xlink" width="794" zoomAndPan="magnify" viewBox="0 0 595.5 842.249979" height="1123" preserveAspectRatio="xMidYMid meet" version="1.0"><defs><clipPath id="16eadb8e51"><path d="M 129 0.871094 L 532 0.871094 L 532 286 L 129 286 Z M 129 0.871094 " clip-rule="nonzero"/></clipPath><clipPath id="f7d6a2e91a"><path d="M 144 515.605469 L 462 515.605469 L 462 830.292969 L 144 830.292969 Z M 144 515.605469 " clip-rule="nonzero"/></clipPath><clipPath id="606e80b201"><path d="M 1 1 L 317.324219 1 L 317.324219 315 L 1 315 Z M 1 1 " clip-rule="nonzero"/></clipPath><clipPath id="15279d18ce"><rect x="0" width="318" y="0" height="316"/></clipPath><clipPath id="00c0aa9ff3"><rect x="0" width="533" y="0" height="831"/></clipPath></defs><g transform="matrix(1, 0, 0, 1, 1, 8)"><g clip-path="url(#00c0aa9ff3)"><path fill="#147b4a" d="M 165.585938 745.941406 L 147.765625 733.800781 C 149.851562 730.710938 358.578125 420.675781 325.742188 229.839844 L 347.296875 226.246094 C 361.667969 310.3125 335.511719 423.476562 269.265625 562.652344 C 238.839844 626.085938 204.28125 687.183594 165.585938 745.941406 Z M 165.585938 745.941406 " fill-opacity="1" fill-rule="nonzero"/><path fill="#147b4a" d="M 80.082031 224.304688 C 80.082031 224.304688 8.734375 302.265625 8.234375 337.183594 C 7.730469 372.101562 131.457031 516.8125 131.457031 516.8125 L 241.75 593.402344 C 241.75 593.402344 230.109375 494.753906 223.140625 468.886719 C 216.167969 443.019531 149.421875 355.792969 149.421875 355.792969 C 149.421875 355.792969 96.609375 323.746094 80.082031 224.304688 Z M 80.082031 224.304688 " fill-opacity="1" fill-rule="nonzero"/><path fill="#147b4a" d="M 476.988281 323.460938 C 476.988281 323.460938 496.820312 391.789062 487.550781 414.28125 C 478.28125 436.769531 364.324219 497.265625 364.324219 497.265625 L 277.746094 517.167969 C 277.746094 517.167969 312.378906 457.175781 323.730469 442.515625 C 335.082031 427.859375 398.957031 389.347656 398.957031 389.347656 C 398.957031 389.347656 439.335938 382.664062 476.988281 323.460938 Z M 476.988281 323.460938 " fill-opacity="1" fill-rule="nonzero"/><path fill="#147b4a" d="M 377.976562 598.9375 C 377.976562 598.9375 370.792969 646.789062 358.144531 657.78125 C 345.5 668.773438 258.273438 673.085938 258.273438 673.085938 L 199.285156 660.296875 C 199.285156 660.296875 237.941406 633.425781 249.578125 627.675781 C 261.21875 621.929688 311.226562 616.828125 311.226562 616.828125 C 311.226562 616.828125 337.523438 624.300781 377.976562 598.9375 Z M 377.976562 598.9375 " fill-opacity="1" fill-rule="nonzero"/><g clip-path="url(#16eadb8e51)"><path fill="#e73537" d="M 348.664062 233.070312 L 321.789062 284.230469 C 321.789062 284.230469 230.898438 289.332031 218.613281 277.042969 C 206.324219 264.757812 201.582031 215.828125 201.582031 215.828125 L 246.992188 182.777344 C 246.992188 182.777344 184.914062 208.785156 162.640625 193.914062 C 155.710938 189.0625 149.449219 183.46875 143.851562 177.128906 C 138.253906 170.789062 133.472656 163.882812 129.515625 156.40625 C 129.515625 156.40625 136.269531 80.964844 148.84375 65.585938 C 161.417969 50.210938 219.90625 40.800781 219.90625 40.800781 L 286.367188 99 L 295.207031 30.667969 C 295.207031 30.667969 332.28125 0.921875 342.050781 0.921875 C 351.824219 0.921875 394.144531 18.527344 394.144531 18.527344 L 411.460938 61.636719 L 399.675781 101.511719 C 399.675781 101.511719 431.648438 62.714844 459.671875 63.074219 C 487.695312 63.433594 524.335938 88.722656 524.335938 88.722656 C 524.335938 88.722656 540.359375 142.828125 523.332031 159.425781 C 506.300781 176.023438 458.664062 178.679688 458.664062 178.679688 C 458.664062 178.679688 504.074219 221.792969 494.589844 239.824219 C 485.105469 257.859375 460.390625 279.703125 442.425781 275.75 C 424.464844 271.800781 417.78125 274.386719 408.730469 279.847656 C 399.675781 285.308594 365.1875 266.769531 365.1875 266.769531 Z M 348.664062 233.070312 " fill-opacity="1" fill-rule="nonzero"/></g><path fill="#ffbd59" d="M 308.570312 159.929688 L 327.324219 132.550781 L 352.46875 137.796875 L 360.734375 170.128906 L 331.417969 182.34375 Z M 308.570312 159.929688 " fill-opacity="1" fill-rule="nonzero"/><g clip-path="url(#f7d6a2e91a)"><g transform="matrix(1, 0, 0, 1, 144, 515)"><g clip-path="url(#15279d18ce)"><g clip-path="url(#606e80b201)"><path fill="#ff914d" d="M 139.835938 109.425781 C 137.308594 101.273438 134.78125 93.1875 132.253906 85.039062 C 127.703125 70.316406 123.851562 55.339844 118.289062 41.0625 C 115.824219 34.746094 109.886719 29.816406 105.398438 24.320312 C 104.894531 23.6875 104.011719 23.433594 103.1875 23.054688 C 90.488281 17.683594 74.378906 25.328125 68.5 37.523438 C 61.171875 52.625 67.046875 60.269531 78.230469 66.398438 C 95.101562 75.625 106.855469 90.535156 119.996094 103.867188 C 125.554688 109.550781 131.117188 115.175781 137.308594 121.429688 C 138.761719 119.09375 139.835938 117.324219 141.097656 115.300781 C 142.679688 115.554688 144.574219 115.679688 146.34375 116.1875 C 153.988281 118.523438 158.726562 113.910156 162.136719 108.542969 C 173.132812 91.292969 184 73.917969 194.046875 56.101562 C 197.078125 50.730469 197.394531 43.84375 198.910156 37.652344 C 199.859375 33.796875 200.046875 29.5625 201.691406 26.023438 C 207.3125 14.210938 203.460938 6.5 190.632812 4.542969 C 186.464844 3.910156 182.484375 2.269531 178.3125 1.761719 C 174.710938 1.257812 170.667969 0.6875 167.320312 1.824219 C 158.664062 4.667969 150.195312 8.207031 144.066406 15.535156 C 139.078125 21.476562 138.824219 28.804688 139.078125 35.816406 C 139.644531 53.195312 141.226562 70.570312 141.917969 87.945312 C 142.171875 95.082031 141.035156 102.222656 140.53125 109.425781 C 140.277344 109.488281 140.023438 109.425781 139.835938 109.425781 Z M 146.59375 311.925781 C 141.917969 307.1875 137.6875 301.753906 134.464844 295.941406 C 130.167969 288.167969 128.082031 279.070312 123.28125 271.679688 C 111.148438 252.976562 110.960938 233.261719 117.785156 213.296875 C 123.535156 196.492188 131.242188 180.378906 137.875 163.890625 C 141.605469 154.601562 141.414062 154.664062 150.953125 156.625 C 156.074219 157.632812 158.980469 159.84375 159.359375 165.53125 C 160.433594 179.9375 168.394531 192.132812 174.078125 204.769531 C 177.554688 212.476562 182.988281 219.488281 183.871094 228.144531 C 185.199219 241.222656 186.589844 254.367188 186.398438 267.445312 C 186.335938 274.078125 181.851562 280.585938 181.15625 287.347656 C 180.019531 298.53125 173.574219 305.039062 164.414062 309.902344 C 158.726562 312.746094 152.914062 318.371094 146.59375 311.925781 Z M 254.828125 226.753906 C 261.144531 239.835938 266.324219 253.039062 265.503906 268.015625 C 264.9375 278.566406 264.871094 288.800781 254.449219 295.5625 C 246.421875 300.742188 232.902344 299.542969 228.039062 291.707031 C 224.941406 286.714844 222.414062 281.28125 220.519531 275.722656 C 214.136719 256.515625 208.640625 236.929688 201.816406 217.910156 C 197.898438 206.980469 192.148438 196.679688 187.03125 186.253906 C 184.632812 181.453125 181.851562 176.777344 178.882812 172.230469 C 174.523438 165.59375 169.65625 159.277344 165.359375 152.578125 C 164.601562 151.441406 165.042969 148.851562 165.867188 147.460938 C 168.394531 143.355469 171.363281 145.753906 174.015625 147.460938 C 182.484375 153.023438 190.316406 159.71875 199.351562 164.015625 C 210.851562 169.511719 220.390625 176.714844 227.722656 187.015625 C 228.417969 187.960938 229.238281 188.78125 230.058594 189.667969 C 235.683594 195.667969 241.242188 201.671875 246.109375 206.917969 C 249.394531 214.433594 251.921875 220.691406 254.828125 226.753906 Z M 291.28125 72.84375 C 283.574219 86.679688 273.339844 97.421875 256.089844 98.433594 C 250.53125 98.746094 244.90625 99.316406 239.472656 100.515625 C 234.230469 101.65625 228.984375 103.296875 224.121094 105.507812 C 217.863281 108.351562 212.179688 112.394531 205.859375 115.113281 C 196.066406 119.28125 186.019531 122.882812 175.976562 126.230469 C 172.941406 127.242188 169.023438 127.8125 166.183594 126.738281 C 163.65625 125.851562 161.570312 122.695312 160.304688 120.039062 C 159.800781 119.03125 161.757812 116.3125 163.148438 115.050781 C 165.804688 112.710938 169.152344 111.132812 171.679688 108.667969 C 177.429688 103.234375 182.925781 97.484375 188.546875 91.925781 C 191.898438 88.640625 195.433594 85.542969 198.722656 82.195312 C 203.082031 77.644531 206.996094 72.589844 211.546875 68.167969 C 215.78125 64.0625 220.519531 60.460938 225.195312 56.792969 C 230.5 52.625 235.554688 48.011719 241.304688 44.539062 C 250.46875 38.976562 260.578125 37.082031 271.378906 37.460938 C 278.773438 37.714844 284.585938 39.546875 288.125 45.863281 C 294.757812 54.457031 294.570312 66.96875 291.28125 72.84375 Z M 292.734375 164.710938 C 288.1875 166.039062 283.195312 166.605469 278.457031 166.480469 C 272.960938 166.289062 267.464844 164.015625 262.03125 164.140625 C 249.519531 164.332031 238.652344 159.71875 227.53125 154.917969 C 218.558594 151.0625 209.460938 147.398438 200.046875 144.617188 C 191.644531 142.15625 182.800781 141.269531 174.332031 139.121094 C 172.5625 138.679688 171.363281 135.710938 169.972656 133.941406 C 171.363281 132.804688 172.625 131.097656 174.269531 130.65625 C 184.441406 128 194.867188 126.359375 204.722656 123.011719 C 211.105469 120.796875 217.171875 118.207031 224.121094 117.828125 C 229.238281 117.511719 234.480469 116.3125 239.285156 114.542969 C 247.117188 111.699219 254.761719 110.308594 263.105469 111.828125 C 271.066406 113.28125 279.40625 112.964844 287.238281 114.859375 C 295.832031 116.945312 304.109375 120.546875 312.449219 123.640625 C 313.523438 124.085938 314.597656 125.472656 315.039062 126.613281 C 318.957031 137.035156 318.832031 151.441406 305.75 158.898438 C 302.023438 160.539062 297.601562 163.257812 292.734375 164.710938 Z M 136.550781 148.976562 C 136.800781 151.316406 136.042969 154.285156 134.652344 156.117188 C 125.683594 167.742188 116.394531 179.117188 107.234375 190.550781 C 103.253906 195.542969 98.511719 200.09375 95.292969 205.527344 C 88.71875 216.644531 80.570312 226.125 69.828125 233.328125 C 67.046875 235.222656 64.078125 236.675781 61.363281 233.199219 C 52.390625 221.828125 43.480469 210.328125 34.507812 198.957031 C 33.054688 197.125 31.792969 195.039062 30.023438 193.585938 C 27.433594 191.4375 27.8125 189.605469 29.390625 187.078125 C 35.078125 177.851562 43.101562 172.671875 53.96875 171.40625 C 57.699219 170.964844 61.425781 169.257812 64.773438 167.492188 C 69.828125 164.835938 74.503906 161.296875 79.558594 158.582031 C 85.941406 155.167969 92.132812 150.558594 99.839844 151.632812 C 109.445312 152.957031 117.152344 148.03125 124.164062 145.503906 C 131.621094 140.953125 135.855469 142.40625 136.550781 148.976562 Z M 113.992188 135.140625 C 98.007812 137.984375 81.644531 139.375 66.039062 143.417969 C 47.144531 148.28125 29.140625 146.070312 11.003906 140.890625 C 8.730469 140.257812 6.203125 138.488281 5.003906 136.53125 C 1.023438 129.960938 -0.0507812 122.25 3.488281 115.679688 C 6.582031 109.804688 13.027344 107.152344 20.230469 107.152344 C 24.273438 107.152344 28.382812 105.949219 32.363281 105.003906 C 44.367188 102.160156 56.179688 99.253906 68.566406 104.625 C 76.210938 107.910156 84.675781 109.488281 92.765625 111.699219 C 97.3125 112.964844 101.925781 113.976562 106.539062 115.238281 C 112.222656 116.753906 117.785156 118.714844 123.535156 119.976562 C 130.421875 121.558594 132.632812 123.390625 134.023438 130.464844 C 127.136719 132.046875 120.628906 133.941406 113.992188 135.140625 Z M 113.992188 135.140625 " fill-opacity="1" fill-rule="nonzero"/></g><path fill="#ffd040" d="M 160.433594 127.9375 C 158.472656 126.613281 155.566406 123.769531 152.09375 122.632812 C 142.171875 119.34375 135.097656 124.652344 135.601562 135.015625 C 135.980469 142.46875 139.203125 149.421875 146.28125 151.0625 C 152.09375 152.453125 158.851562 149.925781 162.011719 144.429688 C 164.917969 139.375 163.527344 134.445312 160.433594 127.9375 Z M 160.433594 127.9375 " fill-opacity="1" fill-rule="nonzero"/></g></g></g></g></g></svg>