<svg xmlns="http://www.w3.org/2000/svg" xmlns:xlink="http://www.w3.org/1999/xlink" width="794" zoomAndPan="magnify" viewBox="0 0 595.5 842.249979" height="1123" preserveAspectRatio="xMidYMid meet" version="1.0"><defs><clipPath id="5b899c6015"><path d="M 0.601562 0.871094 L 527.242188 0.871094 L 527.242188 748.617188 L 0.601562 748.617188 Z M 0.601562 0.871094 " clip-rule="nonzero"/></clipPath><clipPath id="fc94402c74"><path d="M 2 0.871094 L 405 0.871094 L 405 287 L 2 287 Z M 2 0.871094 " clip-rule="nonzero"/></clipPath><clipPath id="32f3f22902"><rect x="0" width="528" y="0" height="749"/></clipPath><clipPath id="0430a126e7"><rect x="0" width="534" y="0" height="813"/></clipPath></defs><g transform="matrix(1, 0, 0, 1, 15, 8)"><g clip-path="url(#0430a126e7)"><g clip-path="url(#5b899c6015)"><g transform="matrix(1, 0, 0, 1, -0.000000000000001776, 0)"><g clip-path="url(#32f3f22902)"><path fill="#147b4a" d="M 368.835938 747.894531 L 386.703125 735.722656 C 384.613281 732.625 175.339844 421.777344 208.261719 230.441406 L 186.652344 226.839844 C 172.242188 311.125 198.464844 424.585938 264.886719 564.125 C 295.390625 627.726562 330.042969 688.984375 368.835938 747.894531 Z M 368.835938 747.894531 " fill-opacity="1" fill-rule="nonzero"/><path fill="#147b4a" d="M 454.5625 224.894531 C 454.5625 224.894531 526.097656 303.054688 526.601562 338.066406 C 527.105469 373.078125 403.054688 518.164062 403.054688 518.164062 L 292.476562 594.957031 C 292.476562 594.957031 304.144531 496.046875 311.132812 470.113281 C 318.121094 444.179688 385.046875 356.726562 385.046875 356.726562 C 385.046875 356.726562 437.996094 324.59375 454.5625 224.894531 Z M 454.5625 224.894531 " fill-opacity="1" fill-rule="nonzero"/><path fill="#147b4a" d="M 56.621094 324.308594 C 56.621094 324.308594 36.738281 392.816406 46.03125 415.363281 C 55.324219 437.914062 169.578125 498.570312 169.578125 498.570312 L 256.382812 518.523438 C 256.382812 518.523438 221.660156 458.371094 210.28125 443.675781 C 198.898438 428.980469 134.855469 390.367188 134.855469 390.367188 C 134.855469 390.367188 94.367188 383.667969 56.621094 324.308594 Z M 56.621094 324.308594 " fill-opacity="1" fill-rule="nonzero"/><path fill="#147b4a" d="M 155.890625 600.503906 C 155.890625 600.503906 163.09375 648.480469 175.773438 659.503906 C 188.453125 670.527344 275.90625 674.847656 275.90625 674.847656 L 335.050781 662.027344 C 335.050781 662.027344 296.292969 635.082031 284.625 629.320312 C 272.953125 623.558594 222.8125 618.441406 222.8125 618.441406 C 222.8125 618.441406 196.449219 625.933594 155.890625 600.503906 Z M 155.890625 600.503906 " fill-opacity="1" fill-rule="nonzero"/><g clip-path="url(#fc94402c74)"><path fill="#e73537" d="M 185.28125 233.683594 L 212.226562 284.972656 C 212.226562 284.972656 303.355469 290.089844 315.671875 277.769531 C 327.992188 265.453125 332.746094 216.394531 332.746094 216.394531 L 287.21875 183.253906 C 287.21875 183.253906 349.457031 209.332031 371.789062 194.421875 C 378.738281 189.558594 385.015625 183.949219 390.628906 177.59375 C 396.242188 171.234375 401.035156 164.3125 405 156.816406 C 405 156.816406 398.230469 81.175781 385.621094 65.757812 C 373.015625 50.34375 314.375 40.90625 314.375 40.90625 L 247.738281 99.257812 L 238.878906 30.75 C 238.878906 30.75 201.707031 0.925781 191.910156 0.925781 C 182.113281 0.925781 139.679688 18.574219 139.679688 18.574219 L 122.320312 61.796875 L 134.132812 101.777344 C 134.132812 101.777344 102.078125 62.878906 73.980469 63.238281 C 45.886719 63.597656 9.148438 88.957031 9.148438 88.957031 C 9.148438 88.957031 -6.917969 143.203125 10.15625 159.84375 C 27.230469 176.484375 74.992188 179.148438 74.992188 179.148438 C 74.992188 179.148438 29.460938 222.371094 38.972656 240.453125 C 48.480469 258.535156 73.261719 280.4375 91.269531 276.472656 C 109.28125 272.511719 115.980469 275.105469 125.058594 280.578125 C 134.132812 286.054688 168.714844 267.46875 168.714844 267.46875 Z M 185.28125 233.683594 " fill-opacity="1" fill-rule="nonzero"/></g><path fill="#ffbd59" d="M 225.480469 160.347656 L 206.675781 132.898438 L 181.464844 138.160156 L 173.179688 170.578125 L 202.570312 182.824219 Z M 225.480469 160.347656 " fill-opacity="1" fill-rule="nonzero"/></g></g></g><path fill="#ff914d" d="M 254.425781 605.796875 C 256.960938 597.625 259.492188 589.515625 262.027344 581.34375 C 266.589844 566.582031 270.453125 551.570312 276.027344 537.253906 C 278.5 530.917969 284.453125 525.976562 288.949219 520.46875 C 289.457031 519.832031 290.34375 519.578125 291.167969 519.199219 C 303.898438 513.816406 320.054688 521.480469 325.945312 533.707031 C 333.292969 548.847656 327.402344 556.511719 316.191406 562.65625 C 299.277344 571.90625 287.492188 586.855469 274.316406 600.222656 C 268.742188 605.921875 263.167969 611.558594 256.960938 617.832031 C 255.503906 615.488281 254.425781 613.714844 253.160156 611.6875 C 251.574219 611.941406 249.675781 612.066406 247.902344 612.574219 C 240.238281 614.917969 235.484375 610.292969 232.066406 604.910156 C 221.042969 587.613281 210.148438 570.195312 200.074219 552.332031 C 197.035156 546.945312 196.71875 540.042969 195.195312 533.832031 C 194.246094 529.96875 194.054688 525.726562 192.410156 522.175781 C 186.773438 510.332031 190.636719 502.601562 203.496094 500.640625 C 207.675781 500.003906 211.667969 498.359375 215.847656 497.851562 C 219.457031 497.34375 223.511719 496.773438 226.871094 497.914062 C 235.546875 500.765625 244.039062 504.3125 250.183594 511.660156 C 255.1875 517.617188 255.441406 524.964844 255.1875 531.996094 C 254.617188 549.417969 253.03125 566.835938 252.335938 584.257812 C 252.082031 591.414062 253.222656 598.574219 253.730469 605.796875 C 253.984375 605.859375 254.234375 605.796875 254.425781 605.796875 Z M 247.648438 808.824219 C 252.335938 804.070312 256.578125 798.625 259.8125 792.796875 C 264.117188 785.003906 266.207031 775.882812 271.023438 768.472656 C 283.1875 749.71875 283.375 729.957031 276.535156 709.9375 C 270.769531 693.089844 263.042969 676.933594 256.390625 660.402344 C 252.652344 651.089844 252.84375 651.152344 243.277344 653.117188 C 238.144531 654.128906 235.230469 656.347656 234.851562 662.046875 C 233.773438 676.492188 225.792969 688.71875 220.09375 701.386719 C 216.609375 709.113281 211.160156 716.144531 210.273438 724.824219 C 208.941406 737.9375 207.550781 751.113281 207.738281 764.226562 C 207.804688 770.878906 212.300781 777.402344 212.996094 784.179688 C 214.136719 795.394531 220.597656 801.917969 229.785156 806.796875 C 235.484375 809.648438 241.3125 815.285156 247.648438 808.824219 Z M 139.132812 723.429688 C 132.800781 736.542969 127.605469 749.785156 128.429688 764.796875 C 129 775.375 129.0625 785.636719 139.515625 792.417969 C 147.558594 797.609375 161.117188 796.40625 165.992188 788.550781 C 169.097656 783.546875 171.632812 778.101562 173.53125 772.523438 C 179.929688 753.269531 185.441406 733.628906 192.28125 714.5625 C 196.210938 703.605469 201.976562 693.277344 207.105469 682.824219 C 209.511719 678.011719 212.300781 673.324219 215.277344 668.761719 C 219.648438 662.109375 224.527344 655.777344 228.832031 649.0625 C 229.59375 647.921875 229.152344 645.324219 228.328125 643.929688 C 225.792969 639.8125 222.816406 642.21875 220.15625 643.929688 C 211.667969 649.503906 203.8125 656.21875 194.753906 660.527344 C 183.222656 666.039062 173.660156 673.261719 166.308594 683.585938 C 165.613281 684.535156 164.789062 685.359375 163.964844 686.246094 C 158.328125 692.265625 152.753906 698.28125 147.875 703.539062 C 144.582031 711.078125 142.046875 717.351562 139.132812 723.429688 Z M 102.582031 569.117188 C 110.3125 582.992188 120.574219 593.757812 137.867188 594.773438 C 143.441406 595.089844 149.078125 595.660156 154.527344 596.863281 C 159.785156 598.003906 165.042969 599.652344 169.921875 601.867188 C 176.191406 604.71875 181.894531 608.773438 188.226562 611.496094 C 198.046875 615.675781 208.121094 619.289062 218.191406 622.644531 C 221.230469 623.660156 225.160156 624.230469 228.011719 623.152344 C 230.542969 622.265625 232.636719 619.097656 233.902344 616.4375 C 234.410156 615.425781 232.445312 612.699219 231.050781 611.433594 C 228.390625 609.089844 225.03125 607.507812 222.5 605.035156 C 216.734375 599.585938 211.222656 593.824219 205.585938 588.25 C 202.226562 584.953125 198.679688 581.851562 195.386719 578.492188 C 191.015625 573.933594 187.089844 568.863281 182.527344 564.429688 C 178.28125 560.3125 173.53125 556.703125 168.84375 553.027344 C 163.523438 548.847656 158.457031 544.222656 152.691406 540.738281 C 143.503906 535.164062 133.371094 533.261719 122.539062 533.644531 C 115.125 533.898438 109.296875 535.734375 105.75 542.066406 C 99.097656 550.683594 99.289062 563.226562 102.582031 569.117188 Z M 101.125 661.222656 C 105.6875 662.554688 110.691406 663.125 115.441406 662.996094 C 120.953125 662.808594 126.464844 660.527344 131.914062 660.652344 C 144.457031 660.84375 155.351562 656.21875 166.5 651.40625 C 175.496094 647.542969 184.617188 643.867188 194.054688 641.078125 C 202.480469 638.609375 211.351562 637.722656 219.839844 635.570312 C 221.613281 635.125 222.816406 632.148438 224.210938 630.375 C 222.816406 629.234375 221.550781 627.523438 219.902344 627.082031 C 209.703125 624.417969 199.25 622.773438 189.367188 619.414062 C 182.96875 617.199219 176.890625 614.601562 169.921875 614.21875 C 164.789062 613.902344 159.53125 612.699219 154.71875 610.925781 C 146.863281 608.074219 139.199219 606.683594 130.835938 608.203125 C 122.855469 609.660156 114.492188 609.34375 106.636719 611.242188 C 98.023438 613.332031 89.722656 616.945312 81.363281 620.046875 C 80.285156 620.492188 79.207031 621.886719 78.765625 623.027344 C 74.835938 633.476562 74.964844 647.921875 88.078125 655.394531 C 91.8125 657.042969 96.25 659.765625 101.125 661.222656 Z M 257.71875 645.449219 C 257.46875 647.792969 258.226562 650.773438 259.621094 652.609375 C 268.617188 664.265625 277.929688 675.667969 287.113281 687.132812 C 291.105469 692.136719 295.855469 696.699219 299.085938 702.148438 C 305.675781 713.296875 313.847656 722.796875 324.613281 730.019531 C 327.402344 731.917969 330.378906 733.375 333.101562 729.890625 C 342.097656 718.488281 351.03125 706.960938 360.027344 695.558594 C 361.484375 693.722656 362.75 691.632812 364.523438 690.175781 C 367.121094 688.019531 366.742188 686.183594 365.15625 683.648438 C 359.457031 674.402344 351.410156 669.207031 340.515625 667.9375 C 336.777344 667.496094 333.039062 665.785156 329.683594 664.011719 C 324.613281 661.351562 319.925781 657.804688 314.859375 655.078125 C 308.460938 651.660156 302.253906 647.035156 294.523438 648.113281 C 284.894531 649.441406 277.167969 644.5 270.136719 641.964844 C 262.660156 637.40625 258.417969 638.863281 257.71875 645.449219 Z M 280.335938 631.578125 C 296.363281 634.429688 312.769531 635.820312 328.414062 639.875 C 347.355469 644.753906 365.410156 642.535156 383.589844 637.34375 C 385.871094 636.707031 388.40625 634.933594 389.609375 632.972656 C 393.601562 626.382812 394.675781 618.65625 391.128906 612.066406 C 388.023438 606.175781 381.5625 603.515625 374.34375 603.515625 C 370.289062 603.515625 366.171875 602.3125 362.179688 601.359375 C 350.144531 598.511719 338.296875 595.597656 325.882812 600.980469 C 318.21875 604.273438 309.726562 605.859375 301.621094 608.074219 C 297.058594 609.34375 292.433594 610.355469 287.808594 611.625 C 282.109375 613.144531 276.535156 615.109375 270.769531 616.375 C 263.863281 617.957031 261.648438 619.796875 260.253906 626.890625 C 267.160156 628.472656 273.683594 630.375 280.335938 631.578125 Z M 280.335938 631.578125 " fill-opacity="1" fill-rule="nonzero"/><path fill="#ffd040" d="M 233.773438 624.355469 C 235.738281 623.027344 238.652344 620.175781 242.136719 619.035156 C 252.082031 615.742188 259.175781 621.0625 258.671875 631.449219 C 258.289062 638.925781 255.058594 645.894531 247.964844 647.542969 C 242.136719 648.933594 235.359375 646.402344 232.191406 640.890625 C 229.277344 635.820312 230.671875 630.882812 233.773438 624.355469 Z M 233.773438 624.355469 " fill-opacity="1" fill-rule="nonzero"/></g></g></svg>