<svg xmlns="http://www.w3.org/2000/svg" xmlns:xlink="http://www.w3.org/1999/xlink" width="794" zoomAndPan="magnify" viewBox="0 0 595.5 842.249979" height="1123" preserveAspectRatio="xMidYMid meet" version="1.0"><defs><clipPath id="9bee363a4e"><path d="M 70 16 L 524 16 L 524 841.5 L 70 841.5 Z M 70 16 " clip-rule="nonzero"/></clipPath><clipPath id="ae4d150a6e"><path d="M 1.804688 1 L 453.074219 1 L 453.074219 825.5 L 1.804688 825.5 Z M 1.804688 1 " clip-rule="nonzero"/></clipPath><clipPath id="2086518c17"><rect x="0" width="453" y="0" height="825"/></clipPath><clipPath id="6de1c08fca"><rect x="0" width="454" y="0" height="826"/></clipPath></defs><g clip-path="url(#9bee363a4e)"><g transform="matrix(1, 0, 0, 1, 70, 16)"><g clip-path="url(#6de1c08fca)"><g clip-path="url(#ae4d150a6e)"><g transform="matrix(1, 0, 0, 1, 1, 1)"><g clip-path="url(#2086518c17)"><path fill="#e86e83" d="M 32.199219 25.085938 C 23.261719 39.613281 26.613281 57.492188 26.613281 74.253906 C 27.730469 103.308594 31.082031 132.363281 27.730469 161.417969 C 25.496094 188.234375 25.496094 215.054688 29.964844 241.875 C 32.199219 249.695312 35.550781 257.519531 41.132812 263.105469 C 51.1875 269.8125 66.824219 275.398438 79.113281 275.398438 C 85.8125 275.398438 91.398438 270.929688 93.632812 265.339844 C 96.984375 257.519531 99.21875 249.695312 101.453125 241.875 C 104.804688 228.464844 109.269531 215.054688 113.738281 202.761719 C 119.324219 189.351562 127.144531 175.945312 138.3125 165.886719 C 147.25 156.945312 157.300781 150.242188 169.589844 148.007812 C 187.460938 142.417969 209.800781 145.773438 222.089844 129.011719 C 233.257812 116.71875 233.257812 97.722656 239.960938 83.195312 C 244.429688 70.902344 256.714844 49.671875 246.660156 38.496094 C 242.195312 31.789062 235.492188 28.4375 227.671875 27.320312 C 219.855469 26.203125 212.035156 27.320312 204.214844 29.554688 C 191.929688 31.789062 179.640625 35.144531 167.355469 37.378906 C 149.484375 40.730469 128.261719 41.847656 111.503906 34.027344 C 99.21875 27.320312 89.164062 17.261719 75.761719 12.792969 C 60.121094 7.207031 42.25 7.207031 32.199219 25.085938 Z M 32.199219 25.085938 " fill-opacity="1" fill-rule="nonzero"/><path fill="#e86e83" d="M 184.109375 413.964844 C 198.632812 412.847656 210.917969 406.140625 225.4375 403.90625 C 237.726562 400.554688 251.128906 403.90625 263.417969 406.140625 C 281.289062 410.609375 298.042969 413.964844 312.566406 401.671875 C 336.023438 379.320312 291.34375 350.269531 299.160156 308.921875 C 301.394531 292.160156 312.566406 274.28125 301.394531 258.636719 C 295.808594 250.8125 287.992188 245.226562 282.40625 238.523438 C 273.46875 225.113281 266.769531 210.585938 258.949219 196.058594 C 254.480469 186 246.660156 175.945312 235.492188 174.824219 C 220.972656 173.707031 205.332031 177.0625 190.8125 182.648438 C 162.886719 196.058594 145.015625 222.878906 128.261719 248.578125 C 118.207031 264.222656 113.738281 282.101562 103.6875 297.746094 C 103.6875 298.863281 102.570312 299.980469 102.570312 301.101562 C 99.21875 323.449219 109.269531 370.382812 122.675781 389.378906 C 129.378906 397.203125 139.429688 399.4375 148.367188 403.90625 C 158.417969 409.492188 169.589844 415.082031 181.875 415.082031 C 181.875 413.964844 182.992188 413.964844 184.109375 413.964844 Z M 184.109375 413.964844 " fill-opacity="1" fill-rule="nonzero"/><path fill="#e86e83" d="M 79.113281 453.074219 C 73.527344 463.132812 81.347656 473.1875 86.929688 481.011719 C 92.515625 488.832031 96.984375 496.65625 103.6875 504.476562 C 109.269531 512.300781 115.972656 517.886719 122.675781 524.59375 C 128.261719 532.414062 134.960938 538.003906 141.664062 544.707031 C 162.886719 565.9375 182.992188 582.699219 213.152344 588.289062 C 229.90625 590.523438 246.660156 593.875 264.535156 593.875 C 277.9375 593.875 292.460938 591.640625 304.746094 588.289062 C 319.265625 583.820312 332.671875 577.113281 348.308594 575.996094 C 357.246094 574.878906 367.296875 577.113281 376.234375 579.347656 C 390.753906 582.699219 406.394531 587.171875 422.03125 583.820312 C 452.191406 579.347656 446.605469 538.003906 428.734375 522.359375 C 420.914062 515.652344 411.976562 512.300781 404.160156 506.714844 C 387.402344 494.421875 377.351562 475.425781 366.179688 458.664062 C 359.480469 447.488281 347.191406 436.3125 332.671875 439.664062 C 327.085938 440.78125 322.617188 443.019531 317.03125 444.136719 C 305.863281 446.371094 295.808594 447.488281 284.640625 444.136719 C 273.46875 443.019531 264.535156 437.429688 254.480469 432.960938 C 239.960938 425.136719 222.089844 427.375 207.566406 434.078125 C 199.746094 437.429688 193.046875 443.019531 184.109375 444.136719 C 174.058594 446.371094 162.886719 446.371094 152.832031 440.78125 C 132.726562 430.726562 113.738281 415.082031 94.75 436.3125 C 89.164062 441.898438 82.464844 446.371094 79.113281 453.074219 Z M 79.113281 453.074219 " fill-opacity="1" fill-rule="nonzero"/><path fill="#e86e83" d="M 4.273438 507.832031 C 0.921875 545.824219 15.441406 581.582031 19.910156 618.460938 C 22.144531 638.574219 23.261719 658.6875 21.027344 677.683594 C 18.792969 692.210938 14.324219 705.621094 12.09375 720.148438 C 7.625 740.261719 9.859375 761.496094 13.207031 781.609375 C 16.558594 801.722656 28.847656 817.367188 50.070312 812.898438 C 79.113281 808.429688 96.984375 779.375 126.027344 774.90625 C 134.960938 772.671875 143.898438 772.671875 152.832031 772.671875 C 161.769531 772.671875 170.707031 773.789062 179.640625 771.550781 C 197.515625 765.964844 204.214844 745.851562 204.214844 729.089844 C 205.332031 715.679688 206.449219 703.386719 209.800781 689.976562 C 212.035156 677.6875 217.621094 663.160156 210.917969 650.867188 C 201.980469 635.222656 184.109375 628.515625 169.589844 619.578125 C 143.898438 601.699219 117.089844 582.699219 96.984375 558.117188 C 86.929688 545.824219 82.464844 530.179688 77.996094 515.652344 C 72.410156 500.007812 63.472656 481.011719 46.71875 476.542969 C 42.25 475.425781 36.664062 477.660156 32.199219 477.660156 C 27.730469 476.542969 24.378906 476.542969 19.910156 476.542969 C 7.625 478.777344 5.390625 498.890625 4.273438 507.832031 Z M 4.273438 507.832031 " fill-opacity="1" fill-rule="nonzero"/><path fill="#e0ae3d" d="M 12.09375 391.613281 C 6.507812 407.257812 5.390625 412.847656 10.976562 428.492188 C 13.207031 435.195312 17.675781 441.898438 23.261719 444.136719 C 29.964844 446.371094 35.550781 447.488281 42.25 447.488281 C 56.773438 446.371094 59.007812 432.960938 69.058594 425.136719 C 77.996094 416.199219 91.398438 408.375 91.398438 394.96875 C 88.046875 378.203125 81.347656 362.558594 77.996094 346.914062 C 74.644531 332.390625 71.292969 316.746094 60.121094 305.570312 C 54.539062 299.980469 47.835938 295.511719 40.015625 293.277344 C 34.433594 292.160156 12.09375 285.457031 10.976562 293.277344 C 2.039062 320.097656 12.09375 339.09375 14.324219 364.796875 C 16.558594 373.734375 15.441406 382.675781 12.09375 391.613281 Z M 12.09375 391.613281 " fill-opacity="1" fill-rule="nonzero"/><path fill="#d33c57" d="M 37.78125 250.8125 C 38.898438 245.226562 41.132812 239.640625 42.25 234.050781 C 43.367188 230.699219 44.484375 228.464844 44.484375 225.113281 C 45.601562 221.757812 45.601562 219.523438 46.71875 216.171875 C 46.71875 216.171875 46.71875 215.054688 46.71875 215.054688 C 46.71875 215.054688 46.71875 215.054688 46.71875 213.9375 C 46.71875 213.9375 46.71875 212.820312 46.71875 212.820312 C 46.71875 212.820312 46.71875 212.820312 46.71875 211.703125 C 46.71875 211.703125 46.71875 211.703125 46.71875 210.585938 C 47.835938 204.996094 48.953125 198.292969 48.953125 192.707031 C 48.953125 189.351562 48.953125 187.117188 50.070312 183.765625 C 50.070312 183.765625 50.070312 183.765625 50.070312 182.648438 C 50.070312 182.648438 50.070312 181.53125 50.070312 181.53125 C 50.070312 175.945312 51.1875 169.238281 51.1875 163.652344 C 51.1875 158.0625 51.1875 151.359375 51.1875 145.773438 C 51.1875 140.183594 51.1875 133.480469 52.304688 127.890625 C 52.304688 121.1875 52.304688 115.601562 52.304688 108.894531 C 52.304688 102.191406 52.304688 96.601562 52.304688 89.898438 C 52.304688 84.3125 52.304688 77.605469 52.304688 72.019531 C 52.304688 72.019531 52.304688 70.902344 52.304688 70.902344 C 52.304688 69.785156 52.304688 68.667969 52.304688 67.550781 C 52.304688 66.433594 52.304688 65.316406 52.304688 64.195312 C 52.304688 63.078125 52.304688 63.078125 52.304688 61.960938 C 52.304688 60.84375 52.304688 59.726562 52.304688 58.609375 C 52.304688 57.492188 53.421875 55.257812 53.421875 54.140625 C 53.421875 53.023438 54.539062 50.789062 54.539062 49.671875 C 54.539062 48.550781 54.539062 48.550781 55.65625 47.433594 C 55.65625 46.316406 55.65625 46.316406 56.773438 45.199219 C 56.773438 44.082031 57.890625 42.964844 57.890625 41.847656 C 57.890625 40.730469 59.003906 39.613281 59.003906 38.496094 C 59.003906 37.378906 60.121094 36.261719 60.121094 35.144531 C 61.238281 34.027344 61.238281 32.90625 62.355469 31.789062 C 63.472656 30.671875 63.472656 29.554688 64.589844 28.4375 C 64.589844 27.320312 65.707031 26.203125 65.707031 25.085938 C 65.707031 23.96875 66.824219 22.851562 66.824219 21.734375 C 67.941406 20.617188 67.941406 19.5 69.058594 18.382812 C 70.175781 17.261719 71.292969 15.027344 72.410156 13.910156 C 73.527344 12.792969 73.527344 12.792969 74.644531 11.675781 C 75.761719 10.558594 75.761719 10.558594 76.878906 9.441406 C 74.644531 8.324219 73.527344 8.324219 71.292969 7.207031 C 71.292969 7.207031 70.175781 8.324219 70.175781 8.324219 C 69.058594 9.441406 67.941406 10.558594 67.941406 11.675781 C 66.824219 12.792969 65.707031 13.910156 65.707031 15.027344 C 64.589844 16.144531 64.589844 17.261719 63.472656 18.382812 C 62.355469 19.5 62.355469 20.617188 61.238281 22.851562 C 61.238281 23.96875 60.121094 25.085938 60.121094 25.085938 C 60.121094 26.203125 59.003906 26.203125 59.003906 27.320312 C 57.890625 34.027344 57.890625 35.144531 56.773438 37.378906 C 56.773438 38.496094 55.65625 38.496094 55.65625 39.613281 C 55.65625 40.730469 54.539062 40.730469 54.539062 41.847656 C 54.539062 42.964844 54.539062 42.964844 53.421875 44.082031 C 53.421875 45.199219 52.304688 45.199219 52.304688 46.316406 C 52.304688 47.433594 52.304688 47.433594 51.1875 48.550781 C 51.1875 49.671875 51.1875 50.789062 50.070312 50.789062 C 50.070312 51.90625 50.070312 51.90625 50.070312 53.023438 C 50.070312 54.140625 50.070312 54.140625 48.953125 55.257812 C 48.953125 56.375 47.835938 57.492188 47.835938 59.726562 C 47.835938 60.84375 47.835938 63.078125 46.71875 64.195312 C 46.71875 65.316406 46.71875 65.316406 46.71875 66.433594 C 46.71875 67.550781 46.71875 67.550781 46.71875 68.667969 C 46.71875 72.019531 46.71875 75.371094 45.601562 78.722656 C 45.601562 84.3125 45.601562 91.015625 45.601562 96.601562 C 45.601562 102.191406 45.601562 108.894531 45.601562 114.484375 C 45.601562 121.1875 45.601562 126.773438 45.601562 133.480469 C 45.601562 139.066406 45.601562 145.773438 45.601562 151.359375 C 45.601562 156.945312 45.601562 162.535156 45.601562 169.238281 C 45.601562 173.707031 45.601562 179.296875 44.484375 183.765625 C 44.484375 183.765625 44.484375 183.765625 44.484375 184.882812 C 44.484375 184.882812 44.484375 186 44.484375 186 C 44.484375 190.46875 43.367188 193.824219 43.367188 198.292969 C 43.367188 202.761719 42.25 207.234375 41.132812 211.703125 C 41.132812 211.703125 41.132812 211.703125 41.132812 212.820312 C 41.132812 213.9375 40.015625 216.171875 40.015625 217.289062 C 40.015625 218.40625 38.898438 220.640625 38.898438 221.757812 C 37.78125 225.113281 36.667969 227.347656 36.667969 230.699219 C 35.550781 234.050781 34.433594 236.285156 34.433594 239.640625 C 33.316406 242.992188 33.316406 245.226562 32.199219 248.578125 C 33.316406 250.8125 34.433594 254.167969 35.550781 256.402344 C 36.664062 254.167969 36.664062 251.929688 37.78125 250.8125 Z M 37.78125 250.8125 " fill-opacity="1" fill-rule="nonzero"/><path fill="#d33c57" d="M 47.835938 257.519531 C 50.070312 251.929688 52.304688 246.34375 55.65625 240.757812 C 56.773438 238.523438 57.890625 235.167969 59.007812 232.933594 C 60.121094 230.699219 61.238281 228.464844 62.355469 225.113281 C 64.589844 219.523438 66.824219 213.9375 67.941406 209.46875 C 70.175781 203.878906 71.292969 198.292969 72.410156 192.707031 C 73.527344 187.117188 74.644531 181.53125 75.761719 174.824219 C 76.878906 171.472656 76.878906 169.238281 77.996094 165.886719 C 79.113281 162.535156 79.113281 158.0625 80.230469 154.710938 C 80.230469 152.476562 81.347656 151.359375 81.347656 149.125 C 81.347656 148.007812 82.464844 145.773438 82.464844 144.65625 C 83.578125 143.535156 83.578125 141.300781 84.695312 140.183594 C 84.695312 139.066406 85.8125 139.066406 85.8125 137.949219 C 85.8125 136.832031 86.929688 136.832031 86.929688 135.714844 C 88.046875 134.597656 88.046875 133.480469 89.164062 132.363281 C 89.164062 131.246094 90.28125 131.246094 90.28125 130.128906 C 90.28125 129.011719 91.398438 129.011719 91.398438 127.890625 C 92.515625 126.773438 93.632812 125.65625 93.632812 124.539062 C 94.75 123.421875 95.867188 121.1875 96.984375 120.070312 C 99.21875 116.71875 101.453125 114.484375 103.6875 112.246094 C 107.035156 107.777344 111.503906 103.308594 114.855469 99.957031 C 118.207031 95.484375 121.558594 91.015625 124.910156 86.546875 C 126.027344 85.429688 126.027344 84.3125 127.144531 83.195312 C 128.261719 82.078125 129.375 80.960938 129.375 79.839844 C 130.492188 78.722656 131.609375 76.488281 131.609375 75.371094 C 132.726562 74.253906 132.726562 73.136719 133.84375 72.019531 C 134.960938 70.902344 134.960938 69.785156 136.078125 68.667969 C 137.195312 67.550781 137.195312 66.433594 138.3125 65.316406 C 139.429688 64.195312 139.429688 61.960938 140.546875 60.84375 C 141.664062 59.726562 141.664062 58.609375 142.78125 57.492188 C 142.78125 56.375 143.898438 55.257812 143.898438 54.140625 C 146.132812 51.90625 147.25 50.789062 147.25 49.671875 C 148.367188 48.550781 148.367188 46.316406 149.484375 45.199219 C 149.484375 44.082031 150.601562 42.964844 150.601562 41.847656 C 150.601562 41.847656 150.601562 41.847656 150.601562 40.730469 C 148.367188 40.730469 147.25 40.730469 145.015625 40.730469 C 145.015625 41.847656 143.898438 41.847656 143.898438 42.964844 C 143.898438 44.082031 142.78125 45.199219 142.78125 47.433594 C 142.78125 48.550781 141.664062 49.671875 141.664062 50.789062 C 141.664062 51.90625 140.546875 53.023438 140.546875 53.023438 C 139.429688 54.140625 139.429688 56.375 138.3125 57.492188 C 137.195312 59.726562 136.078125 60.84375 134.960938 63.078125 C 133.84375 64.195312 133.84375 65.316406 132.726562 67.550781 C 131.609375 68.667969 131.609375 69.785156 130.492188 70.902344 C 129.378906 72.019531 129.378906 73.136719 128.261719 74.253906 C 127.144531 75.371094 127.144531 76.488281 126.027344 77.605469 C 124.910156 78.722656 123.792969 80.960938 122.675781 82.078125 C 121.558594 84.3125 120.441406 85.429688 119.324219 86.546875 C 118.207031 88.78125 117.089844 89.898438 114.855469 92.132812 C 113.738281 93.25 112.621094 95.484375 111.503906 96.605469 C 108.152344 101.074219 103.6875 105.542969 100.335938 108.894531 C 98.101562 111.128906 96.984375 113.367188 94.75 115.601562 C 92.515625 117.835938 91.398438 120.070312 89.164062 122.304688 C 88.046875 123.421875 86.929688 124.539062 86.929688 125.65625 C 85.8125 126.773438 85.8125 127.890625 84.695312 129.011719 C 84.695312 129.011719 84.695312 130.128906 83.578125 130.128906 C 83.578125 131.246094 82.464844 131.246094 82.464844 132.363281 C 82.464844 132.363281 81.347656 133.480469 81.347656 133.480469 C 81.347656 134.597656 80.230469 134.597656 80.230469 135.714844 C 80.230469 136.832031 79.113281 136.832031 79.113281 137.949219 C 79.113281 137.949219 79.113281 139.066406 77.996094 139.066406 C 77.996094 140.183594 76.878906 141.300781 76.878906 143.535156 C 76.878906 144.65625 75.761719 145.773438 75.761719 148.007812 C 75.761719 149.125 74.644531 151.359375 74.644531 152.476562 C 74.644531 154.710938 73.527344 156.945312 73.527344 159.179688 C 73.527344 161.417969 72.410156 163.652344 72.410156 165.886719 C 71.292969 170.355469 70.175781 174.824219 70.175781 179.296875 C 69.058594 182.648438 69.058594 184.882812 67.941406 188.234375 C 66.824219 190.46875 66.824219 193.824219 65.707031 196.058594 C 64.589844 201.644531 62.355469 207.234375 61.238281 211.703125 C 61.238281 211.703125 61.238281 212.820312 61.238281 212.820312 C 60.125 215.054688 59.007812 218.40625 57.890625 220.640625 C 56.773438 222.878906 55.65625 226.230469 54.539062 228.464844 C 52.304688 234.050781 50.070312 239.640625 47.835938 245.226562 C 45.601562 249.695312 44.484375 254.167969 42.25 257.519531 C 41.132812 258.636719 41.132812 259.753906 40.015625 260.871094 C 41.132812 261.988281 41.132812 261.988281 42.25 263.105469 C 43.367188 264.222656 43.367188 264.222656 44.484375 265.339844 C 45.601562 261.988281 46.71875 259.753906 47.835938 257.519531 Z M 47.835938 257.519531 " fill-opacity="1" fill-rule="nonzero"/><path fill="#d33c57" d="M 61.238281 263.105469 C 63.472656 260.871094 64.589844 258.636719 66.824219 257.519531 C 69.058594 255.285156 71.292969 253.046875 72.410156 250.8125 C 74.644531 248.578125 75.761719 246.34375 77.996094 242.992188 C 84.695312 232.933594 89.164062 221.757812 93.632812 210.585938 C 94.75 206.113281 96.984375 201.644531 98.101562 197.175781 C 99.21875 194.941406 99.21875 192.707031 100.335938 191.589844 C 101.453125 189.351562 101.453125 187.117188 102.570312 184.882812 C 102.570312 183.765625 103.6875 182.648438 103.6875 180.414062 C 103.6875 179.296875 104.804688 178.179688 104.804688 175.945312 C 104.804688 174.824219 104.804688 174.824219 105.921875 173.707031 C 105.921875 172.589844 107.035156 172.589844 107.035156 171.472656 C 107.035156 170.355469 107.035156 170.355469 108.152344 169.238281 C 108.152344 168.121094 109.269531 168.121094 109.269531 167.003906 C 110.386719 165.886719 110.386719 164.769531 111.503906 163.652344 C 111.503906 162.535156 112.621094 161.417969 112.621094 161.417969 C 112.621094 160.300781 113.738281 160.300781 113.738281 159.179688 C 114.855469 158.0625 114.855469 156.945312 115.972656 155.828125 C 117.089844 154.710938 117.089844 153.59375 118.207031 152.476562 C 119.324219 151.359375 119.324219 151.359375 120.441406 150.242188 C 121.558594 149.125 121.558594 149.125 122.675781 148.007812 C 123.792969 146.890625 123.792969 145.773438 124.910156 145.773438 C 126.027344 144.65625 127.144531 143.535156 128.261719 142.417969 C 128.261719 141.300781 129.375 141.300781 129.375 140.183594 C 129.375 140.183594 130.492188 139.066406 130.492188 139.066406 C 131.609375 137.949219 132.726562 136.832031 133.84375 135.714844 C 134.960938 134.597656 136.078125 133.480469 137.195312 132.363281 C 138.3125 131.246094 139.429688 130.128906 140.546875 130.128906 C 141.664062 129.011719 142.78125 127.890625 143.898438 127.890625 C 145.015625 126.773438 146.132812 125.65625 147.25 125.65625 C 148.367188 124.539062 149.484375 124.539062 150.601562 123.421875 C 152.832031 122.304688 155.066406 120.070312 157.300781 118.953125 C 159.535156 117.835938 162.886719 115.601562 165.121094 114.484375 C 167.355469 113.367188 170.707031 111.128906 172.941406 110.011719 C 175.175781 108.894531 177.40625 106.660156 179.640625 104.425781 C 180.757812 103.308594 181.875 102.191406 182.992188 102.191406 C 184.109375 101.074219 185.226562 99.957031 186.34375 98.839844 C 188.578125 96.601562 190.8125 94.367188 193.046875 93.25 C 194.164062 92.132812 195.28125 91.015625 196.398438 91.015625 C 197.515625 89.898438 198.628906 88.78125 199.746094 88.78125 C 200.863281 87.664062 200.863281 87.664062 201.980469 86.546875 C 201.980469 86.546875 203.097656 85.429688 203.097656 85.429688 C 204.214844 84.3125 205.332031 83.195312 206.449219 80.957031 C 206.449219 80.957031 206.449219 79.839844 207.566406 79.839844 C 208.683594 78.722656 208.683594 77.605469 209.800781 77.605469 C 210.917969 76.488281 210.917969 75.371094 212.035156 74.253906 C 213.152344 73.136719 213.152344 72.019531 214.269531 70.902344 C 215.386719 69.785156 216.503906 67.550781 216.503906 66.433594 C 216.503906 66.433594 216.503906 65.3125 217.621094 65.3125 C 217.621094 64.195312 218.738281 63.078125 218.738281 61.960938 C 219.855469 60.84375 219.855469 59.726562 220.972656 58.609375 C 222.085938 57.492188 222.085938 56.375 223.203125 55.257812 C 224.320312 53.023438 224.320312 51.90625 225.4375 49.667969 C 226.554688 47.433594 227.671875 46.316406 227.671875 44.082031 C 228.789062 41.847656 229.90625 40.730469 229.90625 38.496094 C 231.023438 36.261719 232.140625 35.144531 232.140625 32.90625 C 232.140625 31.789062 233.257812 30.671875 233.257812 29.554688 C 232.140625 29.554688 229.90625 28.4375 228.789062 28.4375 C 228.789062 28.4375 228.789062 28.4375 227.671875 28.4375 C 225.4375 34.027344 223.203125 39.613281 219.855469 44.082031 C 218.738281 47.433594 217.621094 49.667969 216.503906 51.90625 C 215.386719 54.140625 214.269531 55.257812 214.269531 57.492188 C 214.269531 58.609375 213.152344 58.609375 213.152344 59.726562 C 212.035156 60.84375 212.035156 61.960938 210.917969 63.078125 C 210.917969 64.195312 209.800781 64.195312 209.800781 65.3125 C 208.683594 66.433594 208.683594 67.550781 207.566406 68.667969 C 207.566406 69.785156 206.449219 69.785156 206.449219 70.902344 C 206.449219 72.019531 205.332031 72.019531 205.332031 73.136719 C 204.214844 74.253906 203.097656 76.488281 201.980469 77.605469 C 201.980469 77.605469 200.863281 78.722656 200.863281 78.722656 C 199.746094 79.839844 199.746094 79.839844 198.632812 80.957031 C 197.515625 82.078125 196.398438 83.195312 195.28125 85.429688 C 194.164062 86.546875 194.164062 86.546875 193.046875 87.664062 C 191.929688 88.78125 191.929688 88.78125 190.8125 89.898438 C 188.578125 91.015625 187.460938 93.25 185.226562 94.367188 C 182.992188 96.601562 180.757812 97.722656 178.523438 99.957031 C 175.175781 103.308594 170.707031 105.542969 167.355469 107.777344 C 165.121094 108.894531 162.886719 111.128906 159.535156 112.246094 C 157.300781 113.367188 155.066406 115.601562 151.71875 116.71875 C 146.132812 120.070312 141.664062 123.421875 137.195312 126.773438 C 134.960938 129.011719 132.726562 130.128906 130.492188 132.363281 C 128.261719 134.597656 126.027344 136.832031 123.792969 137.949219 C 121.558594 140.183594 119.324219 142.417969 117.089844 144.65625 C 115.972656 145.773438 114.855469 146.890625 113.738281 148.007812 C 112.621094 149.125 111.503906 150.242188 111.503906 151.359375 C 110.386719 152.476562 109.269531 153.59375 109.269531 154.710938 C 108.152344 155.828125 108.152344 156.945312 107.035156 158.0625 C 105.917969 160.300781 103.6875 163.652344 102.570312 165.886719 C 101.453125 168.121094 100.335938 171.472656 99.21875 173.707031 C 98.101562 177.0625 96.984375 179.296875 95.867188 182.648438 C 93.632812 190.46875 91.398438 198.292969 88.046875 206.113281 C 86.929688 207.234375 86.929688 209.46875 85.8125 210.585938 C 84.695312 212.820312 84.695312 215.054688 83.578125 216.171875 C 82.460938 219.523438 80.230469 222.878906 79.113281 226.230469 C 77.996094 228.464844 76.878906 230.699219 75.761719 232.933594 C 74.644531 234.050781 74.644531 235.167969 73.527344 236.285156 C 72.410156 237.402344 72.410156 238.523438 71.292969 239.640625 C 70.175781 241.875 69.058594 242.992188 67.941406 245.226562 C 66.824219 247.460938 64.589844 248.578125 63.472656 250.8125 C 60.121094 254.164062 56.773438 257.519531 53.421875 260.871094 C 52.304688 261.988281 50.070312 264.222656 48.953125 265.339844 C 50.070312 266.457031 52.304688 266.457031 54.539062 267.574219 C 56.773438 267.574219 59.007812 265.339844 61.238281 263.105469 Z M 61.238281 263.105469 " fill-opacity="1" fill-rule="nonzero"/><path fill="#d33c57" d="M 103.6875 306.6875 C 108.152344 305.570312 112.621094 305.570312 117.089844 304.453125 C 118.207031 304.453125 119.324219 304.453125 120.441406 304.453125 C 121.558594 304.453125 122.675781 304.453125 122.675781 303.335938 C 123.792969 303.335938 123.792969 303.335938 124.910156 303.335938 C 126.027344 303.335938 127.144531 302.21875 128.261719 302.21875 C 129.375 302.21875 131.609375 301.101562 132.726562 301.101562 C 133.84375 301.101562 133.84375 299.980469 134.960938 299.980469 C 136.078125 299.980469 137.195312 298.863281 137.195312 298.863281 C 138.3125 297.746094 139.429688 297.746094 140.546875 296.628906 C 141.664062 296.628906 142.78125 295.511719 143.898438 295.511719 C 145.015625 295.511719 146.132812 294.394531 146.132812 293.277344 C 147.25 292.160156 148.367188 292.160156 149.484375 291.042969 C 149.484375 291.042969 150.601562 291.042969 150.601562 289.925781 C 151.71875 289.925781 151.71875 288.808594 152.832031 288.808594 C 153.949219 287.691406 153.949219 287.691406 155.066406 286.574219 C 157.300781 285.457031 158.417969 283.21875 160.652344 282.101562 C 164.003906 278.75 167.355469 276.515625 170.707031 273.164062 C 171.824219 272.046875 172.941406 272.046875 172.941406 270.929688 C 174.058594 269.8125 175.175781 268.691406 176.292969 268.691406 C 177.40625 267.574219 179.640625 265.339844 180.757812 264.222656 C 181.875 263.105469 181.875 263.105469 182.992188 261.988281 C 184.109375 260.871094 184.109375 260.871094 185.226562 259.753906 C 186.34375 257.519531 188.578125 256.402344 189.695312 254.167969 C 193.046875 250.8125 196.398438 247.460938 199.75 242.992188 C 200.863281 240.757812 203.097656 239.640625 204.214844 237.402344 C 205.332031 235.167969 207.566406 234.050781 208.683594 231.816406 C 209.800781 229.582031 212.035156 228.464844 214.269531 227.347656 C 215.386719 226.230469 217.621094 223.996094 219.855469 222.878906 C 219.855469 222.878906 219.855469 222.878906 220.972656 221.757812 C 223.207031 220.640625 224.320312 218.40625 226.554688 217.289062 C 226.554688 217.289062 226.554688 217.289062 227.671875 216.171875 C 228.789062 216.171875 228.789062 215.054688 229.90625 215.054688 C 231.023438 213.9375 232.140625 213.9375 232.140625 212.820312 C 234.375 211.703125 235.492188 210.585938 237.726562 209.46875 C 237.726562 209.46875 237.726562 209.46875 238.84375 209.46875 C 239.960938 209.46875 239.960938 208.351562 241.078125 208.351562 C 242.195312 208.351562 243.3125 207.234375 244.429688 207.234375 C 248.894531 204.996094 252.246094 203.878906 256.714844 201.644531 C 258.949219 200.527344 261.183594 199.410156 263.417969 198.292969 C 262.300781 197.175781 262.300781 196.058594 261.183594 194.941406 C 261.183594 194.941406 261.183594 193.824219 260.066406 193.824219 C 258.949219 193.824219 257.832031 194.941406 256.714844 194.941406 C 254.480469 196.058594 252.246094 197.175781 250.011719 198.292969 C 247.777344 199.410156 245.546875 200.527344 243.3125 201.644531 C 242.195312 201.644531 241.078125 202.761719 239.960938 202.761719 C 238.84375 203.878906 237.726562 203.878906 236.609375 204.996094 C 235.492188 204.996094 235.492188 206.113281 234.375 206.113281 C 233.257812 207.234375 232.140625 207.234375 229.90625 208.351562 C 228.789062 208.351562 228.789062 209.46875 227.671875 209.46875 C 226.554688 210.585938 225.4375 211.703125 224.320312 211.703125 C 223.207031 211.703125 223.207031 212.820312 222.089844 212.820312 C 220.972656 213.9375 219.855469 215.054688 218.738281 216.171875 C 217.621094 216.171875 217.621094 217.289062 216.503906 217.289062 C 215.386719 218.40625 214.269531 219.523438 213.152344 220.640625 C 209.800781 223.996094 206.449219 227.347656 203.097656 230.699219 C 199.75 234.050781 196.398438 237.402344 194.164062 240.757812 C 190.8125 244.109375 188.578125 247.460938 185.226562 250.8125 C 184.109375 253.046875 181.875 254.167969 180.757812 256.402344 C 179.640625 257.519531 178.523438 258.636719 178.523438 259.753906 C 177.40625 260.871094 177.40625 260.871094 176.292969 261.988281 C 175.175781 263.105469 175.175781 263.105469 174.058594 264.222656 C 172.941406 265.339844 171.824219 266.457031 170.707031 267.574219 C 169.589844 268.691406 167.355469 269.8125 166.238281 272.046875 C 162.886719 275.398438 159.535156 277.632812 155.066406 280.984375 C 153.949219 282.101562 153.949219 282.101562 152.835938 283.21875 C 151.71875 284.335938 150.601562 284.335938 149.484375 285.457031 C 148.367188 286.574219 147.25 286.574219 146.132812 287.691406 C 145.015625 288.808594 145.015625 288.808594 143.898438 289.925781 C 142.78125 289.925781 142.78125 291.042969 141.664062 291.042969 C 140.546875 291.042969 140.546875 292.160156 139.429688 292.160156 C 138.3125 292.160156 138.3125 293.277344 137.195312 293.277344 C 136.078125 294.394531 134.960938 294.394531 133.84375 295.511719 C 132.726562 296.628906 131.609375 296.628906 129.378906 296.628906 C 128.261719 296.628906 127.144531 297.746094 126.027344 297.746094 C 124.910156 297.746094 123.792969 297.746094 122.675781 298.863281 C 121.558594 298.863281 120.441406 298.863281 119.324219 299.980469 C 118.207031 299.980469 117.089844 299.980469 115.972656 301.101562 C 110.386719 302.21875 104.804688 303.335938 99.21875 303.335938 C 99.21875 305.570312 99.21875 306.6875 99.21875 308.921875 C 102.570312 306.6875 102.570312 306.6875 103.6875 306.6875 Z M 103.6875 306.6875 " fill-opacity="1" fill-rule="nonzero"/><path fill="#d33c57" d="M 121.558594 332.390625 C 122.675781 332.390625 122.675781 332.390625 123.792969 332.390625 C 124.910156 332.390625 124.910156 332.390625 126.027344 332.390625 C 127.144531 332.390625 128.261719 332.390625 130.492188 332.390625 C 131.609375 332.390625 132.726562 332.390625 133.84375 332.390625 C 133.84375 332.390625 134.960938 332.390625 134.960938 332.390625 C 136.078125 332.390625 138.3125 331.269531 139.429688 331.269531 C 139.429688 331.269531 140.546875 331.269531 140.546875 331.269531 C 141.664062 331.269531 142.78125 330.152344 143.898438 330.152344 C 145.015625 330.152344 146.132812 329.035156 147.25 329.035156 C 148.367188 329.035156 149.484375 327.917969 150.601562 327.917969 C 151.71875 327.917969 152.832031 326.800781 155.066406 326.800781 C 160.652344 324.566406 166.238281 322.332031 171.824219 320.097656 C 177.40625 317.863281 182.992188 315.625 187.460938 313.390625 C 189.695312 312.273438 193.046875 311.15625 195.28125 310.039062 C 197.515625 308.921875 200.863281 307.804688 203.097656 306.6875 C 205.332031 305.570312 208.683594 304.453125 210.917969 303.335938 C 213.152344 302.21875 216.503906 301.101562 218.738281 298.863281 C 219.855469 297.746094 220.972656 297.746094 222.089844 296.628906 C 223.203125 296.628906 224.320312 295.511719 225.4375 294.394531 C 227.671875 293.277344 231.023438 291.042969 233.257812 289.925781 C 235.492188 288.808594 238.84375 286.574219 241.078125 285.457031 C 242.195312 285.457031 243.3125 284.335938 244.429688 284.335938 C 245.546875 283.21875 246.660156 283.21875 247.777344 282.101562 C 250.011719 280.984375 252.246094 279.867188 253.363281 278.75 C 255.597656 277.632812 257.832031 276.515625 261.183594 275.398438 C 264.535156 274.28125 266.769531 273.164062 270.117188 272.046875 C 275.703125 269.8125 280.171875 267.574219 285.757812 265.339844 C 290.226562 263.105469 294.691406 261.988281 299.160156 259.753906 C 298.042969 258.636719 296.925781 256.402344 295.808594 255.285156 C 294.691406 255.285156 294.691406 256.402344 293.574219 256.402344 C 287.992188 258.636719 282.40625 260.871094 277.9375 263.105469 C 273.46875 265.339844 270.117188 266.457031 265.652344 268.691406 C 263.417969 269.8125 261.183594 270.929688 258.949219 270.929688 C 257.832031 270.929688 256.714844 272.046875 255.597656 272.046875 C 254.480469 272.046875 253.363281 273.164062 252.246094 273.164062 C 250.011719 274.28125 246.664062 275.398438 244.429688 276.515625 C 241.078125 277.632812 238.84375 279.867188 235.492188 280.984375 C 233.257812 282.101562 229.90625 284.335938 227.671875 285.457031 C 225.4375 286.574219 223.207031 287.691406 220.972656 288.808594 C 218.738281 289.925781 217.621094 291.042969 215.386719 291.042969 C 213.152344 292.160156 210.917969 293.277344 207.566406 294.394531 C 206.449219 295.511719 205.332031 295.511719 204.214844 296.628906 C 203.097656 297.746094 200.863281 297.746094 199.75 298.863281 C 194.164062 301.101562 189.695312 303.335938 184.109375 305.570312 C 178.523438 307.804688 174.058594 310.039062 168.472656 312.273438 C 162.886719 314.507812 157.300781 316.746094 151.71875 318.980469 C 149.484375 320.097656 148.367188 320.097656 146.132812 321.214844 C 145.015625 321.214844 143.898438 322.332031 141.664062 322.332031 C 140.546875 322.332031 139.429688 323.449219 138.3125 323.449219 C 137.195312 323.449219 136.078125 324.566406 134.960938 324.566406 C 133.84375 324.566406 131.609375 325.683594 130.492188 325.683594 C 128.261719 325.683594 127.144531 325.683594 124.910156 326.800781 C 123.792969 326.800781 123.792969 326.800781 122.675781 326.800781 C 121.558594 326.800781 121.558594 326.800781 120.441406 326.800781 C 119.324219 326.800781 118.207031 326.800781 115.972656 326.800781 C 114.855469 326.800781 113.738281 326.800781 112.621094 326.800781 C 111.503906 326.800781 110.386719 326.800781 109.269531 326.800781 C 108.152344 326.800781 107.035156 326.800781 104.804688 326.800781 C 102.570312 326.800781 100.335938 326.800781 98.101562 326.800781 C 98.101562 329.035156 98.101562 330.152344 99.21875 332.390625 C 102.570312 332.390625 105.921875 332.390625 108.152344 333.507812 C 109.269531 333.507812 111.503906 333.507812 112.621094 333.507812 C 112.621094 333.507812 112.621094 333.507812 113.738281 333.507812 C 119.324219 332.390625 120.441406 332.390625 121.558594 332.390625 Z M 121.558594 332.390625 " fill-opacity="1" fill-rule="nonzero"/><path fill="#d33c57" d="M 257.832031 363.679688 C 260.066406 363.679688 261.183594 363.679688 263.417969 363.679688 C 263.417969 363.679688 263.417969 363.679688 264.535156 363.679688 C 265.652344 363.679688 265.652344 363.679688 266.769531 363.679688 C 267.886719 363.679688 270.117188 363.679688 271.234375 363.679688 C 272.351562 363.679688 273.46875 363.679688 274.585938 363.679688 C 275.703125 363.679688 277.9375 363.679688 279.054688 363.679688 C 280.171875 363.679688 281.289062 363.679688 282.40625 363.679688 C 284.640625 363.679688 287.992188 363.679688 290.226562 362.558594 C 292.460938 362.558594 293.574219 362.558594 295.808594 361.441406 C 296.925781 361.441406 298.042969 361.441406 299.160156 360.324219 C 300.277344 360.324219 301.394531 360.324219 302.511719 359.207031 C 303.628906 359.207031 305.863281 358.089844 306.980469 358.089844 C 308.097656 358.089844 308.097656 358.089844 309.214844 356.972656 C 308.097656 355.855469 308.097656 353.621094 306.980469 352.503906 C 306.980469 352.503906 305.863281 352.503906 305.863281 352.503906 C 304.746094 352.503906 302.511719 353.621094 301.394531 353.621094 C 299.160156 353.621094 298.042969 354.738281 295.808594 354.738281 C 294.691406 354.738281 292.460938 354.738281 291.34375 355.855469 C 290.226562 355.855469 289.109375 355.855469 286.875 355.855469 C 284.640625 355.855469 283.523438 355.855469 281.289062 356.972656 C 279.054688 356.972656 275.703125 356.972656 273.46875 356.972656 C 272.351562 356.972656 271.234375 356.972656 270.117188 356.972656 C 269.003906 356.972656 266.769531 356.972656 265.652344 356.972656 C 264.535156 356.972656 263.417969 356.972656 263.417969 356.972656 C 263.417969 356.972656 262.300781 356.972656 262.300781 356.972656 C 261.183594 356.972656 258.949219 356.972656 257.832031 356.972656 C 256.714844 356.972656 254.480469 356.972656 253.363281 356.972656 C 252.246094 356.972656 251.128906 356.972656 250.011719 356.972656 C 247.777344 356.972656 244.429688 356.972656 242.195312 356.972656 C 237.726562 356.972656 232.140625 356.972656 227.671875 355.855469 C 222.089844 355.855469 216.503906 354.738281 212.035156 354.738281 C 208.683594 354.738281 206.449219 354.738281 203.097656 353.621094 C 200.863281 353.621094 197.515625 353.621094 195.28125 353.621094 C 191.929688 353.621094 189.695312 353.621094 186.34375 353.621094 C 182.992188 353.621094 180.757812 353.621094 177.40625 353.621094 C 175.175781 353.621094 172.941406 353.621094 169.589844 353.621094 C 166.238281 353.621094 164.003906 353.621094 160.652344 353.621094 C 155.066406 353.621094 150.601562 353.621094 145.015625 353.621094 C 140.546875 353.621094 134.960938 353.621094 130.492188 353.621094 C 127.144531 353.621094 123.792969 353.621094 120.441406 352.503906 C 119.324219 352.503906 118.207031 352.503906 118.207031 352.503906 C 117.089844 352.503906 115.972656 352.503906 114.855469 352.503906 C 113.738281 352.503906 111.503906 351.386719 110.386719 351.386719 C 109.269531 351.386719 108.152344 351.386719 107.035156 350.269531 C 107.035156 352.503906 108.152344 354.738281 108.152344 355.855469 C 108.152344 355.855469 109.269531 355.855469 109.269531 355.855469 C 110.386719 355.855469 111.503906 355.855469 112.621094 356.972656 C 113.738281 356.972656 114.855469 356.972656 117.089844 358.089844 C 118.207031 358.089844 119.324219 358.089844 121.558594 358.089844 C 122.675781 358.089844 124.910156 358.089844 126.027344 358.089844 C 127.144531 358.089844 129.375 358.089844 130.492188 358.089844 C 131.609375 358.089844 133.84375 358.089844 134.960938 358.089844 C 137.195312 358.089844 140.546875 358.089844 142.78125 358.089844 C 148.367188 358.089844 153.949219 358.089844 159.535156 358.089844 C 165.121094 358.089844 170.707031 358.089844 176.289062 358.089844 C 181.875 358.089844 187.460938 358.089844 191.929688 358.089844 C 195.28125 358.089844 197.515625 358.089844 200.863281 358.089844 C 206.449219 358.089844 212.035156 359.207031 217.621094 359.207031 C 223.203125 359.207031 228.789062 360.324219 234.375 360.324219 C 236.609375 360.324219 239.960938 360.324219 242.195312 360.324219 C 244.429688 360.324219 247.777344 360.324219 250.011719 360.324219 C 252.246094 363.679688 255.597656 363.679688 257.832031 363.679688 Z M 257.832031 363.679688 " fill-opacity="1" fill-rule="nonzero"/><path fill="#d33c57" d="M 256.714844 494.421875 C 257.832031 494.421875 258.949219 494.421875 260.066406 494.421875 C 261.183594 494.421875 261.183594 494.421875 262.300781 494.421875 C 263.417969 494.421875 264.535156 494.421875 264.535156 494.421875 C 265.652344 494.421875 267.886719 494.421875 269.003906 494.421875 C 270.117188 494.421875 272.351562 494.421875 273.46875 493.304688 C 275.703125 493.304688 276.820312 493.304688 279.054688 492.1875 C 281.289062 492.1875 282.40625 491.070312 284.640625 491.070312 C 286.875 491.070312 287.992188 489.953125 290.226562 489.953125 C 296.925781 488.832031 302.511719 486.597656 309.214844 485.480469 C 311.449219 485.480469 313.683594 484.363281 315.917969 484.363281 C 318.148438 484.363281 320.382812 483.246094 322.617188 483.246094 C 323.734375 483.246094 325.96875 482.128906 327.085938 482.128906 C 328.203125 482.128906 330.4375 482.128906 331.554688 481.011719 C 332.671875 481.011719 333.789062 481.011719 336.023438 479.894531 C 338.257812 479.894531 339.375 479.894531 341.605469 479.894531 C 343.839844 479.894531 346.074219 479.894531 348.308594 479.894531 C 348.308594 479.894531 349.425781 479.894531 349.425781 479.894531 C 350.542969 479.894531 350.542969 479.894531 351.660156 479.894531 C 352.777344 479.894531 353.894531 479.894531 355.011719 479.894531 C 356.128906 479.894531 358.363281 479.894531 359.480469 479.894531 C 359.480469 479.894531 360.597656 479.894531 360.597656 479.894531 C 361.714844 479.894531 361.714844 479.894531 362.832031 479.894531 C 363.945312 479.894531 365.0625 479.894531 367.296875 481.011719 C 368.414062 481.011719 370.648438 482.128906 371.765625 482.128906 C 375.117188 483.246094 378.46875 483.246094 381.820312 484.363281 C 381.820312 484.363281 382.9375 484.363281 382.9375 484.363281 C 384.054688 485.480469 385.171875 485.480469 385.171875 485.480469 C 382.9375 483.246094 381.820312 481.011719 379.585938 477.660156 C 378.46875 477.660156 378.46875 477.660156 377.351562 476.542969 C 376.234375 476.542969 374 475.425781 372.882812 475.425781 C 371.765625 475.425781 371.765625 475.425781 370.648438 475.425781 C 369.53125 475.425781 368.414062 475.425781 367.296875 474.308594 C 366.179688 474.308594 363.945312 474.308594 361.714844 473.191406 C 360.597656 473.191406 358.363281 473.191406 357.246094 473.191406 C 356.128906 473.191406 355.011719 473.191406 355.011719 473.191406 C 353.894531 473.191406 353.894531 473.191406 352.777344 473.191406 C 351.660156 473.191406 350.542969 473.191406 349.425781 473.191406 C 348.308594 473.191406 348.308594 473.191406 347.191406 473.191406 C 344.957031 473.191406 342.722656 473.191406 341.605469 473.191406 C 340.488281 473.191406 338.257812 473.191406 337.140625 473.191406 C 336.023438 473.191406 334.90625 473.191406 334.90625 473.191406 C 334.90625 473.191406 333.789062 473.191406 333.789062 473.191406 C 332.671875 473.191406 331.554688 473.191406 330.4375 473.191406 C 329.320312 473.191406 329.320312 473.191406 328.203125 473.191406 C 325.96875 473.191406 324.851562 474.308594 322.617188 474.308594 C 321.5 474.308594 319.265625 475.425781 318.148438 475.425781 C 314.800781 476.542969 312.566406 476.542969 309.214844 477.660156 C 304.746094 478.777344 301.394531 479.894531 296.925781 481.011719 C 294.691406 481.011719 292.460938 482.128906 291.34375 482.128906 C 289.109375 482.128906 287.992188 483.246094 285.757812 483.246094 C 283.523438 483.246094 282.40625 484.363281 280.171875 484.363281 C 279.054688 484.363281 279.054688 484.363281 277.9375 484.363281 C 276.820312 484.363281 275.703125 484.363281 274.585938 484.363281 C 273.46875 484.363281 273.46875 484.363281 272.351562 484.363281 C 271.234375 484.363281 270.117188 484.363281 269.003906 484.363281 C 267.886719 484.363281 267.886719 484.363281 266.769531 484.363281 C 265.652344 484.363281 264.535156 484.363281 264.535156 484.363281 C 262.300781 484.363281 261.183594 484.363281 258.949219 484.363281 C 257.832031 484.363281 257.832031 484.363281 256.714844 484.363281 C 255.597656 484.363281 254.480469 484.363281 253.363281 484.363281 C 252.246094 484.363281 250.011719 484.363281 248.894531 484.363281 C 247.777344 484.363281 247.777344 484.363281 246.660156 484.363281 C 245.546875 484.363281 244.429688 484.363281 243.3125 484.363281 C 242.195312 484.363281 242.195312 484.363281 241.078125 484.363281 C 239.960938 484.363281 238.84375 484.363281 238.84375 484.363281 C 237.726562 484.363281 237.726562 484.363281 236.609375 484.363281 C 235.492188 484.363281 235.492188 484.363281 234.375 484.363281 C 231.023438 483.246094 228.789062 483.246094 225.4375 482.128906 C 222.089844 481.011719 218.738281 479.894531 215.386719 478.777344 C 212.035156 477.660156 208.683594 476.542969 205.332031 475.425781 C 201.980469 474.308594 198.632812 473.1875 196.398438 473.1875 C 194.164062 472.070312 190.8125 472.070312 188.578125 472.070312 C 185.226562 472.070312 182.992188 470.953125 179.640625 470.953125 C 177.40625 470.953125 174.058594 469.835938 171.824219 469.835938 C 169.589844 469.835938 166.238281 468.71875 164.003906 468.71875 C 162.886719 468.71875 161.769531 468.71875 160.652344 467.601562 C 159.535156 467.601562 158.417969 466.484375 157.300781 466.484375 C 156.183594 466.484375 156.183594 466.484375 155.066406 466.484375 C 153.949219 466.484375 153.949219 466.484375 152.832031 465.367188 C 151.71875 465.367188 151.71875 465.367188 151.71875 464.25 C 150.601562 464.25 150.601562 464.25 149.484375 463.132812 C 148.367188 463.132812 147.25 462.015625 146.132812 462.015625 C 145.015625 462.015625 145.015625 460.898438 143.898438 460.898438 C 142.78125 460.898438 142.78125 459.78125 141.664062 459.78125 C 140.546875 459.78125 139.429688 458.664062 139.429688 458.664062 C 138.3125 457.546875 137.195312 457.546875 136.078125 456.425781 C 134.960938 456.425781 134.960938 455.308594 134.960938 455.308594 C 134.960938 455.308594 133.84375 454.191406 133.84375 454.191406 C 132.726562 453.074219 131.609375 453.074219 130.492188 451.957031 C 129.378906 450.839844 127.144531 449.722656 126.027344 448.605469 C 123.792969 446.371094 120.441406 444.136719 118.207031 443.019531 C 113.738281 438.546875 108.152344 434.078125 103.6875 430.726562 C 102.570312 429.609375 102.570312 429.609375 101.453125 428.492188 C 100.335938 429.609375 99.21875 430.726562 96.984375 431.84375 C 99.21875 432.960938 100.335938 434.078125 102.570312 436.3125 C 104.804688 438.546875 108.152344 440.785156 110.386719 443.019531 C 114.855469 447.488281 120.441406 450.839844 124.910156 455.308594 C 126.027344 456.425781 126.027344 456.425781 127.144531 457.546875 C 128.261719 457.546875 128.261719 458.664062 129.375 458.664062 C 130.492188 459.78125 132.726562 460.898438 133.84375 462.015625 C 133.84375 462.015625 134.960938 463.132812 134.960938 463.132812 C 136.078125 463.132812 136.078125 464.25 137.195312 464.25 C 138.3125 465.367188 140.546875 465.367188 141.664062 466.484375 C 142.78125 466.484375 143.898438 467.601562 143.898438 467.601562 C 145.015625 467.601562 145.015625 468.71875 146.132812 468.71875 C 148.367188 469.835938 149.484375 469.835938 151.71875 470.953125 C 152.832031 470.953125 152.832031 470.953125 153.949219 470.953125 C 155.066406 470.953125 155.066406 470.953125 156.183594 472.070312 C 158.417969 472.070312 159.535156 473.191406 161.769531 473.191406 C 162.886719 473.191406 164.003906 474.308594 166.238281 474.308594 C 167.355469 474.308594 169.589844 474.308594 170.707031 475.425781 C 172.941406 475.425781 176.292969 476.542969 178.523438 476.542969 C 180.757812 476.542969 184.109375 477.660156 186.34375 477.660156 C 188.578125 477.660156 191.929688 478.777344 194.164062 478.777344 C 197.515625 479.894531 200.863281 479.894531 203.097656 481.011719 C 206.449219 482.128906 209.800781 483.246094 213.152344 484.363281 C 219.855469 486.597656 225.4375 488.835938 232.140625 489.953125 C 233.257812 489.953125 233.257812 489.953125 234.375 491.070312 C 235.492188 491.070312 236.609375 491.070312 236.609375 491.070312 C 237.726562 491.070312 237.726562 491.070312 238.84375 491.070312 C 239.960938 491.070312 241.078125 491.070312 242.195312 491.070312 C 244.429688 491.070312 245.546875 491.070312 247.777344 492.1875 C 248.894531 492.1875 251.128906 492.1875 252.246094 492.1875 C 253.363281 492.1875 253.363281 492.1875 254.480469 492.1875 C 255.597656 492.1875 256.714844 492.1875 257.832031 492.1875 C 254.480469 494.421875 255.597656 494.421875 256.714844 494.421875 C 255.597656 494.421875 255.597656 494.421875 256.714844 494.421875 Z M 256.714844 494.421875 " fill-opacity="1" fill-rule="nonzero"/><path fill="#d33c57" d="M 441.019531 567.054688 C 441.019531 567.054688 441.019531 565.9375 441.019531 567.054688 C 439.902344 565.9375 439.902344 565.9375 438.785156 564.820312 C 438.785156 564.820312 438.785156 564.820312 437.667969 563.703125 C 437.667969 563.703125 436.550781 562.585938 436.550781 562.585938 C 435.433594 561.46875 435.433594 561.46875 434.316406 560.351562 C 434.316406 560.351562 433.199219 559.234375 433.199219 559.234375 C 432.085938 558.117188 430.96875 557 429.851562 555.882812 C 428.734375 554.765625 428.734375 554.765625 427.617188 553.648438 C 427.617188 553.648438 426.5 552.53125 426.5 552.53125 C 425.382812 551.410156 423.148438 550.292969 422.03125 549.175781 C 420.914062 549.175781 420.914062 548.058594 419.796875 548.058594 C 418.679688 548.058594 418.679688 546.941406 417.5625 546.941406 C 417.5625 546.941406 417.5625 546.941406 416.445312 546.941406 C 415.328125 545.824219 414.210938 545.824219 413.09375 544.707031 C 411.976562 544.707031 411.976562 543.589844 410.859375 543.589844 C 408.628906 542.472656 406.394531 541.355469 405.277344 541.355469 C 404.160156 541.355469 403.042969 540.238281 401.925781 540.238281 C 400.808594 540.238281 399.691406 539.121094 399.691406 539.121094 C 398.574219 539.121094 397.457031 538.003906 396.339844 538.003906 C 395.222656 538.003906 394.105469 536.886719 392.988281 536.886719 C 391.871094 536.886719 391.871094 536.886719 390.753906 535.765625 C 389.636719 535.765625 388.519531 534.648438 386.285156 534.648438 C 384.054688 534.648438 381.820312 533.53125 379.585938 533.53125 C 378.46875 533.53125 378.46875 533.53125 377.351562 533.53125 C 376.234375 533.53125 375.117188 533.53125 372.882812 533.53125 C 371.765625 533.53125 370.648438 533.53125 370.648438 533.53125 C 369.53125 533.53125 368.414062 533.53125 367.296875 533.53125 C 366.179688 533.53125 366.179688 533.53125 365.0625 533.53125 C 365.0625 533.53125 363.945312 533.53125 363.945312 533.53125 C 362.828125 533.53125 361.714844 533.53125 360.597656 533.53125 C 356.128906 533.53125 351.660156 533.53125 347.191406 534.648438 C 344.957031 534.648438 342.722656 534.648438 340.488281 534.648438 C 338.257812 534.648438 336.023438 534.648438 333.789062 535.765625 C 329.320312 535.765625 325.96875 536.886719 321.5 536.886719 C 312.566406 538.003906 304.746094 539.121094 295.808594 540.238281 C 291.34375 541.355469 286.875 541.355469 283.523438 542.472656 C 281.289062 542.472656 279.054688 543.589844 276.820312 543.589844 C 274.585938 543.589844 273.46875 543.589844 271.234375 544.707031 C 267.886719 544.707031 264.535156 545.824219 261.183594 545.824219 C 260.066406 545.824219 257.832031 545.824219 256.714844 545.824219 C 254.480469 545.824219 253.363281 545.824219 251.128906 545.824219 C 251.128906 545.824219 250.011719 545.824219 248.894531 545.824219 C 248.894531 545.824219 247.777344 545.824219 247.777344 545.824219 C 246.660156 545.824219 245.546875 545.824219 245.546875 545.824219 C 244.429688 545.824219 244.429688 545.824219 243.3125 545.824219 C 242.195312 545.824219 241.078125 545.824219 241.078125 545.824219 C 238.84375 545.824219 237.726562 545.824219 235.492188 545.824219 C 235.492188 545.824219 235.492188 545.824219 234.375 545.824219 C 233.257812 545.824219 233.257812 545.824219 232.140625 545.824219 C 231.023438 545.824219 229.90625 545.824219 229.90625 545.824219 C 228.789062 545.824219 226.554688 544.707031 225.4375 544.707031 C 224.320312 544.707031 223.203125 543.589844 222.089844 543.589844 C 220.972656 543.589844 219.855469 542.472656 218.738281 542.472656 C 217.621094 542.472656 215.386719 541.355469 214.269531 541.355469 C 213.152344 541.355469 210.917969 540.238281 209.800781 540.238281 C 208.683594 540.238281 207.566406 539.121094 205.332031 539.121094 C 203.097656 538.003906 199.746094 536.886719 197.515625 535.769531 C 195.28125 534.648438 191.929688 533.53125 189.695312 532.414062 C 188.578125 531.296875 186.34375 531.296875 185.226562 530.179688 C 184.109375 529.0625 182.992188 529.0625 180.757812 527.945312 C 177.40625 526.828125 175.175781 524.59375 171.824219 523.476562 C 168.472656 521.242188 165.121094 520.125 162.886719 517.886719 C 159.535156 515.652344 156.183594 514.535156 153.949219 512.300781 C 150.601562 510.066406 148.367188 508.949219 145.015625 506.714844 C 141.664062 504.480469 139.429688 502.242188 136.078125 501.125 C 134.960938 500.007812 132.726562 498.890625 131.609375 497.773438 C 130.492188 496.65625 129.375 495.539062 127.144531 494.421875 C 123.792969 492.1875 121.558594 488.835938 118.207031 486.597656 C 114.855469 483.246094 111.503906 479.894531 109.269531 477.660156 C 105.917969 474.308594 103.6875 472.070312 100.335938 468.71875 C 96.984375 465.367188 94.75 463.132812 91.398438 459.78125 C 89.164062 457.546875 86.929688 455.308594 84.695312 453.074219 C 83.578125 451.957031 82.460938 450.839844 81.347656 448.605469 C 80.230469 449.722656 79.113281 450.839844 77.996094 453.074219 C 79.113281 455.308594 81.347656 457.546875 83.578125 458.664062 C 85.8125 462.015625 89.164062 464.25 92.515625 467.601562 C 95.867188 470.953125 98.101562 473.191406 101.453125 476.542969 C 104.804688 479.894531 107.035156 483.246094 110.386719 485.480469 C 111.503906 486.597656 113.738281 488.835938 114.855469 489.953125 C 115.972656 491.070312 118.207031 492.1875 119.324219 494.421875 C 122.675781 497.773438 126.027344 500.007812 128.261719 502.242188 C 129.375 503.359375 130.492188 503.359375 130.492188 504.480469 C 131.609375 505.597656 132.726562 505.597656 133.84375 506.714844 C 134.960938 507.832031 137.195312 508.949219 139.429688 510.066406 C 142.78125 512.300781 146.132812 514.535156 149.484375 516.769531 C 152.832031 519.003906 157.300781 521.242188 160.652344 523.476562 C 164.003906 525.710938 167.355469 527.945312 171.824219 529.0625 C 175.175781 531.296875 179.640625 533.53125 182.992188 534.648438 C 186.34375 536.886719 190.8125 538.003906 194.164062 539.121094 C 196.398438 540.238281 198.632812 541.355469 200.863281 541.355469 C 203.097656 542.472656 205.332031 542.472656 207.566406 543.589844 C 209.800781 544.707031 210.917969 544.707031 213.152344 545.824219 C 214.269531 545.824219 215.386719 546.941406 215.386719 546.941406 C 216.503906 546.941406 217.621094 548.058594 218.738281 548.058594 C 219.855469 548.058594 220.972656 549.175781 222.089844 549.175781 C 223.203125 549.175781 223.203125 549.175781 224.320312 550.292969 C 226.554688 550.292969 228.789062 551.414062 231.023438 551.414062 C 232.140625 551.414062 233.257812 551.414062 235.492188 552.53125 C 236.609375 552.53125 237.726562 552.53125 237.726562 552.53125 C 238.84375 552.53125 239.960938 552.53125 241.078125 552.53125 C 241.078125 552.53125 242.195312 552.53125 242.195312 552.53125 C 243.3125 552.53125 243.3125 552.53125 244.429688 552.53125 C 245.546875 552.53125 245.546875 552.53125 246.660156 552.53125 C 247.777344 552.53125 250.011719 552.53125 251.128906 552.53125 C 252.246094 552.53125 252.246094 552.53125 253.363281 552.53125 C 254.480469 552.53125 255.597656 552.53125 256.714844 552.53125 C 261.183594 552.53125 265.652344 552.53125 270.117188 551.414062 C 274.585938 551.414062 277.9375 550.292969 282.40625 550.292969 C 291.34375 549.175781 299.160156 548.058594 308.097656 546.941406 C 314.800781 545.824219 321.5 544.707031 329.320312 543.589844 C 332.671875 543.589844 336.023438 542.472656 339.375 542.472656 C 341.605469 542.472656 342.722656 542.472656 344.957031 542.472656 C 347.191406 542.472656 348.308594 542.472656 350.542969 542.472656 C 352.777344 542.472656 353.894531 542.472656 356.128906 542.472656 C 358.363281 542.472656 359.480469 542.472656 361.714844 542.472656 C 362.832031 542.472656 363.945312 542.472656 363.945312 542.472656 C 365.0625 542.472656 366.179688 542.472656 367.296875 542.472656 C 368.414062 542.472656 368.414062 542.472656 369.53125 542.472656 C 370.648438 542.472656 371.765625 542.472656 372.882812 542.472656 C 375.117188 542.472656 376.234375 542.472656 378.46875 543.589844 C 378.46875 543.589844 378.46875 543.589844 379.585938 543.589844 C 380.703125 543.589844 380.703125 543.589844 381.820312 543.589844 C 382.9375 543.589844 384.054688 543.589844 384.054688 543.589844 C 385.171875 543.589844 387.402344 544.707031 388.519531 544.707031 C 389.636719 544.707031 390.753906 545.824219 391.871094 545.824219 C 392.988281 545.824219 394.105469 546.941406 395.222656 546.941406 C 396.339844 546.941406 398.574219 548.058594 399.691406 548.058594 C 401.925781 549.175781 403.042969 549.175781 405.277344 550.292969 C 406.394531 550.292969 407.511719 551.410156 407.511719 551.410156 C 408.628906 551.410156 409.742188 552.53125 409.742188 552.53125 C 410.859375 553.648438 413.09375 553.648438 414.210938 554.765625 C 415.328125 554.765625 415.328125 555.882812 416.445312 555.882812 C 417.5625 555.882812 417.5625 557 418.679688 557 C 419.796875 558.117188 422.03125 559.234375 423.148438 560.351562 C 424.265625 560.351562 424.265625 561.46875 425.382812 561.46875 C 426.5 562.585938 426.5 562.585938 427.617188 563.703125 C 428.734375 563.703125 428.734375 564.820312 429.851562 564.820312 C 430.96875 565.9375 430.96875 565.9375 432.085938 567.054688 C 433.203125 568.175781 434.316406 569.292969 435.433594 570.410156 C 435.433594 570.410156 436.550781 571.527344 436.550781 571.527344 C 436.550781 572.644531 437.667969 572.644531 437.667969 573.761719 C 437.667969 573.761719 437.667969 573.761719 437.667969 574.878906 C 439.902344 570.410156 441.019531 568.175781 441.019531 567.054688 Z M 441.019531 567.054688 " fill-opacity="1" fill-rule="nonzero"/><path fill="#d33c57" d="M 38.898438 808.429688 C 38.898438 806.195312 38.898438 803.960938 37.78125 801.722656 C 37.78125 797.253906 37.78125 793.902344 37.78125 789.433594 C 37.78125 784.960938 37.78125 780.492188 37.78125 777.140625 C 37.78125 769.316406 38.898438 760.378906 38.898438 752.554688 C 38.898438 751.4375 38.898438 751.4375 38.898438 750.320312 C 40.015625 742.5 40.015625 734.675781 41.132812 725.738281 C 41.132812 721.265625 42.25 717.914062 43.367188 713.445312 C 44.484375 708.976562 44.484375 705.621094 45.601562 701.152344 C 45.601562 697.800781 46.71875 693.328125 46.71875 688.859375 C 46.71875 684.390625 47.835938 679.921875 47.835938 675.449219 C 47.835938 672.097656 47.835938 667.628906 47.835938 664.277344 C 47.835938 663.160156 47.835938 662.042969 47.835938 660.921875 C 47.835938 659.804688 47.835938 658.6875 47.835938 657.570312 C 47.835938 655.335938 47.835938 654.21875 47.835938 651.984375 C 47.835938 649.75 47.835938 647.515625 47.835938 646.394531 C 47.835938 644.160156 47.835938 641.925781 46.71875 639.691406 C 46.71875 637.457031 45.601562 635.222656 45.601562 632.988281 C 45.601562 630.753906 44.484375 629.632812 44.484375 627.398438 C 44.484375 626.28125 44.484375 625.164062 43.367188 624.046875 C 43.367188 622.929688 43.367188 621.8125 43.367188 621.8125 C 43.367188 619.578125 42.25 617.34375 42.25 615.109375 C 41.132812 610.636719 40.015625 606.167969 38.898438 602.816406 C 37.78125 598.34375 36.664062 594.992188 35.550781 590.523438 C 34.433594 587.171875 33.316406 582.699219 32.199219 579.347656 C 31.082031 574.878906 29.964844 571.527344 28.847656 567.054688 C 27.730469 562.585938 26.613281 559.234375 24.378906 554.765625 C 23.261719 552.53125 23.261719 550.292969 22.144531 548.058594 C 22.144531 546.941406 21.027344 545.824219 21.027344 544.707031 C 21.027344 543.589844 19.910156 541.355469 19.910156 540.238281 C 19.910156 538.003906 18.792969 536.886719 18.792969 534.648438 C 18.792969 532.414062 17.675781 530.179688 17.675781 527.945312 C 17.675781 525.710938 16.558594 523.476562 16.558594 521.242188 C 16.558594 519.003906 16.558594 517.886719 16.558594 515.652344 C 16.558594 514.535156 16.558594 512.300781 16.558594 511.183594 C 16.558594 510.066406 16.558594 510.066406 16.558594 508.949219 C 16.558594 507.832031 16.558594 506.714844 16.558594 505.597656 C 16.558594 504.476562 16.558594 504.476562 16.558594 503.359375 C 16.558594 502.242188 16.558594 501.125 16.558594 500.007812 C 16.558594 498.890625 16.558594 498.890625 16.558594 497.773438 C 16.558594 496.65625 16.558594 496.65625 16.558594 495.539062 C 16.558594 493.304688 16.558594 491.070312 17.675781 488.835938 C 17.675781 487.714844 17.675781 486.597656 17.675781 485.480469 C 17.675781 484.363281 17.675781 483.246094 18.792969 482.128906 C 18.792969 481.011719 18.792969 481.011719 18.792969 479.894531 C 18.792969 479.894531 18.792969 478.777344 18.792969 478.777344 C 18.792969 478.777344 18.792969 478.777344 18.792969 477.660156 C 18.792969 477.660156 18.792969 476.542969 18.792969 476.542969 C 17.675781 476.542969 16.558594 476.542969 15.441406 476.542969 C 14.324219 476.542969 13.210938 477.660156 13.210938 477.660156 C 13.210938 478.777344 13.210938 478.777344 13.210938 479.894531 C 13.210938 481.011719 13.210938 482.128906 12.09375 483.246094 C 12.09375 484.363281 12.09375 484.363281 12.09375 485.480469 C 12.09375 486.597656 12.09375 487.714844 12.09375 488.835938 C 12.09375 489.953125 12.09375 491.070312 12.09375 492.1875 C 12.09375 493.304688 12.09375 494.421875 12.09375 494.421875 C 12.09375 495.539062 12.09375 496.65625 12.09375 497.773438 C 12.09375 498.890625 12.09375 500.007812 12.09375 501.125 C 12.09375 503.359375 12.09375 505.597656 12.09375 506.714844 C 12.09375 507.832031 12.09375 508.949219 12.09375 510.066406 C 12.09375 511.183594 12.09375 512.300781 12.09375 512.300781 C 12.09375 514.535156 12.09375 516.769531 13.210938 519.003906 C 13.210938 520.121094 13.210938 521.242188 13.210938 522.359375 C 13.210938 523.476562 13.210938 524.59375 13.210938 525.710938 C 13.210938 527.945312 14.324219 530.179688 14.324219 532.414062 C 14.324219 533.53125 14.324219 534.648438 14.324219 534.648438 C 14.324219 535.765625 14.324219 536.886719 15.441406 538.003906 C 15.441406 540.238281 16.558594 542.472656 16.558594 543.589844 C 16.558594 544.707031 17.675781 545.824219 17.675781 546.941406 C 17.675781 548.058594 18.792969 549.175781 18.792969 550.292969 C 19.910156 554.765625 21.027344 558.117188 22.144531 562.585938 C 23.261719 565.9375 24.378906 570.410156 25.496094 573.761719 C 26.613281 578.230469 27.730469 582.699219 28.847656 586.054688 C 29.964844 590.523438 31.082031 594.992188 32.199219 598.34375 C 33.316406 601.699219 34.433594 606.167969 34.433594 609.519531 C 34.433594 611.753906 35.550781 612.871094 35.550781 615.109375 C 36.664062 620.695312 37.78125 626.28125 38.898438 631.871094 C 38.898438 635.222656 40.015625 637.457031 40.015625 640.808594 C 40.015625 641.925781 40.015625 644.160156 40.015625 645.277344 C 40.015625 646.394531 40.015625 648.632812 40.015625 649.75 C 40.015625 651.984375 40.015625 654.21875 40.015625 656.453125 C 40.015625 658.6875 40.015625 660.921875 40.015625 664.277344 C 40.015625 666.511719 40.015625 668.746094 40.015625 670.980469 C 40.015625 673.214844 40.015625 675.449219 40.015625 677.683594 C 40.015625 679.921875 40.015625 682.15625 40.015625 683.273438 C 40.015625 685.507812 40.015625 687.742188 38.898438 689.976562 C 38.898438 694.449219 37.78125 697.800781 37.78125 702.269531 C 36.664062 710.09375 35.550781 719.03125 34.433594 726.855469 C 33.316406 734.675781 33.316406 743.617188 32.199219 751.4375 C 32.199219 759.261719 31.082031 768.199219 31.082031 776.023438 C 31.082031 780.492188 31.082031 783.84375 31.082031 788.3125 C 31.082031 792.785156 31.082031 796.136719 31.082031 800.605469 C 31.082031 803.957031 31.082031 807.3125 32.199219 809.546875 C 34.433594 810.664062 35.550781 810.664062 37.78125 810.664062 C 40.015625 811.78125 38.898438 810.664062 38.898438 808.429688 Z M 38.898438 808.429688 " fill-opacity="1" fill-rule="nonzero"/><path fill="#d33c57" d="M 112.621094 779.375 C 112.621094 779.375 112.621094 778.257812 112.621094 778.257812 C 112.621094 774.90625 111.503906 770.433594 111.503906 767.082031 C 110.386719 752.554688 110.386719 736.910156 107.035156 722.382812 C 107.035156 721.265625 107.035156 720.148438 105.921875 719.03125 C 105.921875 717.914062 105.921875 716.796875 104.804688 716.796875 C 104.804688 714.5625 103.6875 713.445312 103.6875 711.210938 C 102.570312 707.855469 101.453125 704.503906 100.335938 700.035156 C 98.101562 693.328125 95.867188 685.507812 92.515625 678.804688 C 90.28125 672.097656 88.046875 665.394531 85.8125 658.6875 C 84.695312 656.453125 84.695312 655.335938 83.578125 653.101562 C 81.347656 646.394531 79.113281 639.691406 75.761719 632.988281 C 73.527344 626.28125 70.175781 619.578125 67.941406 612.871094 C 64.589844 606.167969 61.238281 598.34375 59.007812 591.640625 C 57.890625 588.289062 55.65625 584.9375 54.539062 581.582031 C 53.421875 578.230469 52.304688 574.878906 51.1875 571.527344 C 51.1875 570.410156 50.070312 568.175781 50.070312 567.054688 C 50.070312 565.9375 50.070312 565.9375 48.953125 564.820312 C 48.953125 563.703125 48.953125 562.585938 47.835938 562.585938 C 47.835938 561.46875 47.835938 561.46875 46.71875 560.351562 C 46.71875 559.234375 46.71875 558.117188 45.601562 558.117188 C 45.601562 557 45.601562 555.882812 44.484375 555.882812 C 44.484375 554.765625 44.484375 554.765625 44.484375 553.648438 C 44.484375 551.410156 43.367188 550.292969 43.367188 548.058594 C 43.367188 545.824219 42.25 544.707031 42.25 542.472656 C 41.132812 539.121094 41.132812 534.648438 40.015625 531.296875 C 38.898438 523.476562 37.78125 515.652344 36.667969 508.949219 C 36.667969 505.597656 35.550781 503.359375 35.550781 500.007812 C 35.550781 498.890625 35.550781 496.65625 35.550781 495.539062 C 35.550781 493.304688 35.550781 492.1875 35.550781 489.953125 C 35.550781 486.597656 35.550781 483.246094 35.550781 479.894531 C 35.550781 479.894531 35.550781 478.777344 35.550781 478.777344 C 33.316406 478.777344 32.199219 479.894531 29.964844 479.894531 C 29.964844 481.011719 29.964844 482.128906 29.964844 482.128906 C 29.964844 485.480469 29.964844 489.953125 31.082031 493.304688 C 32.199219 500.007812 33.316406 507.832031 33.316406 514.535156 C 34.433594 522.359375 35.550781 529.0625 36.667969 536.882812 C 36.667969 539.121094 37.78125 540.238281 37.78125 542.472656 C 37.78125 544.707031 38.898438 545.824219 38.898438 548.058594 C 38.898438 550.292969 40.015625 551.410156 40.015625 553.648438 C 40.015625 554.765625 40.015625 555.882812 41.132812 557 C 41.132812 558.117188 41.132812 558.117188 41.132812 559.234375 C 42.25 562.585938 43.367188 565.9375 44.484375 570.410156 C 45.601562 572.644531 45.601562 573.761719 46.71875 575.996094 C 47.835938 578.230469 47.835938 579.347656 48.953125 581.582031 C 50.070312 584.9375 52.304688 588.289062 53.421875 591.640625 C 54.539062 594.992188 56.773438 598.34375 57.890625 601.699219 C 59.007812 605.050781 61.238281 608.402344 62.355469 611.753906 C 63.472656 615.105469 65.707031 618.460938 66.824219 621.8125 C 67.941406 624.046875 67.941406 625.164062 69.058594 627.398438 C 70.175781 629.632812 70.175781 630.75 71.292969 632.988281 C 72.410156 635.222656 72.410156 636.339844 73.527344 638.574219 C 74.644531 640.808594 74.644531 641.925781 75.761719 644.160156 C 76.878906 646.394531 76.878906 648.632812 77.996094 650.867188 C 79.113281 653.101562 79.113281 655.335938 80.230469 657.570312 C 81.347656 659.804688 81.347656 660.921875 82.464844 663.160156 C 86.929688 674.332031 90.28125 685.507812 94.75 696.683594 C 95.867188 698.917969 95.867188 701.152344 96.984375 703.386719 C 96.984375 704.503906 98.101562 705.621094 98.101562 706.738281 C 98.101562 707.855469 99.21875 710.09375 99.21875 711.210938 C 99.21875 712.328125 100.335938 713.445312 100.335938 714.5625 C 100.335938 715.679688 101.453125 716.796875 101.453125 717.914062 C 101.453125 719.03125 102.570312 720.148438 102.570312 721.265625 C 102.570312 722.382812 102.570312 723.5 103.6875 725.738281 C 103.6875 727.972656 104.804688 730.207031 104.804688 732.441406 C 104.804688 733.558594 104.804688 734.675781 104.804688 735.792969 C 104.804688 736.910156 104.804688 739.144531 104.804688 740.261719 C 104.804688 742.5 104.804688 744.734375 105.921875 746.96875 C 105.921875 749.203125 105.921875 752.554688 105.921875 754.789062 C 105.921875 758.144531 105.921875 762.613281 107.035156 765.964844 C 107.035156 769.316406 108.152344 773.789062 108.152344 777.140625 C 108.152344 778.257812 108.152344 780.492188 109.269531 781.609375 C 109.269531 781.609375 110.386719 780.492188 112.621094 779.375 Z M 112.621094 779.375 " fill-opacity="1" fill-rule="nonzero"/><path fill="#d33c57" d="M 197.515625 755.90625 C 197.515625 754.789062 197.515625 754.789062 197.515625 753.671875 C 197.515625 751.4375 196.398438 750.320312 196.398438 748.085938 C 196.398438 745.851562 195.28125 744.734375 195.28125 742.5 C 195.28125 741.382812 194.164062 739.144531 194.164062 738.027344 C 194.164062 736.910156 194.164062 735.792969 193.046875 735.792969 C 193.046875 734.675781 193.046875 734.675781 191.929688 733.558594 C 190.8125 732.441406 190.8125 730.207031 189.695312 729.089844 C 188.578125 726.855469 188.578125 725.738281 187.460938 723.5 C 187.460938 722.382812 186.34375 721.265625 186.34375 720.148438 C 186.34375 719.03125 185.226562 719.03125 185.226562 717.914062 C 185.226562 716.796875 184.109375 716.796875 184.109375 715.679688 C 184.109375 714.5625 182.992188 713.445312 182.992188 713.445312 C 182.992188 712.328125 181.875 712.328125 181.875 711.210938 C 181.875 710.09375 180.757812 708.976562 180.757812 707.855469 C 179.640625 706.738281 178.523438 704.503906 177.40625 703.386719 C 175.175781 700.035156 174.058594 697.800781 171.824219 694.449219 C 169.589844 692.210938 168.472656 688.859375 166.238281 686.625 C 164.003906 683.273438 161.769531 681.039062 159.535156 677.6875 C 155.066406 672.097656 150.601562 665.394531 146.132812 659.804688 C 141.664062 654.21875 137.195312 648.632812 132.726562 643.042969 C 123.792969 631.871094 114.855469 620.695312 104.804688 610.636719 C 101.453125 606.167969 96.984375 601.699219 93.632812 597.226562 C 92.515625 596.109375 92.515625 594.992188 91.398438 593.875 C 90.28125 592.757812 89.164062 591.640625 89.164062 590.523438 C 88.046875 589.40625 88.046875 589.40625 86.929688 588.289062 C 86.929688 588.289062 85.8125 587.171875 85.8125 587.171875 C 84.695312 586.054688 83.582031 584.9375 83.582031 583.820312 C 82.464844 582.699219 82.464844 581.582031 81.347656 580.464844 C 80.230469 578.230469 80.230469 577.113281 80.230469 577.113281 C 80.230469 575.996094 79.113281 575.996094 79.113281 574.878906 C 79.113281 573.761719 77.996094 572.644531 77.996094 571.527344 C 77.996094 570.410156 76.878906 569.292969 76.878906 569.292969 C 76.878906 568.175781 75.761719 567.054688 75.761719 567.054688 C 75.761719 565.9375 74.644531 564.820312 74.644531 563.703125 C 74.644531 562.585938 73.527344 560.351562 73.527344 559.234375 C 73.527344 557 72.410156 555.882812 72.410156 553.648438 C 71.292969 550.292969 70.175781 546.941406 70.175781 543.589844 C 69.058594 536.886719 66.824219 530.179688 65.707031 523.476562 C 62.355469 510.066406 59.007812 495.539062 55.65625 482.128906 C 53.421875 481.011719 51.1875 479.894531 48.953125 478.777344 C 50.070312 482.128906 51.1875 485.480469 51.1875 488.832031 C 53.421875 495.539062 54.539062 503.359375 56.773438 510.066406 C 59.007812 516.769531 60.121094 524.59375 61.238281 531.296875 C 62.355469 538.003906 64.589844 544.707031 65.707031 552.53125 C 66.824219 555.882812 66.824219 559.234375 67.941406 562.585938 C 67.941406 563.703125 67.941406 564.820312 69.058594 564.820312 C 69.058594 565.9375 69.058594 565.9375 70.175781 567.054688 C 71.292969 569.292969 71.292969 570.410156 72.410156 571.527344 C 72.410156 572.644531 73.527344 573.761719 73.527344 574.878906 C 73.527344 575.996094 74.644531 575.996094 74.644531 577.113281 C 74.644531 578.230469 75.761719 578.230469 75.761719 579.347656 C 75.761719 580.464844 76.878906 581.582031 76.878906 582.699219 C 77.996094 583.820312 79.113281 586.054688 80.230469 587.171875 C 80.230469 587.171875 81.347656 588.289062 81.347656 588.289062 C 82.464844 589.40625 82.464844 590.523438 83.578125 591.640625 C 83.578125 591.640625 84.695312 592.757812 84.695312 592.757812 C 85.8125 593.875 85.8125 594.992188 86.929688 594.992188 C 88.046875 596.109375 89.164062 598.34375 90.28125 599.464844 C 91.398438 600.582031 92.515625 602.816406 93.632812 603.933594 C 94.75 605.050781 95.867188 606.167969 96.984375 608.402344 C 101.453125 613.988281 105.921875 618.460938 110.386719 624.046875 C 114.855469 629.632812 120.441406 635.222656 124.910156 640.808594 C 129.378906 646.398438 133.84375 651.984375 138.3125 657.570312 C 140.546875 659.804688 142.78125 663.160156 145.015625 665.394531 C 147.25 667.628906 149.484375 670.980469 150.601562 673.214844 C 155.066406 678.804688 159.535156 684.390625 162.886719 691.09375 C 164.003906 693.328125 166.238281 695.566406 167.355469 696.683594 C 168.472656 698.917969 169.589844 700.035156 170.707031 702.269531 C 171.824219 703.386719 172.941406 704.503906 172.941406 706.738281 C 172.941406 707.855469 174.058594 707.855469 174.058594 708.972656 C 174.058594 710.09375 175.175781 710.09375 175.175781 711.210938 C 175.175781 712.328125 176.289062 712.328125 176.289062 713.445312 C 176.289062 714.5625 177.40625 714.5625 177.40625 715.679688 C 177.40625 716.796875 178.523438 716.796875 178.523438 717.914062 C 178.523438 719.03125 179.640625 719.03125 179.640625 720.148438 C 180.757812 721.265625 180.757812 723.5 181.875 724.617188 C 181.875 725.738281 181.875 725.738281 182.992188 726.855469 C 182.992188 727.972656 184.109375 729.089844 184.109375 729.089844 C 184.109375 730.207031 184.109375 730.207031 185.226562 731.324219 C 185.226562 732.441406 186.34375 732.441406 186.34375 733.558594 C 186.34375 734.675781 187.460938 736.910156 187.460938 738.027344 C 187.460938 739.144531 188.578125 741.378906 188.578125 742.5 C 188.578125 744.734375 189.695312 745.851562 189.695312 748.085938 C 190.8125 751.4375 190.8125 754.789062 191.929688 758.144531 C 191.929688 760.378906 193.046875 762.613281 193.046875 764.847656 C 194.164062 760.378906 196.398438 758.144531 197.515625 755.90625 Z M 197.515625 755.90625 " fill-opacity="1" fill-rule="nonzero"/></g></g></g></g></g></g></svg>