<svg xmlns="http://www.w3.org/2000/svg" xmlns:xlink="http://www.w3.org/1999/xlink" width="794" zoomAndPan="magnify" viewBox="0 0 595.5 842.249979" height="1123" preserveAspectRatio="xMidYMid meet" version="1.0"><defs><clipPath id="e717e3e372"><path d="M 1 1 L 542.976562 1 L 542.976562 568 L 1 568 Z M 1 1 " clip-rule="nonzero"/></clipPath><clipPath id="9e354d4943"><rect x="0" width="543" y="0" height="569"/></clipPath></defs><g transform="matrix(1, 0, 0, 1, 39, 26)"><g clip-path="url(#9e354d4943)"><g clip-path="url(#e717e3e372)"><path fill="#fec010" d="M 529.363281 221.171875 C 547.304688 200.792969 545.769531 193.957031 532.835938 179.554688 C 512.660156 157.089844 442.648438 137.046875 383.398438 160.015625 C 355.816406 170.710938 330.519531 192.882812 314.777344 212.175781 C 324.425781 190.625 332.136719 162.960938 331.273438 137.117188 C 329.097656 72.308594 282.246094 14.621094 253.082031 4.683594 C 234.386719 -1.6875 227.351562 -0.390625 215.410156 24.605469 C 208.726562 38.601562 196.484375 59.433594 189.542969 91.949219 C 180.234375 135.523438 189.660156 179.261719 199.949219 209.675781 C 173.824219 176.292969 132.269531 136.207031 83.34375 136.445312 C -0.394531 136.859375 -0.339844 149.828125 5.464844 162.195312 C 11.273438 174.5625 3.34375 238.273438 49.789062 268.753906 C 72.042969 283.359375 105.003906 293.277344 135.960938 296.960938 C 103.898438 298.875 68.546875 305.625 37.933594 328.359375 C -13.808594 366.773438 5.722656 415.332031 1.597656 429.632812 C -2.523438 443.933594 33.214844 434.246094 58.710938 444.960938 C 83.261719 455.277344 144.964844 453.769531 189.816406 414.796875 C 187.039062 421.898438 185.265625 428.753906 185.089844 434.949219 C 184.058594 471.273438 189.179688 514.660156 213.089844 542.449219 C 237 570.238281 236.597656 571.203125 249.410156 564.203125 C 262.222656 557.203125 347.894531 521.429688 329.527344 443.976562 C 324.59375 423.160156 320.4375 406.585938 316.835938 393.304688 C 327.960938 413.382812 343.761719 433.949219 365.65625 447.015625 C 420.988281 480.046875 466.976562 467.964844 486.378906 466.375 C 505.777344 464.785156 511.898438 451.230469 508.660156 437.238281 C 505.425781 423.242188 516.765625 374.675781 456.570312 337.351562 C 428.691406 320.066406 401.242188 310.097656 378.050781 305.394531 C 408.242188 302.066406 446.425781 293.0625 478.613281 270.386719 C 505.25 251.621094 519.320312 232.578125 529.363281 221.171875 Z M 529.363281 221.171875 " fill-opacity="1" fill-rule="nonzero"/></g><path fill="#e73537" d="M 246.328125 220.792969 C 199.410156 225.375 137.402344 329.734375 247.828125 364.613281 C 358.253906 399.488281 359.257812 209.757812 246.328125 220.792969 Z M 246.328125 220.792969 " fill-opacity="1" fill-rule="nonzero"/></g></g></svg>