<svg xmlns="http://www.w3.org/2000/svg" xmlns:xlink="http://www.w3.org/1999/xlink" width="794" zoomAndPan="magnify" viewBox="0 0 595.5 842.249979" height="1123" preserveAspectRatio="xMidYMid meet" version="1.0"><defs><clipPath id="f9ced1ddb7"><path d="M 3 2 L 541 2 L 541 697.332031 L 3 697.332031 Z M 3 2 " clip-rule="nonzero"/></clipPath><clipPath id="bd7ed8b477"><rect x="0" width="545" y="0" height="698"/></clipPath></defs><g transform="matrix(1, 0, 0, 1, 23, 12)"><g clip-path="url(#bd7ed8b477)"><g clip-path="url(#f9ced1ddb7)"><path fill="#000000" d="M 274.058594 697.539062 C 240.273438 696.640625 206.976562 694.457031 174.582031 685.574219 C 145.394531 677.664062 122.074219 661.625 107.988281 633.976562 C 99.738281 617.859375 96.578125 600.402344 94.839844 582.542969 C 92.28125 556.035156 89.945312 529.488281 88.253906 502.941406 C 88.179688 501.886719 87.875 500.90625 87.914062 499.851562 C 87.949219 496.390625 86.445312 495.109375 82.90625 494.503906 C 69.121094 492.136719 56.875 486.226562 46.484375 476.738281 C 29.457031 461.257812 21.507812 441.71875 20.34375 419.050781 C 19.515625 402.863281 22.75 387.101562 25.769531 371.414062 C 29.199219 353.660156 28.289062 336.507812 22.375 319.453125 C 15.9375 300.941406 9.945312 282.191406 7.085938 262.664062 C 0.570312 218.082031 3.734375 174.441406 20.871094 132.417969 C 39.027344 88.035156 71.042969 56.5625 113.53125 35.285156 C 143.132812 20.378906 174.847656 12.242188 207.46875 7.347656 C 238.542969 2.714844 269.730469 1.023438 301.109375 2.714844 C 344.460938 5.046875 386.835938 12.347656 426.609375 30.882812 C 464.996094 48.710938 495.882812 74.824219 515.949219 112.613281 C 528.839844 136.898438 535.917969 162.9375 539.046875 190.105469 C 543.9375 232.464844 539.152344 273.660156 524.464844 313.6875 C 517.722656 332.042969 515.164062 350.707031 519.007812 370.054688 C 520.402344 376.867188 521.609375 383.785156 522.734375 390.652344 C 525.371094 406.320312 526.429688 421.984375 522.132812 437.535156 C 513.773438 467.808594 494.667969 487.273438 463.785156 494.355469 C 459.6875 495.296875 458.480469 496.726562 458.175781 500.761719 C 455.804688 529.371094 453.285156 557.953125 450.53125 586.539062 C 449.25 599.941406 446.421875 613.050781 441.417969 625.628906 C 430.109375 653.796875 409.925781 672.46875 381.5625 682.554688 C 361.9375 689.53125 341.492188 692.382812 320.914062 694.800781 C 305.214844 696.644531 289.429688 696.941406 274.058594 697.539062 Z M 274.058594 697.539062 " fill-opacity="1" fill-rule="nonzero"/></g><path fill="#ffffff" d="M 373.761719 493.789062 C 363.175781 488.101562 359 489.226562 353.613281 498.34375 C 352.21875 500.757812 350.9375 503.167969 349.28125 506.179688 C 347.0625 501.890625 345.960938 497.972656 343.554688 494.695312 C 336.777344 485.316406 326.726562 485.246094 319.71875 494.472656 C 316.890625 498.210938 316.140625 502.988281 313.121094 506.828125 C 310.976562 502.453125 309.242188 498.128906 306.269531 494.507812 C 298.433594 484.988281 287.585938 485.101562 280.011719 494.8125 C 276.96875 498.726562 275.347656 503.394531 272.824219 507.914062 C 270.679688 503.769531 268.984375 499.707031 266.609375 496.167969 C 258.734375 484.570312 246.722656 484.527344 238.734375 496.015625 C 236.402344 499.328125 234.707031 503.089844 232.40625 507.269531 C 230.75 503.625 229.503906 500.375 227.847656 497.320312 C 224.835938 491.871094 220.582031 487.617188 213.992188 487.617188 C 207.285156 487.652344 203.25 492.054688 200.429688 497.707031 C 199.113281 500.375 197.980469 503.207031 196.695312 506.109375 C 186.378906 488.222656 183.890625 486.90625 173.007812 493.53125 C 170.863281 492.621094 171.5 490.550781 171.046875 488.902344 C 170.40625 486.636719 169.992188 484.34375 169.164062 482.195312 C 165.210938 471.847656 157.601562 467.625 146.558594 469.28125 C 131.726562 471.578125 117.03125 474.667969 102.003906 475.085938 C 92.847656 475.296875 83.925781 474.320312 75.484375 470.453125 C 54.726562 460.917969 44.375 444.058594 42.109375 421.839844 C 40.683594 407.789062 42.902344 393.898438 45.953125 380.324219 C 51.453125 355.828125 49.757812 332.3125 41.019531 308.761719 C 28.320312 274.605469 23.769531 239.148438 26.628906 202.8125 C 29.566406 166.324219 39.703125 132.261719 62.453125 102.800781 C 78.875 81.527344 99.816406 65.84375 123.769531 53.90625 C 152.773438 39.542969 183.773438 31.863281 215.710938 27.585938 C 236.765625 24.796875 257.902344 22.917969 279.144531 23.21875 C 320.425781 23.839844 361.140625 28.410156 400.199219 42.964844 C 425.171875 52.214844 448.074219 64.957031 467.476562 83.503906 C 494.667969 109.542969 509.359375 142.074219 515.570312 178.660156 C 522.84375 221.53125 519.71875 263.644531 505.183594 304.75 C 503.707031 308.871094 502.550781 313.125 501.113281 317.269531 C 495.011719 335.058594 494.332031 353.097656 497.722656 371.527344 C 500.511719 386.511719 503.75 401.46875 503.410156 416.867188 C 503.265625 422.886719 502.585938 428.6875 500.855469 434.414062 C 493.167969 460.175781 472.195312 475.507812 445.257812 475.15625 C 432.523438 474.933594 420.023438 472.667969 407.519531 470.742188 C 404.199219 470.261719 400.882812 469.582031 397.566406 469.089844 C 388.265625 467.703125 381.554688 471.242188 377.265625 479.675781 C 375.160156 483.8125 374.328125 488.40625 373.761719 493.789062 Z M 373.761719 493.789062 " fill-opacity="1" fill-rule="nonzero"/><path fill="#ffffff" d="M 314.214844 583.679688 C 318.539062 592.414062 321.976562 601.484375 332.972656 601.753906 C 344.34375 601.941406 347.511719 592.601562 351.582031 584.015625 C 353.347656 586.238281 354.777344 588.199219 356.441406 590.003906 C 363.21875 597.3125 371.800781 596.707031 377.34375 588.429688 C 381.902344 581.648438 383.410156 573.738281 385.136719 565.90625 C 386.152344 561.460938 384.878906 555.4375 388.160156 552.722656 C 391.011719 550.390625 396.554688 551.292969 400.851562 550.617188 C 410.492188 549.03125 418.707031 545.15625 422.542969 535.328125 C 425.972656 526.554688 421.414062 516.574219 412.824219 513.902344 C 404.054688 511.148438 395.308594 517.855469 396.214844 526.671875 C 396.519531 529.339844 397.5 531.714844 399.648438 533.375 C 401.417969 534.726562 403.339844 535.183594 405.339844 533.601562 C 406.957031 532.25 407.335938 530.660156 406.425781 528.777344 C 406.085938 528.101562 405.519531 527.5 405.300781 526.738281 C 404.390625 523.617188 406.015625 521.730469 409.253906 522.335938 C 412.867188 522.976562 414.410156 525.460938 414.789062 528.925781 C 415.351562 533.445312 412.871094 537.507812 407.898438 539.917969 C 401.949219 542.855469 395.613281 543.308594 388.535156 542.710938 C 390.304688 529.300781 391.996094 516.351562 393.734375 503.355469 C 393.773438 503.09375 393.847656 502.867188 393.882812 502.640625 C 395.082031 498.761719 393.011719 493.148438 396.707031 491.191406 C 399.53125 489.691406 404.160156 491.496094 407.96875 491.949219 C 416.183594 492.96875 424.355469 494.019531 432.601562 495.03125 C 435.207031 495.375 437.539062 495.449219 437.125 499.480469 C 433.882812 532.167969 432.382812 565 427.144531 597.453125 C 424.171875 615.988281 417.128906 632.628906 403.078125 645.769531 C 392.339844 655.714844 379.648438 661.730469 365.710938 665.386719 C 333.691406 673.824219 301.035156 676.613281 268.113281 676.15625 C 237.527344 675.667969 207.203125 672.699219 177.636719 664.449219 C 143.324219 654.878906 123.96875 632.179688 118.203125 597.382812 C 115 578.253906 114.132812 558.898438 112.210938 539.621094 C 110.929688 527.007812 109.878906 514.390625 108.894531 501.734375 C 108.40625 495.574219 108.597656 495.636719 114.847656 494.886719 C 125.398438 493.609375 135.867188 492.253906 146.378906 490.773438 C 148.636719 490.4375 150.40625 490.21875 150.816406 493.261719 C 152.890625 509.425781 155.566406 525.457031 156.882812 541.652344 C 156.882812 541.875 156.585938 542.101562 156.050781 542.742188 C 150.78125 543.152344 145.171875 542.929688 139.78125 540.972656 C 136.011719 539.621094 133.003906 537.28125 131.453125 533.367188 C 130.023438 529.636719 131.003906 525.460938 133.714844 523.503906 C 135.558594 522.222656 137.703125 521.960938 139.558594 523.09375 C 141.660156 524.371094 140.605469 526.25 139.738281 527.800781 C 138.949219 529.230469 138.273438 530.507812 139.101562 532.160156 C 140.640625 535.101562 144.222656 535.28125 146.894531 532.46875 C 151.535156 527.535156 149.796875 518.613281 143.394531 515.21875 C 138.460938 512.511719 133.410156 512.585938 128.742188 515.890625 C 123.46875 519.699219 121.28125 525.078125 122.226562 531.488281 C 123.316406 538.941406 127.796875 544.0625 134.390625 547.453125 C 140.304688 550.464844 146.789062 551.363281 153.1875 551.628906 C 157.636719 551.78125 158.613281 553.625 159.097656 557.46875 C 160.007812 564.394531 161.136719 571.292969 163.28125 577.949219 C 164.605469 582.203125 166.183594 586.269531 168.933594 589.742188 C 174.207031 596.328125 181.738281 596.933594 187.804688 591.136719 C 189.953125 589.101562 191.722656 586.546875 193.714844 584.203125 C 203.964844 608.984375 221.324219 606.875 231.800781 584.242188 C 233.457031 587.105469 234.808594 589.621094 236.394531 592.039062 C 245.128906 605.371094 258.949219 605.398438 267.699219 592.039062 C 269.460938 589.28125 270.9375 586.316406 272.628906 583.308594 C 284.609375 608.234375 302.011719 607.960938 314.214844 583.679688 Z M 314.214844 583.679688 " fill-opacity="1" fill-rule="nonzero"/><path fill="#ffffff" d="M 293.273438 541.125 C 289.921875 541.125 286.566406 541.054688 283.210938 541.125 C 280.429688 541.230469 279.628906 539.839844 279.859375 537.359375 C 280.839844 527.347656 281.628906 517.324219 285.816406 507.992188 C 286.640625 506.109375 287.582031 504.195312 288.863281 502.644531 C 292.0625 498.648438 295.082031 498.765625 298.28125 502.945312 C 300.5 505.8125 301.859375 509.160156 302.984375 512.585938 C 305.667969 520.421875 306.945312 528.554688 307.621094 536.804688 C 307.886719 540.140625 306.753906 541.496094 303.324219 541.234375 C 299.976562 541.015625 296.621094 541.199219 293.269531 541.199219 L 293.269531 541.125 Z M 293.273438 541.125 " fill-opacity="1" fill-rule="nonzero"/><path fill="#ffffff" d="M 238.316406 541.125 C 238.65625 531.785156 239.746094 523.3125 242.308594 515.148438 C 243.328125 511.980469 244.527344 508.78125 246 505.808594 C 247.355469 503.019531 249.015625 499.851562 252.589844 499.929688 C 256.09375 500.003906 257.828125 503.019531 259.144531 505.882812 C 263.929688 516.121094 265.546875 527.042969 265.847656 538.269531 C 265.847656 540.828125 264.382812 541.199219 262.347656 541.128906 C 254.625 541.085938 246.90625 541.125 238.316406 541.125 Z M 238.316406 541.125 " fill-opacity="1" fill-rule="nonzero"/><path fill="#ffffff" d="M 293.835938 551.066406 C 295.339844 551.066406 296.921875 550.988281 298.472656 551.066406 C 308.265625 551.445312 308.488281 548.546875 307.320312 561.347656 C 306.714844 568.050781 305.320312 574.644531 302.53125 580.8125 C 301.480469 583.144531 300.046875 585.402344 298.390625 587.296875 C 295.222656 590.828125 291.679688 590.683594 288.445312 587.136719 C 286.253906 584.804688 284.980469 581.984375 283.921875 579.074219 C 281.214844 571.476562 280.082031 563.570312 279.589844 555.546875 C 279.367188 552.421875 280.085938 550.652344 283.738281 550.957031 C 287.089844 551.21875 290.441406 550.992188 293.835938 550.992188 C 293.835938 551.066406 293.835938 551.066406 293.835938 551.066406 Z M 293.835938 551.066406 " fill-opacity="1" fill-rule="nonzero"/><path fill="#ffffff" d="M 252.21875 550.953125 C 255.53125 550.953125 258.917969 551.0625 262.230469 550.917969 C 264.832031 550.839844 266 551.898438 265.847656 554.566406 C 265.363281 564.390625 264.117188 574.03125 259.710938 582.917969 C 258.808594 584.726562 257.566406 586.464844 256.097656 587.898438 C 253.195312 590.679688 250.257812 590.492188 247.320312 587.589844 C 245.625 585.96875 244.570312 583.9375 243.589844 581.867188 C 239.785156 573.507812 238.691406 564.578125 237.90625 555.585938 C 237.636719 552.34375 238.769531 550.84375 242.195312 550.988281 C 245.507812 551.21875 248.863281 551.070312 252.21875 551.070312 C 252.21875 551.066406 252.21875 550.988281 252.21875 550.953125 Z M 252.21875 550.953125 " fill-opacity="1" fill-rule="nonzero"/><path fill="#ffffff" d="M 213.71875 551.515625 C 225.777344 551.292969 224.421875 549.445312 223.777344 561.90625 C 223.4375 568.640625 222.117188 575.238281 219.785156 581.5625 C 218.992188 583.75 218.046875 585.890625 216.425781 587.660156 C 213.570312 590.75 210.632812 590.683594 208.074219 587.214844 C 205.8125 584.347656 204.832031 580.738281 204.042969 577.273438 C 202.464844 570.1875 202.121094 562.957031 202.121094 555.691406 C 202.164062 552.800781 202.945312 551.363281 206 551.480469 C 208.558594 551.597656 211.15625 551.515625 213.71875 551.515625 Z M 213.71875 551.515625 " fill-opacity="1" fill-rule="nonzero"/><path fill="#ffffff" d="M 331.957031 541.496094 C 321.332031 541.421875 321.332031 541.421875 321.742188 530.730469 C 321.96875 524.023438 322.949219 517.398438 324.683594 510.886719 C 325.46875 507.914062 326.527344 504.980469 328.339844 502.449219 C 330.636719 499.210938 332.816406 499.171875 334.855469 502.449219 C 336.054688 504.371094 336.8125 506.632812 337.5625 508.8125 C 340.765625 518.152344 341.671875 527.871094 342.871094 537.582031 C 343.292969 540.824219 341.746094 541.648438 338.914062 541.542969 C 336.589844 541.429688 334.257812 541.496094 331.957031 541.496094 Z M 331.957031 541.496094 " fill-opacity="1" fill-rule="nonzero"/><path fill="#ffffff" d="M 203.023438 541.496094 C 203.097656 530.398438 204.832031 520.566406 207.542969 510.851562 C 208.179688 508.628906 209.054688 506.441406 210.035156 504.328125 C 210.898438 502.5625 211.730469 500.234375 214.09375 500.234375 C 216.355469 500.234375 217.640625 502.191406 218.621094 504.03125 C 221.746094 510.09375 223.25 516.65625 223.589844 523.308594 C 223.929688 529.105469 227.058594 536.304688 223.179688 540.367188 C 219.972656 543.746094 212.894531 541.082031 207.503906 541.492188 C 206.257812 541.546875 205.019531 541.496094 203.023438 541.496094 Z M 203.023438 541.496094 " fill-opacity="1" fill-rule="nonzero"/><path fill="#ffffff" d="M 332.902344 551.484375 C 345.289062 551.933594 343.375 549.566406 343.292969 562.589844 C 343.253906 569.328125 342.234375 576.03125 339.832031 582.320312 C 338.625 585.59375 337.417969 589.738281 332.941406 589.660156 C 328.910156 589.617188 327.664062 585.855469 326.421875 582.808594 C 322.804688 573.84375 321.832031 564.316406 321.558594 554.761719 C 321.488281 552.457031 322.351562 551.367188 324.691406 551.445312 C 327.246094 551.597656 329.847656 551.484375 332.902344 551.484375 Z M 332.902344 551.484375 " fill-opacity="1" fill-rule="nonzero"/><path fill="#ffffff" d="M 364.234375 502.832031 C 367.660156 506.175781 368.601562 509.113281 369.546875 511.980469 C 372.367188 520.335938 373.953125 528.925781 374.589844 537.734375 C 374.8125 541.195312 373.726562 542.472656 370.292969 542.210938 C 366.453125 541.917969 362.570312 541.871094 358.695312 541.871094 C 356.511719 541.800781 355.339844 541.195312 355.375 538.710938 C 355.757812 526.511719 357.980469 514.765625 364.234375 502.832031 Z M 364.234375 502.832031 " fill-opacity="1" fill-rule="nonzero"/><path fill="#ffffff" d="M 181.441406 503.625 C 187.015625 511.492188 188.480469 520.1875 189.539062 528.816406 C 190.96875 541.4375 190.816406 541.4375 178.242188 542.035156 C 170.402344 542.296875 170.328125 542.296875 171.160156 534.617188 C 172.023438 527.160156 173.269531 519.78125 175.941406 512.742188 C 177.070312 509.644531 178.050781 506.371094 181.441406 503.625 Z M 181.441406 503.625 " fill-opacity="1" fill-rule="nonzero"/><path fill="#ffffff" d="M 365.328125 582.773438 C 358.476562 574.5625 356.359375 564.621094 355.460938 554.304688 C 355.269531 552.199219 356.660156 551.746094 358.355469 551.746094 C 363.03125 551.78125 367.664062 551.816406 372.289062 551.902344 C 373.761719 551.902344 374.703125 552.53125 374.703125 554.160156 C 374.363281 564.019531 373.34375 573.664062 367.136719 581.910156 C 366.910156 582.246094 366.269531 582.320312 365.328125 582.773438 Z M 365.328125 582.773438 " fill-opacity="1" fill-rule="nonzero"/><path fill="#ffffff" d="M 180.949219 551.902344 C 191.082031 551.664062 191.082031 551.664062 188.863281 561.988281 C 187.429688 568.542969 185.503906 574.941406 181.554688 580.433594 C 180.121094 582.476562 178.308594 583.371094 176.808594 580.738281 C 172.171875 572.457031 170.738281 563.421875 170.738281 554.039062 C 170.738281 552.417969 171.835938 551.933594 173.265625 551.902344 C 175.828125 551.902344 178.390625 551.902344 180.949219 551.902344 Z M 180.949219 551.902344 " fill-opacity="1" fill-rule="nonzero"/><path fill="#ff842b" d="M 470.453125 299.019531 C 471.355469 300.714844 472.714844 300.964844 473.847656 301.472656 C 487.703125 307.535156 488.984375 328 476.628906 335.984375 C 473.054688 338.246094 472.714844 339.84375 474.332031 343.726562 C 479.382812 355.9375 472.148438 371.757812 459.078125 376.875 C 454.972656 378.496094 453.574219 380.308594 453.878906 384.589844 C 454.859375 398.867188 431.429688 417.921875 414.59375 408.464844 C 411.875 406.921875 410.335938 407.445312 407.925781 409.222656 C 395.082031 418.867188 379.636719 416.792969 370.445312 404.179688 C 368.371094 401.273438 366.902344 400.636719 363.625 401.878906 C 348.710938 407.824219 331.035156 394.886719 329.160156 383.617188 C 327.878906 376.007812 324.035156 371.863281 318.90625 367.164062 C 311.605469 360.5 310.398438 351.5 312.960938 342.085938 C 313.597656 339.769531 314.546875 337.867188 311.871094 336.035156 C 299.742188 327.523438 297.894531 314.722656 298.945312 301.492188 C 301.804688 266.300781 320.34375 242.089844 353.035156 229.683594 C 376.800781 220.644531 401.667969 220.644531 426.335938 226.59375 C 435.789062 228.875 444.261719 233.296875 449.007812 242.675781 C 451.050781 246.683594 450.214844 252.351562 453.078125 254.859375 C 455.941406 257.324219 461.40625 256.457031 465.511719 257.8125 C 474.738281 260.789062 481.292969 269.578125 481.628906 278.621094 C 481.847656 284.660156 479.933594 289.746094 475.492188 293.886719 C 473.847656 295.480469 471.511719 296.40625 470.453125 299.019531 Z M 470.453125 299.019531 " fill-opacity="1" fill-rule="nonzero"/><path fill="#ff842b" d="M 73 339.183594 C 57.0625 331.257812 53.976562 308.152344 75.101562 299.433594 C 75.597656 297.859375 74.425781 296.996094 73.378906 296.410156 C 59.699219 289.53125 60.640625 268.449219 76.238281 259.546875 C 79.894531 257.394531 83.921875 256.265625 88.066406 256.304688 C 92.097656 256.375 94.058594 255.28125 94.691406 250.882812 C 96.203125 240.226562 102.984375 233.410156 112.472656 229.0625 C 119.40625 225.921875 126.789062 224.546875 134.285156 223.832031 C 154.808594 221.769531 175.074219 222.675781 194.550781 230.515625 C 228.863281 244.371094 248.90625 276.808594 245.886719 313.574219 C 245.171875 322.503906 241.785156 330.125 234.210938 335.308594 C 231.3125 337.285156 230.972656 338.976562 232.023438 342.304688 C 235.714844 354.113281 231.914062 364.351562 221.589844 371.230469 C 219.0625 372.882812 217.484375 374.203125 217.257812 377.679688 C 216.242188 393.519531 197.972656 406.660156 182.644531 402.515625 C 178.539062 401.421875 176.542969 401.574219 173.792969 405.300781 C 165.617188 416.40625 149.570312 418.554688 138.5 410.3125 C 135.445312 408.015625 133.339844 406.921875 129.757812 408.992188 C 124.792969 411.890625 119.324219 411.554688 113.941406 409.902344 C 100.980469 405.949219 92.695312 395.820312 91.757812 382.335938 C 91.5625 380.003906 91.074219 378.984375 88.589844 378.054688 C 72.207031 372.039062 65.539062 355.5625 73 339.183594 Z M 73 339.183594 " fill-opacity="1" fill-rule="nonzero"/><path fill="#f84c45" d="M 282.988281 156.949219 C 284.007812 163.421875 286.90625 168.980469 288.828125 174.703125 C 291.015625 181.066406 293.726562 187.242188 294.703125 193.980469 C 296.054688 203.351562 291.089844 211.660156 281.972656 215.652344 C 273.804688 219.25 264.570312 217.214844 258.65625 210.527344 C 254.59375 205.953125 253.5 200.535156 254.175781 194.625 C 255.195312 186.128906 257.976562 178.074219 260.316406 169.847656 C 261.554688 165.398438 262.765625 160.960938 264.085938 156.140625 C 261.179688 156.609375 260.613281 158.789062 259.488281 160.28125 C 253.71875 167.925781 248.035156 175.644531 240.765625 181.933594 C 234.890625 187.054688 228.335938 190.820312 220.277344 187.105469 C 212.066406 183.265625 207.921875 176.320312 207.058594 167.53125 C 206.261719 159.863281 210.632812 153.371094 218.390625 149.886719 C 225.28125 146.796875 232.742188 145.59375 240.015625 143.707031 C 243.816406 142.710938 247.808594 141.980469 252.402344 138.6875 C 244.757812 137.15625 238.542969 135.976562 232.328125 134.675781 C 227.507812 133.695312 222.683594 132.664062 218.167969 130.722656 C 210.742188 127.523438 205.621094 122.308594 205.28125 113.871094 C 204.902344 105.117188 208.894531 98.359375 216.167969 93.746094 C 221.21875 90.582031 226.527344 91.148438 231.722656 93.710938 C 237.144531 96.382812 241.628906 100.277344 245.921875 104.402344 C 250.78125 109.015625 255.566406 113.632812 260.425781 118.28125 C 261.78125 116.1875 260.089844 114.53125 259.449219 112.765625 C 255.941406 103.296875 252.292969 93.898438 250.707031 83.886719 C 249.277344 74.828125 254.09375 66.5625 262.6875 62.492188 C 270.707031 58.765625 279.9375 60.609375 286.078125 67.144531 C 289.425781 70.761719 290.859375 74.914062 290.898438 79.828125 C 290.9375 87.71875 288.5625 95.140625 286.867188 102.691406 C 285.78125 107.679688 284.269531 112.613281 282.730469 118.394531 C 285.886719 117.300781 287.136719 115.117188 288.640625 113.34375 C 294.4375 106.753906 300.3125 100.179688 307.242188 94.683594 C 313.53125 89.734375 320.394531 87.097656 327.964844 91.484375 C 335.800781 95.960938 339.523438 103.214844 339.453125 112.121094 C 339.339844 119.007812 335.238281 123.605469 329.472656 126.765625 C 323.75 129.929688 317.414062 131.359375 311.164062 133.039062 C 305.742188 134.484375 300.359375 135.976562 295.007812 138.875 C 302.914062 140.46875 310.828125 142.109375 318.738281 143.675781 C 322.316406 144.351562 325.777344 145.3125 329.054688 146.96875 C 337.078125 150.921875 340.996094 158.152344 339.832031 166.535156 C 338.546875 175.703125 332.328125 182.972656 324.195312 184.851562 C 318.019531 186.296875 313.046875 183.664062 308.371094 180.335938 C 301.558594 175.496094 296.136719 169.226562 290.257812 163.390625 C 288.074219 161.226562 286.378906 158.507812 282.988281 156.949219 Z M 282.988281 156.949219 " fill-opacity="1" fill-rule="nonzero"/><path fill="#238c78" d="M 445.902344 193.683594 C 437.464844 195.339844 432.148438 191.066406 427.96875 184.441406 C 424.5 179 422.917969 172.710938 419.984375 166.078125 C 419.261719 170.792969 418.707031 174.539062 418.105469 178.261719 C 417.644531 181.109375 416.625 183.746094 415.347656 186.300781 C 409.628906 197.597656 397.347656 201.101562 386.496094 194.53125 C 377.265625 188.996094 372.414062 177.210938 374.671875 165.5 C 375.011719 163.765625 375.574219 162.074219 376.03125 160.449219 C 374.855469 158.171875 372.785156 158.851562 371.132812 158.550781 C 359.300781 156.425781 350.644531 146.96875 350.570312 135.808594 C 350.449219 125.019531 359.382812 115.207031 371.246094 113.175781 C 372.980469 112.839844 374.789062 112.839844 377.125 112.613281 C 376.441406 110 375.769531 107.625 375.277344 105.253906 C 373.316406 95.253906 374.902344 86.085938 382.363281 78.746094 C 391.851562 69.3125 405.78125 71.140625 412.871094 82.402344 C 416.824219 88.742188 418.253906 95.746094 418.371094 103.222656 C 420.703125 102.601562 420.480469 100.625 420.890625 99.027344 C 422.4375 92.996094 424.089844 87.015625 427.746094 81.871094 C 434.976562 71.742188 445.710938 72.214844 452.15625 82.867188 C 455.996094 89.234375 456.179688 96.1875 454.335938 103.125 C 453.394531 106.554688 451.738281 109.871094 450.15625 113.804688 C 458.785156 112.066406 467.640625 109.320312 474.796875 116.605469 C 479.949219 121.84375 481.6875 128.601562 481.429688 135.886719 C 480.859375 151.855469 471.78125 157.597656 450.164062 155.09375 C 457.507812 167.007812 460.214844 178.703125 450.800781 190.261719 C 450.039062 192.664062 448.71875 194.207031 445.902344 193.683594 Z M 445.902344 193.683594 " fill-opacity="1" fill-rule="nonzero"/><path fill="#238c78" d="M 112.433594 172.144531 C 111.269531 175.496094 110.175781 178.878906 108.972656 182.21875 C 107.277344 186.871094 105.203125 191.273438 101.402344 194.699219 C 95.523438 199.953125 88.371094 200.101562 82.644531 194.589844 C 75.484375 187.734375 74.886719 179.1875 77.300781 170.1875 C 78.046875 167.25 79.484375 164.480469 81.023438 160.527344 C 71.871094 162.84375 63.359375 164.386719 56.617188 156.949219 C 51.832031 151.675781 49.875 145.3125 50.253906 138.371094 C 50.667969 131.117188 53.34375 124.773438 59.480469 120.386719 C 63.472656 117.523438 66.296875 117.410156 80.421875 118.785156 C 79.441406 116.316406 78.460938 114.136719 77.640625 111.914062 C 74.960938 104.589844 74.542969 97.226562 78.125 90.09375 C 80.839844 84.710938 85.054688 80.84375 91.34375 80.703125 C 97.371094 80.5625 101.292969 84.390625 104.226562 89.308594 C 107.539062 94.933594 108.742188 101.316406 111.078125 107.496094 C 113.226562 106.042969 112.964844 103.878906 113.152344 102.035156 C 113.488281 98.644531 114.277344 95.40625 115.597656 92.296875 C 118.539062 85.421875 123.28125 80.707031 131.078125 79.851562 C 139.441406 78.972656 146.332031 81.546875 151.269531 88.664062 C 156.164062 95.710938 156.726562 103.519531 155.445312 111.675781 C 155.183594 113.429688 153.714844 114.875 154.503906 116.78125 C 171.871094 121.164062 180.082031 128.453125 180.609375 139.800781 C 180.90625 146.804688 177.632812 152.117188 173.035156 157.015625 C 168.515625 161.886719 162.226562 162.507812 155.898438 164.296875 C 157.222656 169.53125 157.894531 174.613281 157.4375 179.753906 C 156.839844 186.835938 153.820312 192.636719 148.105469 196.890625 C 136.765625 205.246094 122.828125 201.839844 116.949219 189.074219 C 114.546875 183.875 113.152344 178.355469 112.433594 172.144531 Z M 112.433594 172.144531 " fill-opacity="1" fill-rule="nonzero"/><path fill="#000000" d="M 272.632812 437.347656 C 269.882812 442.652344 267.167969 447.886719 262.871094 452.03125 C 255.71875 459 247.65625 464.011719 237.1875 460.773438 C 226.378906 457.417969 222.5 448.417969 220.804688 438.324219 C 219.480469 430.308594 220.460938 422.367188 222.722656 414.53125 C 230.03125 389.074219 240.800781 365.128906 254.289062 342.402344 C 255.492188 340.429688 256.851562 338.488281 258.277344 336.660156 C 267.847656 324.570312 276.398438 324.496094 285.925781 336.453125 C 287.507812 338.449219 289.054688 340.542969 290.375 342.742188 C 304.046875 365.410156 315.046875 389.265625 322.429688 414.675781 C 325.140625 423.9375 326.117188 433.425781 323.488281 442.925781 C 322.578125 446.238281 321.222656 449.253906 319.3125 452.035156 C 313.015625 461.523438 303.191406 464.242188 292.941406 459.265625 C 285.9375 455.949219 280.960938 450.53125 276.9375 443.972656 C 275.574219 441.792969 275.035156 439.085938 272.632812 437.347656 Z M 272.632812 437.347656 " fill-opacity="1" fill-rule="nonzero"/><path fill="#238c78" d="M 209.050781 231.792969 C 206.222656 231.9375 204.1875 230.171875 202.121094 228.796875 C 187.84375 219.195312 176.917969 206.648438 169.652344 191.085938 C 167.808594 187.113281 166.300781 182.972656 166.222656 178.433594 C 166.070312 170.394531 170.515625 166.613281 178.582031 167.949219 C 183.777344 168.8125 188.375 171.132812 192.515625 174.289062 C 208.335938 186.449219 215.90625 212.71875 209.050781 231.792969 Z M 209.050781 231.792969 " fill-opacity="1" fill-rule="nonzero"/><path fill="#238c78" d="M 316.777344 214.882812 C 316.777344 212.476562 317.558594 209.96875 318.660156 207.714844 C 325.550781 193.292969 336.589844 183.273438 351.320312 177.34375 C 356.398438 175.308594 357.570312 176.328125 356.699219 181.449219 C 354.636719 193.292969 350.488281 204.285156 343.214844 214.019531 C 339.789062 218.652344 335.609375 222.476562 330.21875 224.65625 C 321.933594 228.019531 316.25 223.976562 316.777344 214.882812 Z M 316.777344 214.882812 " fill-opacity="1" fill-rule="nonzero"/><path fill="#000000" d="M 450.414062 458.585938 C 445.257812 457.910156 439.832031 457.605469 434.636719 455.878906 C 432.003906 454.960938 429.695312 453.542969 430.53125 450.34375 C 431.398438 446.953125 434.03125 446.160156 437.191406 446.84375 C 440.734375 447.589844 444.277344 448.570312 447.855469 448.988281 C 470.980469 451.882812 487.136719 431.175781 478.625 409.488281 C 477.386719 406.40625 475.648438 403.464844 474.148438 400.523438 C 472.757812 397.734375 472.078125 394.945312 475.167969 392.984375 C 478.207031 391.03125 480.542969 392.5 482.28125 395.253906 C 490.71875 408.578125 493.429688 422.511719 485.898438 437.082031 C 478.550781 451.28125 466.417969 457.984375 450.414062 458.585938 Z M 450.414062 458.585938 " fill-opacity="1" fill-rule="nonzero"/><path fill="#000000" d="M 54.542969 419.34375 C 54.464844 411.097656 57.398438 403.722656 61.398438 396.710938 C 63.917969 392.3125 66.632812 391.21875 69.308594 393.105469 C 72.660156 395.476562 71.679688 398.335938 69.984375 401.265625 C 68.0625 404.589844 66.332031 408.050781 65.164062 411.738281 C 58.910156 431.398438 73 450.074219 93.640625 449.328125 C 97.707031 449.175781 101.769531 448.125 105.84375 447.515625 C 107.347656 447.253906 108.933594 446.734375 110.402344 446.910156 C 112.625 447.140625 114.207031 448.757812 114.582031 450.910156 C 114.960938 453.167969 113.640625 454.75 111.570312 455.800781 C 86.21875 468.066406 54.464844 447.820312 54.542969 419.34375 Z M 54.542969 419.34375 " fill-opacity="1" fill-rule="nonzero"/><path fill="#000000" d="M 471.847656 228.207031 C 463.113281 228.355469 455.804688 221.414062 455.660156 212.882812 C 455.503906 204.351562 462.625 197 471.175781 196.746094 C 480.179688 196.5625 487.824219 203.832031 487.824219 212.5625 C 487.820312 221.074219 480.667969 228.058594 471.847656 228.207031 Z M 471.847656 228.207031 " fill-opacity="1" fill-rule="nonzero"/><path fill="#f84c45" d="M 155.636719 439.308594 C 155.636719 447.4375 148.710938 453.84375 139.894531 453.765625 C 131.226562 453.726562 123.769531 446.496094 123.960938 438.324219 C 124.113281 430.347656 131.453125 423.566406 139.78125 423.644531 C 148.292969 423.644531 155.636719 430.941406 155.636719 439.308594 Z M 155.636719 439.308594 " fill-opacity="1" fill-rule="nonzero"/><path fill="#f84c45" d="M 389.472656 438.175781 C 389.699219 429.847656 396.589844 423.9375 405.671875 424.316406 C 414.558594 424.695312 421.492188 431.808594 421.113281 440.207031 C 420.738281 447.667969 413.207031 454.140625 405.179688 453.875 C 396.328125 453.578125 389.289062 446.496094 389.472656 438.175781 Z M 389.472656 438.175781 " fill-opacity="1" fill-rule="nonzero"/><path fill="#000000" d="M 471.734375 425.074219 C 471.996094 432.871094 465.738281 439.609375 457.914062 439.832031 C 450.496094 440.089844 443.59375 433.421875 443.296875 425.671875 C 442.996094 417.835938 449.4375 410.992188 457.117188 410.914062 C 464.699219 410.84375 471.511719 417.394531 471.734375 425.074219 Z M 471.734375 425.074219 " fill-opacity="1" fill-rule="nonzero"/><path fill="#000000" d="M 86.59375 410.914062 C 94.320312 410.84375 100.988281 417.242188 101.136719 424.917969 C 101.328125 433.054688 94.691406 440.066406 86.824219 440.09375 C 79.253906 440.144531 72.960938 433.511719 72.886719 425.5625 C 72.804688 417.46875 78.796875 411.101562 86.59375 410.914062 Z M 86.59375 410.914062 " fill-opacity="1" fill-rule="nonzero"/><path fill="#000000" d="M 60.417969 212.472656 C 53.5625 212.621094 48.253906 207.445312 48.140625 200.539062 C 48.066406 193.726562 53.410156 187.980469 59.929688 187.769531 C 66.332031 187.640625 72.167969 193.378906 72.285156 200.007812 C 72.402344 206.953125 67.230469 212.378906 60.417969 212.472656 Z M 60.417969 212.472656 " fill-opacity="1" fill-rule="nonzero"/><path fill="#000000" d="M 296.628906 632.101562 C 296.773438 634.285156 295.6875 636.398438 294.589844 638.425781 C 289.613281 647.691406 284.683594 657.066406 279.527344 666.292969 C 275.195312 673.976562 270.066406 674.089844 265.84375 666.597656 C 260.5 657.105469 255.488281 647.542969 250.554688 637.898438 C 247.351562 631.492188 247.882812 628.566406 252.890625 623.289062 C 257.144531 618.773438 261.445312 614.324219 265.996094 610.1875 C 270.8125 605.8125 274.207031 605.8125 278.882812 610.113281 C 283.8125 614.703125 288.449219 619.523438 293.078125 624.34375 C 295.085938 626.367188 296.699219 628.785156 296.628906 632.101562 Z M 296.628906 632.101562 " fill-opacity="1" fill-rule="nonzero"/><path fill="#000000" d="M 167.578125 603.105469 C 184.078125 603.105469 198.128906 614.625 201.140625 630.742188 C 202.984375 640.457031 199.628906 648.585938 193.375 655.707031 C 192.585938 656.613281 191.453125 657.402344 190.289062 657.769531 C 188.777344 658.378906 187.238281 658.039062 186.035156 656.761719 C 184.789062 655.480469 184.863281 653.9375 185.691406 652.464844 C 186.332031 651.375 187.160156 650.394531 187.992188 649.34375 C 193.675781 642.335938 195.367188 634.65625 191.191406 626.296875 C 186.742188 617.480469 179.398438 612.925781 169.566406 612.433594 C 164.484375 612.136719 159.699219 613.046875 155.742188 616.390625 C 151 620.273438 150.167969 627.125 153.675781 631.683594 C 156.046875 634.65625 159.136719 635.632812 162.675781 634.585938 C 166.179688 633.523438 167.386719 630.847656 166.558594 627.3125 C 165.882812 624.402344 166.371094 621.84375 169.5 621.167969 C 172.773438 620.34375 174.691406 622.40625 175.976562 625.324219 C 179.742188 633.972656 173.039062 644.410156 162.910156 645.578125 C 154.699219 646.449219 147.011719 642.117188 143.320312 634.507812 C 139.480469 626.605469 140.949219 616.960938 147.164062 610.867188 C 152.773438 605.292969 159.78125 603.039062 167.578125 603.105469 Z M 167.578125 603.105469 " fill-opacity="1" fill-rule="nonzero"/><path fill="#000000" d="M 376.964844 603.105469 C 383.597656 602.960938 389.769531 604.679688 395.269531 608.410156 C 403.375 613.910156 406.15625 623.8125 402.464844 633.152344 C 399.121094 641.589844 391.054688 646.519531 382.238281 645.503906 C 373.34375 644.417969 367.058594 636.660156 368.304688 628.183594 C 368.648438 625.8125 369.390625 623.667969 371.351562 622.121094 C 373.117188 620.769531 374.964844 620.203125 377.074219 621.484375 C 378.914062 622.457031 379.21875 624.046875 379.109375 626.039062 C 378.734375 632.777344 379.859375 634.734375 384.042969 635.195312 C 388.566406 635.605469 392.824219 632.101562 393.644531 626.910156 C 394.441406 622.097656 392.558594 618.402344 388.523438 615.683594 C 379.898438 609.957031 366.339844 611.769531 358.621094 619.832031 C 350.367188 628.265625 349.582031 639.296875 356.46875 648.679688 C 357.070312 649.503906 357.824219 650.257812 358.507812 651.082031 C 360.238281 653.121094 360.730469 655.378906 358.507812 657.183594 C 356.46875 658.84375 354.097656 658.425781 352.289062 656.507812 C 346.148438 649.882812 343.058594 642.046875 343.816406 633.164062 C 345.171875 616.625 360.277344 603.214844 376.964844 603.105469 Z M 376.964844 603.105469 " fill-opacity="1" fill-rule="nonzero"/><path fill="#ff842b" d="M 414.144531 580.851562 C 414.257812 582.996094 413.621094 584.808594 411.324219 585.59375 C 408.914062 586.46875 407.332031 585.027344 406.273438 583.222656 C 404.238281 579.535156 403.414062 575.542969 403.597656 571.398438 C 403.71875 569.710938 404.578125 568.390625 406.121094 567.820312 C 408.082031 567.179688 409.628906 568.203125 410.679688 569.816406 C 412.867188 573.132812 413.390625 576.972656 414.144531 580.851562 Z M 414.144531 580.851562 " fill-opacity="1" fill-rule="nonzero"/><path fill="#ff842b" d="M 142.042969 573.015625 C 141.855469 576.59375 141.222656 579.835938 139.742188 582.917969 C 138.800781 584.878906 137.105469 586.308594 134.808594 585.789062 C 132.394531 585.292969 131.789062 583.300781 131.832031 580.996094 C 131.945312 577.609375 132.851562 574.371094 134.09375 571.246094 C 135.035156 568.992188 136.769531 567.257812 139.523438 568.050781 C 141.925781 568.757812 141.996094 571.058594 142.042969 573.015625 Z M 142.042969 573.015625 " fill-opacity="1" fill-rule="nonzero"/><path fill="#ff842b" d="M 223.660156 650.25 C 223.585938 653.261719 223.175781 655.371094 220.578125 655.675781 C 218.429688 655.972656 217.527344 654.25 216.964844 652.472656 C 215.949219 649.613281 214.773438 646.785156 214.929688 643.628906 C 215.039062 641.746094 215.984375 640.167969 218.050781 639.867188 C 219.828125 639.644531 220.992188 640.839844 221.523438 642.277344 C 222.460938 645.125 223.097656 648.140625 223.660156 650.25 Z M 223.660156 650.25 " fill-opacity="1" fill-rule="nonzero"/><path fill="#ff842b" d="M 329.886719 645.429688 C 329.886719 648.816406 329.019531 652.054688 327.210938 654.878906 C 326.011719 656.796875 323.253906 656.421875 322.195312 654.460938 C 321.035156 652.132812 322.957031 643.097656 325.03125 641.4375 C 325.808594 640.824219 326.871094 640.457031 327.890625 640.90625 C 329.886719 641.777344 329.847656 643.621094 329.886719 645.429688 Z M 329.886719 645.429688 " fill-opacity="1" fill-rule="nonzero"/><path fill="#ff842b" d="M 332.558594 645.503906 C 332.632812 644.753906 332.597656 643.960938 332.742188 643.167969 C 333.121094 641.0625 333.679688 638.878906 336.355469 639.214844 C 338.546875 639.519531 338.730469 641.667969 338.730469 643.476562 C 338.777344 644.230469 338.777344 645.019531 338.691406 645.773438 C 338.425781 648.296875 338.394531 651.617188 334.925781 651.222656 C 332.066406 650.851562 332.667969 647.691406 332.558594 645.503906 Z M 332.558594 645.503906 " fill-opacity="1" fill-rule="nonzero"/><path fill="#ff842b" d="M 127.917969 567.101562 C 127.535156 569.367188 128.59375 573.4375 124.527344 573.167969 C 120.761719 572.949219 121.585938 569.097656 121.625 566.355469 C 121.664062 565.597656 121.816406 564.847656 122.046875 564.097656 C 122.457031 562.542969 123.246094 561.195312 125.132812 561.308594 C 127.054688 561.382812 127.582031 562.851562 127.804688 564.476562 C 127.875 565.222656 127.875 566.019531 127.917969 567.101562 Z M 127.917969 567.101562 " fill-opacity="1" fill-rule="nonzero"/><path fill="#ff842b" d="M 422.847656 567.488281 C 422.730469 568.84375 422.695312 570.082031 422.578125 571.324219 C 422.433594 572.417969 421.792969 573.207031 420.660156 573.320312 C 419.535156 573.4375 418.625 572.753906 418.183594 571.925781 C 416.902344 569.289062 417.085938 566.5 417.542969 563.71875 C 417.769531 562.402344 418.628906 561.308594 420.027344 561.308594 C 421.421875 561.347656 422.242188 562.441406 422.507812 563.792969 C 422.695312 565 422.730469 566.277344 422.847656 567.488281 Z M 422.847656 567.488281 " fill-opacity="1" fill-rule="nonzero"/><path fill="#ff842b" d="M 206.078125 644.636719 C 206.148438 643.734375 206.148438 642.71875 206.375 641.703125 C 206.605469 640.382812 207.199219 639.214844 208.710938 639.183594 C 210.171875 639.105469 211.082031 640.042969 211.382812 641.363281 C 211.609375 642.378906 211.722656 643.402344 211.6875 644.382812 C 211.574219 646.636719 212.328125 649.6875 209.121094 649.878906 C 205.882812 650.058594 206.414062 646.9375 206.078125 644.636719 Z M 206.078125 644.636719 " fill-opacity="1" fill-rule="nonzero"/><path fill="#000000" d="M 462.054688 328.601562 C 461.488281 350.707031 454.257812 369.773438 435.421875 382.613281 C 418.132812 394.460938 399 396.292969 379.035156 390.695312 C 347.359375 381.832031 326.144531 354.1875 326.378906 322.199219 C 326.601562 291.285156 348.265625 263.363281 377.601562 256.09375 C 407.089844 248.828125 437.117188 262.445312 452.332031 289.96875 C 458.96875 301.980469 462.246094 314.835938 462.054688 328.601562 Z M 462.054688 328.601562 " fill-opacity="1" fill-rule="nonzero"/><path fill="#000000" d="M 82.074219 329.375 C 82.53125 304.367188 91.003906 284.695312 108.816406 269.730469 C 138.425781 244.890625 181.289062 250.351562 204.796875 281.515625 C 236.320312 323.234375 212.03125 383.089844 160.007812 392.234375 C 145.84375 394.71875 132.09375 393.96875 119.0625 388.019531 C 93.261719 376.292969 83.015625 354.726562 82.074219 329.375 Z M 82.074219 329.375 " fill-opacity="1" fill-rule="nonzero"/><path fill="#000000" d="M 272.363281 149.960938 C 265.097656 149.742188 259.335938 143.75 259.410156 136.410156 C 259.488281 128.628906 265.472656 122.894531 273.3125 123.136719 C 280.839844 123.34375 286.34375 129.03125 286.222656 136.578125 C 286.152344 144.410156 280.125 150.195312 272.363281 149.960938 Z M 272.363281 149.960938 " fill-opacity="1" fill-rule="nonzero"/><path fill="#000000" d="M 415.949219 119.523438 C 422.355469 119.691406 428.378906 125.941406 428.234375 132.226562 C 428.082031 138.894531 422.167969 144.242188 415.34375 143.867188 C 408.230469 143.488281 403.375 138.160156 403.75 131.117188 C 404.054688 124.679688 409.660156 119.332031 415.949219 119.523438 Z M 415.949219 119.523438 " fill-opacity="1" fill-rule="nonzero"/><path fill="#000000" d="M 116.125 149.703125 C 109.421875 149.894531 103.882812 144.410156 103.882812 137.445312 C 103.847656 131.0625 109.199219 125.605469 115.5625 125.488281 C 122.078125 125.375 127.535156 130.460938 127.800781 136.898438 C 128.175781 143.867188 123.023438 149.476562 116.125 149.703125 Z M 116.125 149.703125 " fill-opacity="1" fill-rule="nonzero"/><path fill="#fba78e" d="M 140.199219 433.125 C 143.0625 433.246094 145.882812 435.921875 145.847656 438.484375 C 145.847656 441.90625 142.5 445.257812 139.40625 444.839844 C 136.050781 444.425781 134.585938 441.9375 134.207031 439.003906 C 133.832031 436.179688 137.328125 432.984375 140.199219 433.125 Z M 140.199219 433.125 " fill-opacity="1" fill-rule="nonzero"/><path fill="#fba78e" d="M 411.128906 438.699219 C 411.203125 441.453125 408.152344 444.570312 405.253906 444.726562 C 402.359375 444.878906 399.378906 441.9375 399.300781 438.886719 C 399.261719 435.796875 402.058594 432.820312 404.996094 432.867188 C 407.933594 432.90625 411.050781 435.921875 411.128906 438.699219 Z M 411.128906 438.699219 " fill-opacity="1" fill-rule="nonzero"/><path fill="#9fc25d" d="M 463.261719 425.144531 C 463.339844 428.6875 461.191406 431.054688 457.800781 431.246094 C 454.335938 431.394531 451.890625 429.296875 451.695312 425.859375 C 451.4375 422.367188 454.300781 419.042969 457.539062 419.125 C 460.507812 419.199219 463.179688 421.945312 463.261719 425.144531 Z M 463.261719 425.144531 " fill-opacity="1" fill-rule="nonzero"/><path fill="#a4c660" d="M 86.710938 431.320312 C 83.46875 431.25 80.914062 428.613281 80.871094 425.335938 C 80.835938 421.902344 84.109375 418.898438 87.460938 419.199219 C 90.328125 419.414062 93.148438 422.777344 92.964844 425.671875 C 92.773438 428.800781 89.871094 431.394531 86.710938 431.320312 Z M 86.710938 431.320312 " fill-opacity="1" fill-rule="nonzero"/><path fill="#ff842b" d="M 273.457031 618.3125 C 276.777344 622.152344 279.675781 625.726562 282.800781 629.117188 C 284.605469 631.039062 285.363281 632.957031 284.078125 635.375 C 280.464844 642.183594 276.808594 648.929688 272.707031 656.574219 C 268.640625 648.929688 265.023438 642.183594 261.40625 635.375 C 260.128906 633.042969 260.503906 631.003906 262.425781 629.082031 C 265.777344 625.921875 269.015625 622.65625 273.457031 618.3125 Z M 273.457031 618.3125 " fill-opacity="1" fill-rule="nonzero"/></g></g></svg>