<svg xmlns="http://www.w3.org/2000/svg" xmlns:xlink="http://www.w3.org/1999/xlink" width="794" zoomAndPan="magnify" viewBox="0 0 595.5 842.249979" height="1123" preserveAspectRatio="xMidYMid meet" version="1.0"><defs><clipPath id="2f1911131b"><rect x="0" width="453" y="0" height="826"/></clipPath></defs><g transform="matrix(1, 0, 0, 1, 8, 8)"><g clip-path="url(#2f1911131b)"><path fill="#e86e83" d="M 420.507812 25.585938 C 429.441406 40.113281 426.09375 57.992188 426.09375 74.753906 C 424.976562 103.808594 421.625 132.863281 424.976562 161.917969 C 427.207031 188.734375 427.207031 215.554688 422.742188 242.375 C 420.507812 250.195312 417.15625 258.019531 411.570312 263.605469 C 401.519531 270.3125 385.878906 275.898438 373.59375 275.898438 C 366.890625 275.898438 361.304688 271.429688 359.070312 265.839844 C 355.722656 258.019531 353.488281 250.195312 351.253906 242.375 C 347.902344 228.964844 343.433594 215.554688 338.964844 203.261719 C 333.382812 189.855469 325.5625 176.445312 314.390625 166.386719 C 305.457031 157.445312 295.402344 150.742188 283.117188 148.507812 C 265.242188 142.921875 242.902344 146.273438 230.617188 129.511719 C 219.445312 117.21875 219.445312 98.222656 212.746094 83.695312 C 208.277344 71.402344 195.988281 50.171875 206.042969 38.996094 C 210.511719 32.289062 217.210938 28.9375 225.03125 27.820312 C 232.851562 26.703125 240.667969 27.820312 248.488281 30.054688 C 260.777344 32.289062 273.0625 35.644531 285.351562 37.878906 C 303.222656 41.230469 324.445312 42.347656 341.199219 34.527344 C 353.488281 27.820312 363.539062 17.765625 376.945312 13.292969 C 392.582031 7.707031 410.453125 7.707031 420.507812 25.585938 Z M 420.507812 25.585938 " fill-opacity="1" fill-rule="nonzero"/><path fill="#e86e83" d="M 268.59375 414.464844 C 254.074219 413.347656 241.785156 406.640625 227.265625 404.40625 C 214.980469 401.054688 201.574219 404.40625 189.289062 406.640625 C 171.414062 411.113281 154.660156 414.464844 140.140625 402.171875 C 116.683594 379.824219 161.363281 350.769531 153.542969 309.421875 C 151.308594 292.660156 140.140625 274.78125 151.308594 259.136719 C 156.894531 251.3125 164.714844 245.726562 170.296875 239.023438 C 179.234375 225.613281 185.9375 211.085938 193.753906 196.558594 C 198.222656 186.5 206.042969 176.445312 217.210938 175.328125 C 231.734375 174.210938 247.371094 177.5625 261.894531 183.148438 C 289.816406 196.558594 307.691406 223.378906 324.445312 249.078125 C 334.496094 264.722656 338.964844 282.601562 349.019531 298.246094 C 349.019531 299.363281 350.136719 300.484375 350.136719 301.601562 C 353.488281 323.949219 343.433594 370.882812 330.03125 389.878906 C 323.328125 397.703125 313.273438 399.9375 304.339844 404.40625 C 294.285156 409.996094 283.117188 415.582031 270.828125 415.582031 C 270.828125 414.464844 269.710938 414.464844 268.59375 414.464844 Z M 268.59375 414.464844 " fill-opacity="1" fill-rule="nonzero"/><path fill="#e86e83" d="M 373.59375 453.574219 C 379.179688 463.632812 371.359375 473.691406 365.773438 481.511719 C 360.1875 489.335938 355.722656 497.15625 349.019531 504.980469 C 343.433594 512.800781 336.730469 518.386719 330.03125 525.09375 C 324.445312 532.914062 317.742188 538.503906 311.039062 545.207031 C 289.816406 566.4375 269.710938 583.203125 239.554688 588.789062 C 222.796875 591.023438 206.042969 594.375 188.171875 594.375 C 174.765625 594.375 160.246094 592.140625 147.957031 588.789062 C 133.4375 584.320312 120.035156 577.613281 104.394531 576.496094 C 95.460938 575.378906 85.40625 577.613281 76.472656 579.847656 C 61.949219 583.203125 46.3125 587.671875 30.671875 584.320312 C 0.515625 579.847656 6.101562 538.503906 23.972656 522.859375 C 31.789062 516.152344 40.726562 512.800781 48.546875 507.214844 C 65.300781 494.921875 75.355469 475.925781 86.523438 459.164062 C 93.226562 447.988281 105.511719 436.8125 120.035156 440.164062 C 125.617188 441.285156 130.085938 443.519531 135.671875 444.636719 C 146.839844 446.871094 156.894531 447.988281 168.066406 444.636719 C 179.234375 443.519531 188.171875 437.929688 198.222656 433.460938 C 212.746094 425.640625 230.617188 427.875 245.136719 434.578125 C 252.957031 437.929688 259.660156 443.519531 268.59375 444.636719 C 278.648438 446.871094 289.816406 446.871094 299.871094 441.285156 C 319.976562 431.226562 338.964844 415.582031 357.953125 436.8125 C 363.539062 442.402344 370.242188 446.871094 373.59375 453.574219 Z M 373.59375 453.574219 " fill-opacity="1" fill-rule="nonzero"/><path fill="#e86e83" d="M 448.433594 508.332031 C 451.78125 546.324219 437.261719 582.082031 432.792969 618.960938 C 430.558594 639.074219 429.441406 659.1875 431.675781 678.1875 C 433.910156 692.714844 438.378906 706.121094 440.613281 720.648438 C 445.082031 740.765625 442.847656 761.996094 439.496094 782.109375 C 436.144531 802.226562 423.859375 817.867188 402.636719 813.398438 C 373.59375 808.929688 355.722656 779.875 326.679688 775.40625 C 317.742188 773.171875 308.808594 773.171875 299.871094 773.171875 C 290.933594 773.171875 282 774.289062 273.0625 772.054688 C 255.191406 766.464844 248.488281 746.351562 248.488281 729.589844 C 247.371094 716.179688 246.253906 703.886719 242.902344 690.476562 C 240.667969 678.1875 235.085938 663.660156 241.785156 651.367188 C 250.722656 635.722656 268.59375 629.015625 283.117188 620.078125 C 308.808594 602.199219 335.613281 583.203125 355.722656 558.617188 C 365.773438 546.324219 370.242188 530.679688 374.710938 516.152344 C 380.296875 500.507812 389.230469 481.511719 405.984375 477.042969 C 410.453125 475.925781 416.039062 478.160156 420.507812 478.160156 C 424.976562 477.042969 428.324219 477.042969 432.792969 477.042969 C 445.082031 479.277344 447.316406 499.390625 448.433594 508.332031 Z M 448.433594 508.332031 " fill-opacity="1" fill-rule="nonzero"/><path fill="#e0ae3d" d="M 440.613281 392.113281 C 446.199219 407.757812 447.316406 413.347656 441.730469 428.992188 C 439.496094 435.695312 435.027344 442.402344 429.441406 444.636719 C 422.742188 446.871094 417.15625 447.988281 410.453125 447.988281 C 395.933594 446.871094 393.699219 433.460938 383.644531 425.640625 C 374.710938 416.699219 361.304688 408.875 361.304688 395.46875 C 364.65625 378.707031 371.359375 363.0625 374.710938 347.417969 C 378.0625 332.890625 381.410156 317.246094 392.582031 306.070312 C 398.167969 300.484375 404.867188 296.011719 412.6875 293.777344 C 418.273438 292.660156 440.613281 285.957031 441.730469 293.777344 C 450.664062 320.597656 440.613281 339.59375 438.378906 365.296875 C 436.144531 374.234375 437.261719 383.175781 440.613281 392.113281 Z M 440.613281 392.113281 " fill-opacity="1" fill-rule="nonzero"/><path fill="#d33c57" d="M 414.921875 251.3125 C 413.804688 245.726562 411.570312 240.140625 410.453125 234.550781 C 409.335938 231.199219 408.21875 228.964844 408.21875 225.613281 C 407.101562 222.261719 407.101562 220.023438 405.984375 216.671875 C 405.984375 216.671875 405.984375 215.554688 405.984375 215.554688 C 405.984375 215.554688 405.984375 215.554688 405.984375 214.4375 C 405.984375 214.4375 405.984375 213.320312 405.984375 213.320312 C 405.984375 213.320312 405.984375 213.320312 405.984375 212.203125 C 405.984375 212.203125 405.984375 212.203125 405.984375 211.085938 C 404.867188 205.5 403.75 198.792969 403.75 193.207031 C 403.75 189.855469 403.75 187.617188 402.636719 184.265625 C 402.636719 184.265625 402.636719 184.265625 402.636719 183.148438 C 402.636719 183.148438 402.636719 182.03125 402.636719 182.03125 C 402.636719 176.445312 401.519531 169.738281 401.519531 164.152344 C 401.519531 158.566406 401.519531 151.859375 401.519531 146.273438 C 401.519531 140.683594 401.519531 133.980469 400.402344 128.394531 C 400.402344 121.6875 400.402344 116.101562 400.402344 109.394531 C 400.402344 102.691406 400.402344 97.105469 400.402344 90.398438 C 400.402344 84.8125 400.402344 78.105469 400.402344 72.519531 C 400.402344 72.519531 400.402344 71.402344 400.402344 71.402344 C 400.402344 70.285156 400.402344 69.167969 400.402344 68.050781 C 400.402344 66.933594 400.402344 65.816406 400.402344 64.699219 C 400.402344 63.578125 400.402344 63.578125 400.402344 62.460938 C 400.402344 61.34375 400.402344 60.226562 400.402344 59.109375 C 400.402344 57.992188 399.285156 55.757812 399.285156 54.640625 C 399.285156 53.523438 398.167969 51.289062 398.167969 50.171875 C 398.167969 49.054688 398.167969 49.054688 397.050781 47.933594 C 397.050781 46.816406 397.050781 46.816406 395.933594 45.699219 C 395.933594 44.582031 394.816406 43.464844 394.816406 42.347656 C 394.816406 41.230469 393.699219 40.113281 393.699219 38.996094 C 393.699219 37.878906 392.582031 36.761719 392.582031 35.644531 C 391.464844 34.527344 391.464844 33.410156 390.347656 32.289062 C 389.230469 31.171875 389.230469 30.054688 388.113281 28.9375 C 388.113281 27.820312 386.996094 26.703125 386.996094 25.585938 C 386.996094 24.46875 385.878906 23.351562 385.878906 22.234375 C 384.761719 21.117188 384.761719 20 383.644531 18.882812 C 382.527344 17.765625 381.410156 15.527344 380.296875 14.410156 C 379.179688 13.292969 379.179688 13.292969 378.0625 12.175781 C 376.945312 11.058594 376.945312 11.058594 375.828125 9.941406 C 378.0625 8.824219 379.179688 8.824219 381.410156 7.707031 C 381.410156 7.707031 382.527344 8.824219 382.527344 8.824219 C 383.644531 9.941406 384.761719 11.058594 384.761719 12.175781 C 385.878906 13.292969 386.996094 14.410156 386.996094 15.527344 C 388.113281 16.644531 388.113281 17.765625 389.230469 18.882812 C 390.347656 20 390.347656 21.117188 391.464844 23.351562 C 391.464844 24.46875 392.582031 25.585938 392.582031 25.585938 C 392.582031 26.703125 393.699219 26.703125 393.699219 27.820312 C 394.816406 34.527344 394.816406 35.644531 395.933594 37.878906 C 395.933594 38.996094 397.050781 38.996094 397.050781 40.113281 C 397.050781 41.230469 398.167969 41.230469 398.167969 42.347656 C 398.167969 43.464844 398.167969 43.464844 399.285156 44.582031 C 399.285156 45.699219 400.402344 45.699219 400.402344 46.816406 C 400.402344 47.933594 400.402344 47.933594 401.519531 49.054688 C 401.519531 50.171875 401.519531 51.289062 402.636719 51.289062 C 402.636719 52.40625 402.636719 52.40625 402.636719 53.523438 C 402.636719 54.640625 402.636719 54.640625 403.75 55.757812 C 403.75 56.875 404.867188 57.992188 404.867188 60.226562 C 404.867188 61.34375 404.867188 63.578125 405.984375 64.699219 C 405.984375 65.816406 405.984375 65.816406 405.984375 66.933594 C 405.984375 68.050781 405.984375 68.050781 405.984375 69.167969 C 405.984375 72.519531 405.984375 75.871094 407.101562 79.222656 C 407.101562 84.8125 407.101562 91.515625 407.101562 97.105469 C 407.101562 102.691406 407.101562 109.394531 407.101562 114.984375 C 407.101562 121.6875 407.101562 127.277344 407.101562 133.980469 C 407.101562 139.566406 407.101562 146.273438 407.101562 151.859375 C 407.101562 157.445312 407.101562 163.035156 407.101562 169.738281 C 407.101562 174.210938 407.101562 179.796875 408.21875 184.265625 C 408.21875 184.265625 408.21875 184.265625 408.21875 185.382812 C 408.21875 185.382812 408.21875 186.5 408.21875 186.5 C 408.21875 190.972656 409.335938 194.324219 409.335938 198.792969 C 409.335938 203.261719 410.453125 207.734375 411.570312 212.203125 C 411.570312 212.203125 411.570312 212.203125 411.570312 213.320312 C 411.570312 214.4375 412.6875 216.671875 412.6875 217.789062 C 412.6875 218.90625 413.804688 221.144531 413.804688 222.261719 C 414.921875 225.613281 416.039062 227.847656 416.039062 231.199219 C 417.15625 234.550781 418.273438 236.789062 418.273438 240.140625 C 419.390625 243.492188 419.390625 245.726562 420.507812 249.078125 C 419.390625 251.3125 418.273438 254.667969 417.15625 256.902344 C 416.039062 254.667969 416.039062 252.433594 414.921875 251.3125 Z M 414.921875 251.3125 " fill-opacity="1" fill-rule="nonzero"/><path fill="#d33c57" d="M 404.867188 258.019531 C 402.636719 252.433594 400.402344 246.84375 397.050781 241.257812 C 395.933594 239.023438 394.816406 235.667969 393.699219 233.433594 C 392.582031 231.199219 391.464844 228.964844 390.347656 225.613281 C 388.113281 220.023438 385.878906 214.4375 384.761719 209.96875 C 382.527344 204.378906 381.410156 198.792969 380.296875 193.207031 C 379.179688 187.617188 378.0625 182.03125 376.945312 175.328125 C 375.828125 171.972656 375.828125 169.738281 374.710938 166.386719 C 373.59375 163.035156 373.59375 158.566406 372.476562 155.210938 C 372.476562 152.976562 371.359375 151.859375 371.359375 149.625 C 371.359375 148.507812 370.242188 146.273438 370.242188 145.15625 C 369.125 144.039062 369.125 141.800781 368.007812 140.683594 C 368.007812 139.566406 366.890625 139.566406 366.890625 138.449219 C 366.890625 137.332031 365.773438 137.332031 365.773438 136.214844 C 364.65625 135.097656 364.65625 133.980469 363.539062 132.863281 C 363.539062 131.746094 362.421875 131.746094 362.421875 130.628906 C 362.421875 129.511719 361.304688 129.511719 361.304688 128.394531 C 360.1875 127.277344 359.070312 126.15625 359.070312 125.039062 C 357.953125 123.921875 356.839844 121.6875 355.722656 120.570312 C 353.488281 117.21875 351.253906 114.984375 349.019531 112.75 C 345.667969 108.277344 341.199219 103.808594 337.847656 100.457031 C 334.496094 95.988281 331.148438 91.515625 327.796875 87.046875 C 326.679688 85.929688 326.679688 84.8125 325.5625 83.695312 C 324.445312 82.578125 323.328125 81.460938 323.328125 80.34375 C 322.210938 79.222656 321.09375 76.988281 321.09375 75.871094 C 319.976562 74.753906 319.976562 73.636719 318.859375 72.519531 C 317.742188 71.402344 317.742188 70.285156 316.625 69.167969 C 315.507812 68.050781 315.507812 66.933594 314.390625 65.816406 C 313.273438 64.699219 313.273438 62.460938 312.15625 61.34375 C 311.039062 60.226562 311.039062 59.109375 309.925781 57.992188 C 309.925781 56.875 308.808594 55.757812 308.808594 54.640625 C 306.574219 52.40625 305.457031 51.289062 305.457031 50.171875 C 304.339844 49.054688 304.339844 46.816406 303.222656 45.699219 C 303.222656 44.582031 302.105469 43.464844 302.105469 42.347656 C 302.105469 42.347656 302.105469 42.347656 302.105469 41.230469 C 304.339844 41.230469 305.457031 41.230469 307.691406 41.230469 C 307.691406 42.347656 308.808594 42.347656 308.808594 43.464844 C 308.808594 44.582031 309.925781 45.699219 309.925781 47.933594 C 309.925781 49.054688 311.039062 50.171875 311.039062 51.289062 C 311.039062 52.40625 312.15625 53.523438 312.15625 53.523438 C 313.273438 54.640625 313.273438 56.875 314.390625 57.992188 C 315.507812 60.226562 316.625 61.34375 317.742188 63.578125 C 318.859375 64.699219 318.859375 65.816406 319.976562 68.050781 C 321.09375 69.167969 321.09375 70.285156 322.210938 71.402344 C 323.328125 72.519531 323.328125 73.636719 324.445312 74.753906 C 325.5625 75.871094 325.5625 76.988281 326.679688 78.105469 C 327.796875 79.222656 328.914062 81.460938 330.03125 82.578125 C 331.148438 84.8125 332.265625 85.929688 333.378906 87.046875 C 334.496094 89.28125 335.613281 90.398438 337.847656 92.632812 C 338.964844 93.75 340.082031 95.988281 341.199219 97.105469 C 344.550781 101.574219 349.019531 106.042969 352.371094 109.394531 C 354.605469 111.632812 355.722656 113.867188 357.953125 116.101562 C 360.1875 118.335938 361.304688 120.570312 363.539062 122.804688 C 364.65625 123.921875 365.773438 125.039062 365.773438 126.15625 C 366.890625 127.277344 366.890625 128.394531 368.007812 129.511719 C 368.007812 129.511719 368.007812 130.628906 369.125 130.628906 C 369.125 131.746094 370.242188 131.746094 370.242188 132.863281 C 370.242188 132.863281 371.359375 133.980469 371.359375 133.980469 C 371.359375 135.097656 372.476562 135.097656 372.476562 136.214844 C 372.476562 137.332031 373.59375 137.332031 373.59375 138.449219 C 373.59375 138.449219 373.59375 139.566406 374.710938 139.566406 C 374.710938 140.683594 375.828125 141.800781 375.828125 144.039062 C 375.828125 145.15625 376.945312 146.273438 376.945312 148.507812 C 376.945312 149.625 378.0625 151.859375 378.0625 152.976562 C 378.0625 155.210938 379.179688 157.445312 379.179688 159.683594 C 379.179688 161.917969 380.292969 164.152344 380.292969 166.386719 C 381.410156 170.855469 382.527344 175.328125 382.527344 179.796875 C 383.644531 183.148438 383.644531 185.382812 384.761719 188.734375 C 385.878906 190.972656 385.878906 194.324219 386.996094 196.558594 C 388.113281 202.144531 390.347656 207.734375 391.464844 212.203125 C 391.464844 212.203125 391.464844 213.320312 391.464844 213.320312 C 392.582031 215.554688 393.699219 218.90625 394.816406 221.144531 C 395.933594 223.378906 397.050781 226.730469 398.167969 228.964844 C 400.402344 234.550781 402.636719 240.140625 404.867188 245.726562 C 407.101562 250.195312 408.21875 254.667969 410.453125 258.019531 C 411.570312 259.136719 411.570312 260.253906 412.6875 261.371094 C 411.570312 262.488281 411.570312 262.488281 410.453125 263.605469 C 409.335938 264.722656 409.335938 264.722656 408.21875 265.839844 C 407.101562 262.488281 405.984375 260.253906 404.867188 258.019531 Z M 404.867188 258.019531 " fill-opacity="1" fill-rule="nonzero"/><path fill="#d33c57" d="M 391.464844 263.605469 C 389.230469 261.371094 388.113281 259.136719 385.878906 258.019531 C 383.644531 255.785156 381.410156 253.550781 380.296875 251.3125 C 378.0625 249.078125 376.945312 246.84375 374.710938 243.492188 C 368.007812 233.433594 363.539062 222.261719 359.070312 211.085938 C 357.953125 206.617188 355.722656 202.144531 354.605469 197.675781 C 353.488281 195.441406 353.488281 193.207031 352.371094 192.089844 C 351.253906 189.855469 351.253906 187.617188 350.136719 185.382812 C 350.136719 184.265625 349.019531 183.148438 349.019531 180.914062 C 349.019531 179.796875 347.902344 178.679688 347.902344 176.445312 C 347.902344 175.328125 347.902344 175.328125 346.785156 174.210938 C 346.785156 173.089844 345.667969 173.089844 345.667969 171.972656 C 345.667969 170.855469 345.667969 170.855469 344.550781 169.738281 C 344.550781 168.621094 343.433594 168.621094 343.433594 167.503906 C 342.316406 166.386719 342.316406 165.269531 341.199219 164.152344 C 341.199219 163.035156 340.082031 161.917969 340.082031 161.917969 C 340.082031 160.800781 338.964844 160.800781 338.964844 159.683594 C 337.847656 158.566406 337.847656 157.445312 336.730469 156.328125 C 335.613281 155.210938 335.613281 154.09375 334.496094 152.976562 C 333.382812 151.859375 333.382812 151.859375 332.265625 150.742188 C 331.148438 149.625 331.148438 149.625 330.03125 148.507812 C 328.914062 147.390625 328.914062 146.273438 327.796875 146.273438 C 326.679688 145.15625 325.5625 144.039062 324.445312 142.921875 C 324.445312 141.800781 323.328125 141.800781 323.328125 140.683594 C 323.328125 140.683594 322.210938 139.566406 322.210938 139.566406 C 321.09375 138.449219 319.976562 137.332031 318.859375 136.214844 C 317.742188 135.097656 316.625 133.980469 315.507812 132.863281 C 314.390625 131.746094 313.273438 130.628906 312.15625 130.628906 C 311.039062 129.511719 309.925781 128.394531 308.808594 128.394531 C 307.691406 127.277344 306.574219 126.15625 305.457031 126.15625 C 304.339844 125.039062 303.222656 125.039062 302.105469 123.921875 C 299.871094 122.804688 297.636719 120.570312 295.402344 119.453125 C 293.167969 118.335938 289.816406 116.101562 287.585938 114.984375 C 285.351562 113.867188 282 111.632812 279.765625 110.511719 C 277.53125 109.394531 275.296875 107.160156 273.0625 104.925781 C 271.945312 103.808594 270.828125 102.691406 269.710938 102.691406 C 268.59375 101.574219 267.476562 100.457031 266.359375 99.339844 C 264.128906 97.105469 261.894531 94.867188 259.660156 93.75 C 258.542969 92.632812 257.425781 91.515625 256.308594 91.515625 C 255.191406 90.398438 254.074219 89.28125 252.957031 89.28125 C 251.839844 88.164062 251.839844 88.164062 250.722656 87.046875 C 250.722656 87.046875 249.605469 85.929688 249.605469 85.929688 C 248.488281 84.8125 247.371094 83.695312 246.253906 81.460938 C 246.253906 81.460938 246.253906 80.34375 245.136719 80.34375 C 244.019531 79.222656 244.019531 78.105469 242.902344 78.105469 C 241.785156 76.988281 241.785156 75.871094 240.671875 74.753906 C 239.554688 73.636719 239.554688 72.519531 238.4375 71.402344 C 237.320312 70.285156 236.203125 68.050781 236.203125 66.933594 C 236.203125 66.933594 236.203125 65.816406 235.085938 65.816406 C 235.085938 64.699219 233.96875 63.578125 233.96875 62.460938 C 232.851562 61.34375 232.851562 60.226562 231.734375 59.109375 C 230.617188 57.992188 230.617188 56.875 229.5 55.757812 C 228.382812 53.523438 228.382812 52.40625 227.265625 50.171875 C 226.148438 47.933594 225.03125 46.816406 225.03125 44.582031 C 223.914062 42.347656 222.796875 41.230469 222.796875 38.996094 C 221.679688 36.761719 220.5625 35.644531 220.5625 33.410156 C 220.5625 32.289062 219.445312 31.171875 219.445312 30.054688 C 220.5625 30.054688 222.796875 28.9375 223.914062 28.9375 C 223.914062 28.9375 223.914062 28.9375 225.03125 28.9375 C 227.265625 34.527344 229.5 40.113281 232.851562 44.582031 C 233.96875 47.933594 235.085938 50.171875 236.203125 52.40625 C 237.320312 54.640625 238.4375 55.757812 238.4375 57.992188 C 238.4375 59.109375 239.554688 59.109375 239.554688 60.226562 C 240.671875 61.34375 240.671875 62.460938 241.785156 63.578125 C 241.785156 64.699219 242.902344 64.699219 242.902344 65.816406 C 244.019531 66.933594 244.019531 68.050781 245.136719 69.167969 C 245.136719 70.285156 246.253906 70.285156 246.253906 71.402344 C 246.253906 72.519531 247.371094 72.519531 247.371094 73.636719 C 248.488281 74.753906 249.605469 76.988281 250.722656 78.105469 C 250.722656 78.105469 251.839844 79.222656 251.839844 79.222656 C 252.957031 80.34375 252.957031 80.34375 254.074219 81.460938 C 255.191406 82.578125 256.308594 83.695312 257.425781 85.929688 C 258.542969 87.046875 258.542969 87.046875 259.660156 88.164062 C 260.777344 89.28125 260.777344 89.28125 261.894531 90.398438 C 264.128906 91.515625 265.242188 93.75 267.476562 94.867188 C 269.710938 97.105469 271.945312 98.222656 274.179688 100.457031 C 277.53125 103.808594 282 106.042969 285.351562 108.277344 C 287.585938 109.394531 289.816406 111.632812 293.167969 112.75 C 295.402344 113.867188 297.636719 116.101562 300.988281 117.21875 C 306.574219 120.570312 311.042969 123.921875 315.507812 127.277344 C 317.742188 129.511719 319.976562 130.628906 322.210938 132.863281 C 324.445312 135.097656 326.679688 137.332031 328.914062 138.449219 C 331.148438 140.683594 333.382812 142.921875 335.613281 145.15625 C 336.730469 146.273438 337.847656 147.390625 338.964844 148.507812 C 340.082031 149.625 341.199219 150.742188 341.199219 151.859375 C 342.316406 152.976562 343.433594 154.09375 343.433594 155.210938 C 344.550781 156.328125 344.550781 157.445312 345.667969 158.5625 C 346.785156 160.800781 349.019531 164.152344 350.136719 166.386719 C 351.253906 168.621094 352.371094 171.972656 353.488281 174.207031 C 354.605469 177.5625 355.722656 179.796875 356.839844 183.148438 C 359.070312 190.972656 361.304688 198.792969 364.65625 206.617188 C 365.773438 207.734375 365.773438 209.96875 366.890625 211.085938 C 368.007812 213.320312 368.007812 215.554688 369.125 216.671875 C 370.242188 220.023438 372.476562 223.378906 373.59375 226.730469 C 374.710938 228.964844 375.828125 231.199219 376.945312 233.433594 C 378.0625 234.550781 378.0625 235.667969 379.179688 236.785156 C 380.296875 237.90625 380.296875 239.023438 381.410156 240.140625 C 382.527344 242.375 383.644531 243.492188 384.761719 245.726562 C 385.878906 247.960938 388.113281 249.078125 389.230469 251.3125 C 392.582031 254.667969 395.933594 258.019531 399.285156 261.371094 C 400.402344 262.488281 402.636719 264.722656 403.753906 265.839844 C 402.636719 266.957031 400.402344 266.957031 398.167969 268.074219 C 395.933594 268.074219 393.699219 265.839844 391.464844 263.605469 Z M 391.464844 263.605469 " fill-opacity="1" fill-rule="nonzero"/><path fill="#d33c57" d="M 349.019531 307.1875 C 344.550781 306.070312 340.082031 306.070312 335.613281 304.953125 C 334.496094 304.953125 333.382812 304.953125 332.265625 304.953125 C 331.148438 304.953125 330.03125 304.953125 330.03125 303.835938 C 328.914062 303.835938 328.914062 303.835938 327.796875 303.835938 C 326.679688 303.835938 325.5625 302.71875 324.445312 302.71875 C 323.328125 302.71875 321.09375 301.601562 319.976562 301.601562 C 318.859375 301.601562 318.859375 300.484375 317.742188 300.484375 C 316.625 300.484375 315.507812 299.367188 315.507812 299.367188 C 314.390625 298.246094 313.273438 298.246094 312.15625 297.128906 C 311.039062 297.128906 309.925781 296.011719 308.808594 296.011719 C 307.691406 296.011719 306.574219 294.894531 306.574219 293.777344 C 305.457031 292.660156 304.339844 292.660156 303.222656 291.542969 C 303.222656 291.542969 302.105469 291.542969 302.105469 290.425781 C 300.988281 290.425781 300.988281 289.308594 299.871094 289.308594 C 298.753906 288.191406 298.753906 288.191406 297.636719 287.074219 C 295.402344 285.957031 294.285156 283.722656 292.050781 282.601562 C 288.699219 279.25 285.351562 277.015625 282 273.664062 C 280.882812 272.546875 279.765625 272.546875 279.765625 271.429688 C 278.648438 270.3125 277.53125 269.195312 276.414062 269.195312 C 275.296875 268.078125 273.0625 265.839844 271.945312 264.722656 C 270.828125 263.605469 270.828125 263.605469 269.710938 262.488281 C 268.59375 261.371094 268.59375 261.371094 267.476562 260.253906 C 266.359375 258.019531 264.125 256.902344 263.011719 254.667969 C 259.660156 251.3125 256.308594 247.960938 252.957031 243.492188 C 251.839844 241.257812 249.605469 240.140625 248.488281 237.90625 C 247.371094 235.667969 245.136719 234.550781 244.019531 232.316406 C 242.902344 230.082031 240.667969 228.964844 238.4375 227.847656 C 237.320312 226.730469 235.085938 224.496094 232.851562 223.378906 C 232.851562 223.378906 232.851562 223.378906 231.734375 222.261719 C 229.5 221.144531 228.382812 218.90625 226.148438 217.789062 C 226.148438 217.789062 226.148438 217.789062 225.03125 216.671875 C 223.914062 216.671875 223.914062 215.554688 222.796875 215.554688 C 221.679688 214.4375 220.5625 214.4375 220.5625 213.320312 C 218.328125 212.203125 217.210938 211.085938 214.980469 209.96875 C 214.980469 209.96875 214.980469 209.96875 213.863281 209.96875 C 212.746094 209.96875 212.746094 208.851562 211.628906 208.851562 C 210.511719 208.851562 209.394531 207.734375 208.277344 207.734375 C 203.808594 205.5 200.457031 204.378906 195.988281 202.144531 C 193.753906 201.027344 191.523438 199.910156 189.289062 198.792969 C 190.40625 197.675781 190.40625 196.558594 191.523438 195.441406 C 191.523438 195.441406 191.523438 194.324219 192.640625 194.324219 C 193.753906 194.324219 194.871094 195.441406 195.988281 195.441406 C 198.222656 196.558594 200.457031 197.675781 202.691406 198.792969 C 204.925781 199.910156 207.160156 201.027344 209.394531 202.144531 C 210.511719 202.144531 211.628906 203.261719 212.746094 203.261719 C 213.863281 204.378906 214.980469 204.378906 216.09375 205.5 C 217.210938 205.5 217.210938 206.617188 218.328125 206.617188 C 219.445312 207.734375 220.5625 207.734375 222.796875 208.851562 C 223.914062 208.851562 223.914062 209.96875 225.03125 209.96875 C 226.148438 211.085938 227.265625 212.203125 228.382812 212.203125 C 229.5 212.203125 229.5 213.320312 230.617188 213.320312 C 231.734375 214.4375 232.851562 215.554688 233.96875 216.671875 C 235.085938 216.671875 235.085938 217.789062 236.203125 217.789062 C 237.320312 218.90625 238.4375 220.023438 239.554688 221.144531 C 242.902344 224.496094 246.253906 227.847656 249.605469 231.199219 C 252.957031 234.550781 256.308594 237.90625 258.542969 241.257812 C 261.894531 244.609375 264.125 247.960938 267.476562 251.3125 C 268.59375 253.550781 270.828125 254.667969 271.945312 256.902344 C 273.0625 258.019531 274.179688 259.136719 274.179688 260.253906 C 275.296875 261.371094 275.296875 261.371094 276.414062 262.488281 C 277.53125 263.605469 277.53125 263.605469 278.648438 264.722656 C 279.765625 265.839844 280.882812 266.957031 282 268.078125 C 283.117188 269.195312 285.351562 270.3125 286.46875 272.546875 C 289.816406 275.898438 293.167969 278.132812 297.636719 281.484375 C 298.753906 282.601562 298.753906 282.601562 299.871094 283.722656 C 300.988281 284.839844 302.105469 284.839844 303.222656 285.957031 C 304.339844 287.074219 305.457031 287.074219 306.574219 288.191406 C 307.691406 289.308594 307.691406 289.308594 308.808594 290.425781 C 309.921875 290.425781 309.921875 291.542969 311.039062 291.542969 C 312.15625 291.542969 312.15625 292.660156 313.273438 292.660156 C 314.390625 292.660156 314.390625 293.777344 315.507812 293.777344 C 316.625 294.894531 317.742188 294.894531 318.859375 296.011719 C 319.976562 297.128906 321.09375 297.128906 323.328125 297.128906 C 324.445312 297.128906 325.5625 298.246094 326.679688 298.246094 C 327.796875 298.246094 328.914062 298.246094 330.03125 299.363281 C 331.148438 299.363281 332.265625 299.363281 333.378906 300.484375 C 334.496094 300.484375 335.613281 300.484375 336.730469 301.601562 C 342.316406 302.71875 347.902344 303.835938 353.488281 303.835938 C 353.488281 306.070312 353.488281 307.1875 353.488281 309.421875 C 350.136719 307.1875 350.136719 307.1875 349.019531 307.1875 Z M 349.019531 307.1875 " fill-opacity="1" fill-rule="nonzero"/><path fill="#d33c57" d="M 331.148438 332.890625 C 330.03125 332.890625 330.03125 332.890625 328.914062 332.890625 C 327.796875 332.890625 327.796875 332.890625 326.679688 332.890625 C 325.5625 332.890625 324.445312 332.890625 322.210938 332.890625 C 321.09375 332.890625 319.976562 332.890625 318.859375 332.890625 C 318.859375 332.890625 317.742188 332.890625 317.742188 332.890625 C 316.625 332.890625 314.390625 331.773438 313.273438 331.773438 C 313.273438 331.773438 312.15625 331.773438 312.15625 331.773438 C 311.039062 331.773438 309.925781 330.652344 308.808594 330.652344 C 307.691406 330.652344 306.574219 329.535156 305.457031 329.535156 C 304.339844 329.535156 303.222656 328.417969 302.105469 328.417969 C 300.988281 328.417969 299.871094 327.300781 297.636719 327.300781 C 292.050781 325.066406 286.46875 322.832031 280.882812 320.597656 C 275.296875 318.363281 269.710938 316.128906 265.242188 313.890625 C 263.011719 312.773438 259.660156 311.65625 257.425781 310.539062 C 255.191406 309.421875 251.839844 308.304688 249.605469 307.1875 C 247.371094 306.070312 244.019531 304.953125 241.785156 303.835938 C 239.554688 302.71875 236.203125 301.601562 233.96875 299.367188 C 232.851562 298.246094 231.734375 298.246094 230.617188 297.128906 C 229.5 297.128906 228.382812 296.011719 227.265625 294.894531 C 225.03125 293.777344 221.679688 291.542969 219.445312 290.425781 C 217.210938 289.308594 213.863281 287.074219 211.628906 285.957031 C 210.511719 285.957031 209.394531 284.839844 208.277344 284.839844 C 207.160156 283.722656 206.042969 283.722656 204.925781 282.601562 C 202.691406 281.484375 200.457031 280.367188 199.339844 279.25 C 197.105469 278.132812 194.871094 277.015625 191.523438 275.898438 C 188.171875 274.78125 185.9375 273.664062 182.585938 272.546875 C 177 270.3125 172.53125 268.078125 166.949219 265.839844 C 162.480469 263.605469 158.011719 262.488281 153.542969 260.253906 C 154.660156 259.136719 155.777344 256.902344 156.894531 255.785156 C 158.011719 255.785156 158.011719 256.902344 159.128906 256.902344 C 164.714844 259.136719 170.296875 261.371094 174.765625 263.605469 C 179.234375 265.839844 182.585938 266.957031 187.054688 269.195312 C 189.289062 270.3125 191.523438 271.429688 193.753906 271.429688 C 194.871094 271.429688 195.988281 272.546875 197.105469 272.546875 C 198.222656 272.546875 199.339844 273.664062 200.457031 273.664062 C 202.691406 274.78125 206.042969 275.898438 208.277344 277.015625 C 211.628906 278.132812 213.863281 280.367188 217.210938 281.484375 C 219.445312 282.601562 222.796875 284.839844 225.03125 285.957031 C 227.265625 287.074219 229.5 288.191406 231.734375 289.308594 C 233.96875 290.425781 235.085938 291.542969 237.320312 291.542969 C 239.554688 292.660156 241.785156 293.777344 245.136719 294.894531 C 246.253906 296.011719 247.371094 296.011719 248.488281 297.128906 C 249.605469 298.246094 251.839844 298.246094 252.957031 299.367188 C 258.542969 301.601562 263.011719 303.835938 268.59375 306.070312 C 274.179688 308.304688 278.648438 310.539062 284.234375 312.773438 C 289.816406 315.011719 295.402344 317.246094 300.988281 319.480469 C 303.222656 320.597656 304.339844 320.597656 306.574219 321.714844 C 307.691406 321.714844 308.808594 322.832031 311.039062 322.832031 C 312.15625 322.832031 313.273438 323.949219 314.390625 323.949219 C 315.507812 323.949219 316.625 325.066406 317.742188 325.066406 C 318.859375 325.066406 321.09375 326.183594 322.210938 326.183594 C 324.445312 326.183594 325.5625 326.183594 327.796875 327.300781 C 328.914062 327.300781 328.914062 327.300781 330.03125 327.300781 C 331.148438 327.300781 331.148438 327.300781 332.265625 327.300781 C 333.378906 327.300781 334.496094 327.300781 336.730469 327.300781 C 337.847656 327.300781 338.964844 327.300781 340.082031 327.300781 C 341.199219 327.300781 342.316406 327.300781 343.433594 327.300781 C 344.550781 327.300781 345.667969 327.300781 347.902344 327.300781 C 350.136719 327.300781 352.371094 327.300781 354.605469 327.300781 C 354.605469 329.535156 354.605469 330.652344 353.488281 332.890625 C 350.136719 332.890625 346.785156 332.890625 344.550781 334.007812 C 343.433594 334.007812 341.199219 334.007812 340.082031 334.007812 C 340.082031 334.007812 340.082031 334.007812 338.964844 334.007812 C 333.382812 332.890625 332.265625 332.890625 331.148438 332.890625 Z M 331.148438 332.890625 " fill-opacity="1" fill-rule="nonzero"/><path fill="#d33c57" d="M 194.871094 364.179688 C 192.640625 364.179688 191.523438 364.179688 189.289062 364.179688 C 189.289062 364.179688 189.289062 364.179688 188.171875 364.179688 C 187.054688 364.179688 187.054688 364.179688 185.9375 364.179688 C 184.820312 364.179688 182.585938 364.179688 181.46875 364.179688 C 180.351562 364.179688 179.234375 364.179688 178.117188 364.179688 C 177 364.179688 174.765625 364.179688 173.648438 364.179688 C 172.53125 364.179688 171.414062 364.179688 170.296875 364.179688 C 168.066406 364.179688 164.714844 364.179688 162.480469 363.0625 C 160.246094 363.0625 159.128906 363.0625 156.894531 361.941406 C 155.777344 361.941406 154.660156 361.941406 153.542969 360.824219 C 152.425781 360.824219 151.308594 360.824219 150.191406 359.707031 C 149.074219 359.707031 146.839844 358.589844 145.726562 358.589844 C 144.609375 358.589844 144.609375 358.589844 143.492188 357.472656 C 144.609375 356.355469 144.609375 354.121094 145.726562 353.003906 C 145.726562 353.003906 146.839844 353.003906 146.839844 353.003906 C 147.957031 353.003906 150.191406 354.121094 151.308594 354.121094 C 153.542969 354.121094 154.660156 355.238281 156.894531 355.238281 C 158.011719 355.238281 160.246094 355.238281 161.363281 356.355469 C 162.480469 356.355469 163.597656 356.355469 165.832031 356.355469 C 168.066406 356.355469 169.183594 356.355469 171.414062 357.472656 C 173.648438 357.472656 177 357.472656 179.234375 357.472656 C 180.351562 357.472656 181.46875 357.472656 182.585938 357.472656 C 183.703125 357.472656 185.9375 357.472656 187.054688 357.472656 C 188.171875 357.472656 189.289062 357.472656 189.289062 357.472656 C 189.289062 357.472656 190.40625 357.472656 190.40625 357.472656 C 191.523438 357.472656 193.753906 357.472656 194.871094 357.472656 C 195.988281 357.472656 198.222656 357.472656 199.339844 357.472656 C 200.457031 357.472656 201.574219 357.472656 202.691406 357.472656 C 204.925781 357.472656 208.277344 357.472656 210.511719 357.472656 C 214.980469 357.472656 220.5625 357.472656 225.03125 356.355469 C 230.617188 356.355469 236.203125 355.238281 240.667969 355.238281 C 244.019531 355.238281 246.253906 355.238281 249.605469 354.121094 C 251.839844 354.121094 255.191406 354.121094 257.425781 354.121094 C 260.777344 354.121094 263.011719 354.121094 266.359375 354.121094 C 269.710938 354.121094 271.945312 354.121094 275.296875 354.121094 C 277.53125 354.121094 279.765625 354.121094 283.117188 354.121094 C 286.46875 354.121094 288.699219 354.121094 292.050781 354.121094 C 297.636719 354.121094 302.105469 354.121094 307.691406 354.121094 C 312.15625 354.121094 317.742188 354.121094 322.210938 354.121094 C 325.5625 354.121094 328.914062 354.121094 332.265625 353.003906 C 333.382812 353.003906 334.496094 353.003906 334.496094 353.003906 C 335.613281 353.003906 336.730469 353.003906 337.847656 353.003906 C 338.964844 353.003906 341.199219 351.886719 342.316406 351.886719 C 343.433594 351.886719 344.550781 351.886719 345.667969 350.769531 C 345.667969 353.003906 344.550781 355.238281 344.550781 356.355469 C 344.550781 356.355469 343.433594 356.355469 343.433594 356.355469 C 342.316406 356.355469 341.199219 356.355469 340.082031 357.472656 C 338.964844 357.472656 337.847656 357.472656 335.613281 358.589844 C 334.496094 358.589844 333.382812 358.589844 331.148438 358.589844 C 330.03125 358.589844 327.796875 358.589844 326.679688 358.589844 C 325.5625 358.589844 323.328125 358.589844 322.210938 358.589844 C 321.09375 358.589844 318.859375 358.589844 317.742188 358.589844 C 315.507812 358.589844 312.15625 358.589844 309.925781 358.589844 C 304.339844 358.589844 298.753906 358.589844 293.167969 358.589844 C 287.582031 358.589844 282 358.589844 276.414062 358.589844 C 270.828125 358.589844 265.242188 358.589844 260.777344 358.589844 C 257.425781 358.589844 255.191406 358.589844 251.839844 358.589844 C 246.253906 358.589844 240.667969 359.707031 235.085938 359.707031 C 229.5 359.707031 223.914062 360.824219 218.328125 360.824219 C 216.097656 360.824219 212.746094 360.824219 210.511719 360.824219 C 208.277344 360.824219 204.925781 360.824219 202.691406 360.824219 C 200.457031 364.179688 197.105469 364.179688 194.871094 364.179688 Z M 194.871094 364.179688 " fill-opacity="1" fill-rule="nonzero"/><path fill="#d33c57" d="M 195.988281 494.921875 C 194.871094 494.921875 193.753906 494.921875 192.640625 494.921875 C 191.523438 494.921875 191.523438 494.921875 190.40625 494.921875 C 189.289062 494.921875 188.171875 494.921875 188.171875 494.921875 C 187.054688 494.921875 184.820312 494.921875 183.703125 494.921875 C 182.585938 494.921875 180.351562 494.921875 179.234375 493.804688 C 177 493.804688 175.882812 493.804688 173.648438 492.6875 C 171.414062 492.6875 170.296875 491.570312 168.066406 491.570312 C 165.832031 491.570312 164.714844 490.453125 162.480469 490.453125 C 155.777344 489.335938 150.191406 487.097656 143.492188 485.980469 C 141.257812 485.980469 139.023438 484.863281 136.789062 484.863281 C 134.554688 484.863281 132.320312 483.746094 130.085938 483.746094 C 128.96875 483.746094 126.734375 482.628906 125.617188 482.628906 C 124.5 482.628906 122.269531 482.628906 121.152344 481.511719 C 120.035156 481.511719 118.917969 481.511719 116.683594 480.394531 C 114.449219 480.394531 113.332031 480.394531 111.097656 480.394531 C 108.863281 480.394531 106.628906 480.394531 104.394531 480.394531 C 104.394531 480.394531 103.277344 480.394531 103.277344 480.394531 C 102.160156 480.394531 102.160156 480.394531 101.042969 480.394531 C 99.925781 480.394531 98.8125 480.394531 97.695312 480.394531 C 96.578125 480.394531 94.34375 480.394531 93.226562 480.394531 C 93.226562 480.394531 92.109375 480.394531 92.109375 480.394531 C 90.992188 480.394531 90.992188 480.394531 89.875 480.394531 C 88.757812 480.394531 87.640625 480.394531 85.40625 481.511719 C 84.289062 481.511719 82.054688 482.628906 80.9375 482.628906 C 77.585938 483.746094 74.238281 483.746094 70.886719 484.863281 C 70.886719 484.863281 69.769531 484.863281 69.769531 484.863281 C 68.652344 485.980469 67.535156 485.980469 67.535156 485.980469 C 69.769531 483.746094 70.886719 481.511719 73.121094 478.160156 C 74.238281 478.160156 74.238281 478.160156 75.355469 477.042969 C 76.46875 477.042969 78.703125 475.925781 79.820312 475.925781 C 80.9375 475.925781 80.9375 475.925781 82.054688 475.925781 C 83.171875 475.925781 84.289062 475.925781 85.40625 474.808594 C 86.523438 474.808594 88.757812 474.808594 90.992188 473.691406 C 92.109375 473.691406 94.34375 473.691406 95.460938 473.691406 C 96.578125 473.691406 97.695312 473.691406 97.695312 473.691406 C 98.8125 473.691406 98.8125 473.691406 99.925781 473.691406 C 101.042969 473.691406 102.160156 473.691406 103.277344 473.691406 C 104.394531 473.691406 104.394531 473.691406 105.511719 473.691406 C 107.746094 473.691406 109.980469 473.691406 111.097656 473.691406 C 112.214844 473.691406 114.449219 473.691406 115.566406 473.691406 C 116.683594 473.691406 117.800781 473.691406 117.800781 473.691406 C 117.800781 473.691406 118.917969 473.691406 118.917969 473.691406 C 120.035156 473.691406 121.152344 473.691406 122.269531 473.691406 C 123.382812 473.691406 123.382812 473.691406 124.5 473.691406 C 126.734375 473.691406 127.851562 474.808594 130.085938 474.808594 C 131.203125 474.808594 133.4375 475.925781 134.554688 475.925781 C 137.90625 477.042969 140.140625 477.042969 143.492188 478.160156 C 147.957031 479.277344 151.308594 480.394531 155.777344 481.511719 C 158.011719 481.511719 160.246094 482.628906 161.363281 482.628906 C 163.597656 482.628906 164.714844 483.746094 166.949219 483.746094 C 169.183594 483.746094 170.296875 484.863281 172.53125 484.863281 C 173.648438 484.863281 173.648438 484.863281 174.765625 484.863281 C 175.882812 484.863281 177 484.863281 178.117188 484.863281 C 179.234375 484.863281 179.234375 484.863281 180.351562 484.863281 C 181.46875 484.863281 182.585938 484.863281 183.703125 484.863281 C 184.820312 484.863281 184.820312 484.863281 185.9375 484.863281 C 187.054688 484.863281 188.171875 484.863281 188.171875 484.863281 C 190.40625 484.863281 191.523438 484.863281 193.753906 484.863281 C 194.871094 484.863281 194.871094 484.863281 195.988281 484.863281 C 197.105469 484.863281 198.222656 484.863281 199.339844 484.863281 C 200.457031 484.863281 202.691406 484.863281 203.808594 484.863281 C 204.925781 484.863281 204.925781 484.863281 206.042969 484.863281 C 207.160156 484.863281 208.277344 484.863281 209.394531 484.863281 C 210.511719 484.863281 210.511719 484.863281 211.628906 484.863281 C 212.746094 484.863281 213.863281 484.863281 213.863281 484.863281 C 214.980469 484.863281 214.980469 484.863281 216.097656 484.863281 C 217.210938 484.863281 217.210938 484.863281 218.328125 484.863281 C 221.679688 483.746094 223.914062 483.746094 227.265625 482.628906 C 230.617188 481.511719 233.96875 480.394531 237.320312 479.277344 C 240.667969 478.160156 244.019531 477.042969 247.371094 475.925781 C 250.722656 474.808594 254.074219 473.691406 256.308594 473.691406 C 258.542969 472.574219 261.894531 472.574219 264.125 472.574219 C 267.476562 472.574219 269.710938 471.453125 273.0625 471.453125 C 275.296875 471.453125 278.648438 470.335938 280.882812 470.335938 C 283.117188 470.335938 286.46875 469.21875 288.699219 469.21875 C 289.816406 469.21875 290.933594 469.21875 292.050781 468.101562 C 293.167969 468.101562 294.285156 466.984375 295.402344 466.984375 C 296.519531 466.984375 296.519531 466.984375 297.636719 466.984375 C 298.753906 466.984375 298.753906 466.984375 299.871094 465.867188 C 300.988281 465.867188 300.988281 465.867188 300.988281 464.75 C 302.105469 464.75 302.105469 464.75 303.222656 463.632812 C 304.339844 463.632812 305.457031 462.515625 306.574219 462.515625 C 307.691406 462.515625 307.691406 461.398438 308.808594 461.398438 C 309.925781 461.398438 309.925781 460.28125 311.039062 460.28125 C 312.15625 460.28125 313.273438 459.164062 313.273438 459.164062 C 314.390625 458.046875 315.507812 458.046875 316.625 456.929688 C 317.742188 456.929688 317.742188 455.8125 317.742188 455.8125 C 317.742188 455.8125 318.859375 454.691406 318.859375 454.691406 C 319.976562 453.574219 321.09375 453.574219 322.210938 452.457031 C 323.328125 451.339844 325.5625 450.222656 326.679688 449.105469 C 328.914062 446.871094 332.265625 444.636719 334.496094 443.519531 C 338.964844 439.046875 344.550781 434.578125 349.019531 431.226562 C 350.136719 430.109375 350.136719 430.109375 351.253906 428.992188 C 352.371094 430.109375 353.488281 431.226562 355.722656 432.34375 C 353.488281 433.460938 352.371094 434.578125 350.136719 436.8125 C 347.902344 439.046875 344.550781 441.285156 342.316406 443.519531 C 337.847656 447.988281 332.265625 451.339844 327.796875 455.8125 C 326.679688 456.929688 326.679688 456.929688 325.5625 458.046875 C 324.445312 458.046875 324.445312 459.164062 323.328125 459.164062 C 322.210938 460.28125 319.976562 461.398438 318.859375 462.515625 C 318.859375 462.515625 317.742188 463.632812 317.742188 463.632812 C 316.625 463.632812 316.625 464.75 315.507812 464.75 C 314.390625 465.867188 312.15625 465.867188 311.039062 466.984375 C 309.925781 466.984375 308.808594 468.101562 308.808594 468.101562 C 307.691406 468.101562 307.691406 469.21875 306.574219 469.21875 C 304.339844 470.335938 303.222656 470.335938 300.988281 471.453125 C 299.871094 471.453125 299.871094 471.453125 298.753906 471.453125 C 297.636719 471.453125 297.636719 471.453125 296.519531 472.574219 C 294.285156 472.574219 293.167969 473.691406 290.933594 473.691406 C 289.816406 473.691406 288.699219 474.808594 286.46875 474.808594 C 285.351562 474.808594 283.117188 474.808594 282 475.925781 C 279.765625 475.925781 276.414062 477.042969 274.179688 477.042969 C 271.945312 477.042969 268.59375 478.160156 266.359375 478.160156 C 264.125 478.160156 260.777344 479.277344 258.542969 479.277344 C 255.191406 480.394531 251.839844 480.394531 249.605469 481.511719 C 246.253906 482.628906 242.902344 483.746094 239.554688 484.863281 C 232.851562 487.097656 227.265625 489.335938 220.5625 490.453125 C 219.445312 490.453125 219.445312 490.453125 218.328125 491.570312 C 217.210938 491.570312 216.09375 491.570312 216.09375 491.570312 C 214.980469 491.570312 214.980469 491.570312 213.863281 491.570312 C 212.746094 491.570312 211.628906 491.570312 210.511719 491.570312 C 208.277344 491.570312 207.160156 491.570312 204.925781 492.6875 C 203.808594 492.6875 201.574219 492.6875 200.457031 492.6875 C 199.339844 492.6875 199.339844 492.6875 198.222656 492.6875 C 197.105469 492.6875 195.988281 492.6875 194.871094 492.6875 C 198.222656 494.921875 197.105469 494.921875 195.988281 494.921875 C 197.105469 494.921875 197.105469 494.921875 195.988281 494.921875 Z M 195.988281 494.921875 " fill-opacity="1" fill-rule="nonzero"/><path fill="#d33c57" d="M 11.683594 567.558594 C 11.683594 567.558594 11.683594 566.4375 11.683594 567.558594 C 12.800781 566.4375 12.800781 566.4375 13.917969 565.320312 C 13.917969 565.320312 13.917969 565.320312 15.035156 564.203125 C 15.035156 564.203125 16.152344 563.085938 16.152344 563.085938 C 17.269531 561.96875 17.269531 561.96875 18.386719 560.851562 C 18.386719 560.851562 19.503906 559.734375 19.503906 559.734375 C 20.621094 558.617188 21.738281 557.5 22.855469 556.382812 C 23.972656 555.265625 23.972656 555.265625 25.089844 554.148438 C 25.089844 554.148438 26.207031 553.03125 26.207031 553.03125 C 27.324219 551.914062 29.558594 550.796875 30.671875 549.675781 C 31.789062 549.675781 31.789062 548.558594 32.90625 548.558594 C 34.023438 548.558594 34.023438 547.441406 35.140625 547.441406 C 35.140625 547.441406 35.140625 547.441406 36.257812 547.441406 C 37.375 546.324219 38.492188 546.324219 39.609375 545.207031 C 40.726562 545.207031 40.726562 544.089844 41.84375 544.089844 C 44.078125 542.972656 46.3125 541.855469 47.429688 541.855469 C 48.546875 541.855469 49.664062 540.738281 50.78125 540.738281 C 51.898438 540.738281 53.015625 539.621094 53.015625 539.621094 C 54.128906 539.621094 55.246094 538.503906 56.363281 538.503906 C 57.480469 538.503906 58.597656 537.386719 59.714844 537.386719 C 60.832031 537.386719 60.832031 537.386719 61.949219 536.269531 C 63.066406 536.269531 64.183594 535.152344 66.417969 535.152344 C 68.652344 535.152344 70.886719 534.03125 73.121094 534.03125 C 74.238281 534.03125 74.238281 534.03125 75.355469 534.03125 C 76.472656 534.03125 77.585938 534.03125 79.820312 534.03125 C 80.9375 534.03125 82.054688 534.03125 82.054688 534.03125 C 83.171875 534.03125 84.289062 534.03125 85.40625 534.03125 C 86.523438 534.03125 86.523438 534.03125 87.640625 534.03125 C 87.640625 534.03125 88.757812 534.03125 88.757812 534.03125 C 89.875 534.03125 90.992188 534.03125 92.109375 534.03125 C 96.578125 534.03125 101.042969 534.03125 105.511719 535.152344 C 107.746094 535.152344 109.980469 535.152344 112.214844 535.152344 C 114.449219 535.152344 116.683594 535.152344 118.917969 536.269531 C 123.386719 536.269531 126.734375 537.386719 131.203125 537.386719 C 140.140625 538.503906 147.957031 539.621094 156.894531 540.738281 C 161.363281 541.855469 165.832031 541.855469 169.183594 542.972656 C 171.414062 542.972656 173.648438 544.089844 175.882812 544.089844 C 178.117188 544.089844 179.234375 544.089844 181.46875 545.207031 C 184.820312 545.207031 188.171875 546.324219 191.523438 546.324219 C 192.640625 546.324219 194.871094 546.324219 195.988281 546.324219 C 198.222656 546.324219 199.339844 546.324219 201.574219 546.324219 C 201.574219 546.324219 202.691406 546.324219 203.808594 546.324219 C 203.808594 546.324219 204.925781 546.324219 204.925781 546.324219 C 206.042969 546.324219 207.160156 546.324219 207.160156 546.324219 C 208.277344 546.324219 208.277344 546.324219 209.394531 546.324219 C 210.511719 546.324219 211.628906 546.324219 211.628906 546.324219 C 213.863281 546.324219 214.980469 546.324219 217.210938 546.324219 C 217.210938 546.324219 217.210938 546.324219 218.328125 546.324219 C 219.445312 546.324219 219.445312 546.324219 220.5625 546.324219 C 221.679688 546.324219 222.796875 546.324219 222.796875 546.324219 C 223.914062 546.324219 226.148438 545.207031 227.265625 545.207031 C 228.382812 545.207031 229.5 544.089844 230.617188 544.089844 C 231.734375 544.089844 232.851562 542.972656 233.96875 542.972656 C 235.085938 542.972656 237.320312 541.855469 238.4375 541.855469 C 239.554688 541.855469 241.785156 540.738281 242.902344 540.738281 C 244.019531 540.738281 245.136719 539.621094 247.371094 539.621094 C 249.605469 538.503906 252.957031 537.386719 255.191406 536.269531 C 257.425781 535.152344 260.777344 534.03125 263.011719 532.914062 C 264.125 531.796875 266.359375 531.796875 267.476562 530.679688 C 268.59375 529.5625 269.710938 529.5625 271.945312 528.445312 C 275.296875 527.328125 277.53125 525.09375 280.882812 523.976562 C 284.234375 521.742188 287.582031 520.625 289.816406 518.386719 C 293.167969 516.152344 296.519531 515.035156 298.753906 512.800781 C 302.105469 510.566406 304.339844 509.449219 307.691406 507.214844 C 311.039062 504.980469 313.273438 502.742188 316.625 501.625 C 317.742188 500.507812 319.976562 499.390625 321.09375 498.273438 C 322.210938 497.15625 323.328125 496.039062 325.5625 494.921875 C 328.914062 492.6875 331.148438 489.335938 334.496094 487.097656 C 337.847656 483.746094 341.199219 480.394531 343.433594 478.160156 C 346.785156 474.808594 349.019531 472.574219 352.371094 469.21875 C 355.722656 465.867188 357.953125 463.632812 361.304688 460.28125 C 363.539062 458.046875 365.773438 455.8125 368.007812 453.574219 C 369.125 452.457031 370.242188 451.339844 371.359375 449.105469 C 372.476562 450.222656 373.59375 451.339844 374.710938 453.574219 C 373.59375 455.8125 371.359375 458.046875 369.125 459.164062 C 366.890625 462.515625 363.539062 464.75 360.1875 468.101562 C 356.839844 471.453125 354.605469 473.691406 351.253906 477.042969 C 347.902344 480.394531 345.667969 483.746094 342.316406 485.980469 C 341.199219 487.097656 338.964844 489.335938 337.847656 490.453125 C 336.730469 491.570312 334.496094 492.6875 333.382812 494.921875 C 330.03125 498.273438 326.679688 500.507812 324.445312 502.742188 C 323.328125 503.863281 322.210938 503.863281 322.210938 504.980469 C 321.09375 506.097656 319.976562 506.097656 318.859375 507.214844 C 317.742188 508.332031 315.507812 509.449219 313.273438 510.566406 C 309.925781 512.800781 306.574219 515.035156 303.222656 517.269531 C 299.871094 519.507812 295.402344 521.742188 292.050781 523.976562 C 288.699219 526.210938 285.351562 528.445312 280.882812 529.5625 C 277.53125 531.796875 273.0625 534.03125 269.710938 535.152344 C 266.359375 537.386719 261.894531 538.503906 258.542969 539.621094 C 256.308594 540.738281 254.074219 541.855469 251.839844 541.855469 C 249.605469 542.972656 247.371094 542.972656 245.136719 544.089844 C 242.902344 545.207031 241.785156 545.207031 239.554688 546.324219 C 238.4375 546.324219 237.320312 547.441406 237.320312 547.441406 C 236.203125 547.441406 235.085938 548.558594 233.96875 548.558594 C 232.851562 548.558594 231.734375 549.675781 230.617188 549.675781 C 229.5 549.675781 229.5 549.675781 228.382812 550.796875 C 226.148438 550.796875 223.914062 551.914062 221.679688 551.914062 C 220.5625 551.914062 219.445312 551.914062 217.210938 553.03125 C 216.097656 553.03125 214.980469 553.03125 214.980469 553.03125 C 213.863281 553.03125 212.746094 553.03125 211.628906 553.03125 C 211.628906 553.03125 210.511719 553.03125 210.511719 553.03125 C 209.394531 553.03125 209.394531 553.03125 208.277344 553.03125 C 207.160156 553.03125 207.160156 553.03125 206.042969 553.03125 C 204.925781 553.03125 202.691406 553.03125 201.574219 553.03125 C 200.457031 553.03125 200.457031 553.03125 199.339844 553.03125 C 198.222656 553.03125 197.105469 553.03125 195.988281 553.03125 C 191.523438 553.03125 187.054688 553.03125 182.585938 551.914062 C 178.117188 551.914062 174.765625 550.796875 170.300781 550.796875 C 161.363281 549.675781 153.542969 548.558594 144.609375 547.441406 C 137.90625 546.324219 131.203125 545.207031 123.386719 544.089844 C 120.035156 544.089844 116.683594 542.972656 113.332031 542.972656 C 111.097656 542.972656 109.980469 542.972656 107.746094 542.972656 C 105.511719 542.972656 104.394531 542.972656 102.160156 542.972656 C 99.929688 542.972656 98.8125 542.972656 96.578125 542.972656 C 94.34375 542.972656 93.226562 542.972656 90.992188 542.972656 C 89.875 542.972656 88.757812 542.972656 88.757812 542.972656 C 87.640625 542.972656 86.523438 542.972656 85.40625 542.972656 C 84.289062 542.972656 84.289062 542.972656 83.171875 542.972656 C 82.054688 542.972656 80.9375 542.972656 79.820312 542.972656 C 77.585938 542.972656 76.472656 542.972656 74.238281 544.089844 C 74.238281 544.089844 74.238281 544.089844 73.121094 544.089844 C 72.003906 544.089844 72.003906 544.089844 70.886719 544.089844 C 69.769531 544.089844 68.652344 544.089844 68.652344 544.089844 C 67.535156 544.089844 65.300781 545.207031 64.183594 545.207031 C 63.066406 545.207031 61.949219 546.324219 60.832031 546.324219 C 59.714844 546.324219 58.597656 547.441406 57.480469 547.441406 C 56.363281 547.441406 54.128906 548.558594 53.015625 548.558594 C 50.78125 549.675781 49.664062 549.675781 47.429688 550.796875 C 46.3125 550.796875 45.195312 551.914062 45.195312 551.914062 C 44.078125 551.914062 42.960938 553.03125 42.960938 553.03125 C 41.84375 554.148438 39.609375 554.148438 38.492188 555.265625 C 37.375 555.265625 37.375 556.382812 36.257812 556.382812 C 35.140625 556.382812 35.140625 557.5 34.023438 557.5 C 32.90625 558.617188 30.671875 559.734375 29.558594 560.851562 C 28.441406 560.851562 28.441406 561.96875 27.324219 561.96875 C 26.207031 563.085938 26.207031 563.085938 25.089844 564.203125 C 23.972656 564.203125 23.972656 565.320312 22.855469 565.320312 C 21.738281 566.441406 21.738281 566.441406 20.621094 567.558594 C 19.503906 568.675781 18.386719 569.792969 17.269531 570.910156 C 17.269531 570.910156 16.152344 572.027344 16.152344 572.027344 C 16.152344 573.144531 15.035156 573.144531 15.035156 574.261719 C 15.035156 574.261719 15.035156 574.261719 15.035156 575.378906 C 12.800781 570.910156 11.683594 568.675781 11.683594 567.558594 Z M 11.683594 567.558594 " fill-opacity="1" fill-rule="nonzero"/><path fill="#d33c57" d="M 413.804688 808.929688 C 413.804688 806.695312 413.804688 804.460938 414.921875 802.222656 C 414.921875 797.753906 414.921875 794.402344 414.921875 789.933594 C 414.921875 785.460938 414.921875 780.992188 414.921875 777.640625 C 414.921875 769.816406 413.804688 760.878906 413.804688 753.054688 C 413.804688 751.9375 413.804688 751.9375 413.804688 750.820312 C 412.6875 743 412.6875 735.175781 411.570312 726.238281 C 411.570312 721.765625 410.453125 718.414062 409.335938 713.945312 C 408.21875 709.476562 408.21875 706.121094 407.101562 701.652344 C 407.101562 698.300781 405.984375 693.832031 405.984375 689.359375 C 405.984375 684.890625 404.867188 680.421875 404.867188 675.949219 C 404.867188 672.597656 404.867188 668.128906 404.867188 664.777344 C 404.867188 663.660156 404.867188 662.542969 404.867188 661.425781 C 404.867188 660.304688 404.867188 659.1875 404.867188 658.070312 C 404.867188 655.835938 404.867188 654.71875 404.867188 652.484375 C 404.867188 650.25 404.867188 648.015625 404.867188 646.898438 C 404.867188 644.660156 404.867188 642.425781 405.984375 640.191406 C 405.984375 637.957031 407.101562 635.722656 407.101562 633.488281 C 407.101562 631.253906 408.21875 630.136719 408.21875 627.898438 C 408.21875 626.78125 408.21875 625.664062 409.335938 624.546875 C 409.335938 623.429688 409.335938 622.3125 409.335938 622.3125 C 409.335938 620.078125 410.453125 617.84375 410.453125 615.609375 C 411.570312 611.136719 412.6875 606.667969 413.804688 603.316406 C 414.921875 598.847656 416.039062 595.492188 417.15625 591.023438 C 418.273438 587.671875 419.390625 583.203125 420.507812 579.847656 C 421.625 575.378906 422.742188 572.027344 423.859375 567.558594 C 424.976562 563.085938 426.09375 559.734375 428.324219 555.265625 C 429.441406 553.03125 429.441406 550.796875 430.558594 548.558594 C 430.558594 547.441406 431.675781 546.324219 431.675781 545.207031 C 431.675781 544.089844 432.792969 541.855469 432.792969 540.738281 C 432.792969 538.503906 433.910156 537.386719 433.910156 535.152344 C 433.910156 532.914062 435.027344 530.679688 435.027344 528.445312 C 435.027344 526.210938 436.144531 523.976562 436.144531 521.742188 C 436.144531 519.507812 436.144531 518.386719 436.144531 516.152344 C 436.144531 515.035156 436.144531 512.800781 436.144531 511.683594 C 436.144531 510.566406 436.144531 510.566406 436.144531 509.449219 C 436.144531 508.332031 436.144531 507.214844 436.144531 506.097656 C 436.144531 504.980469 436.144531 504.980469 436.144531 503.863281 C 436.144531 502.742188 436.144531 501.625 436.144531 500.507812 C 436.144531 499.390625 436.144531 499.390625 436.144531 498.273438 C 436.144531 497.15625 436.144531 497.15625 436.144531 496.039062 C 436.144531 493.804688 436.144531 491.570312 435.027344 489.335938 C 435.027344 488.21875 435.027344 487.097656 435.027344 485.980469 C 435.027344 484.863281 435.027344 483.746094 433.910156 482.628906 C 433.910156 481.511719 433.910156 481.511719 433.910156 480.394531 C 433.910156 480.394531 433.910156 479.277344 433.910156 479.277344 C 433.910156 479.277344 433.910156 479.277344 433.910156 478.160156 C 433.910156 478.160156 433.910156 477.042969 433.910156 477.042969 C 435.027344 477.042969 436.144531 477.042969 437.261719 477.042969 C 438.378906 477.042969 439.496094 478.160156 439.496094 478.160156 C 439.496094 479.277344 439.496094 479.277344 439.496094 480.394531 C 439.496094 481.511719 439.496094 482.628906 440.613281 483.746094 C 440.613281 484.863281 440.613281 484.863281 440.613281 485.980469 C 440.613281 487.097656 440.613281 488.21875 440.613281 489.335938 C 440.613281 490.453125 440.613281 491.570312 440.613281 492.6875 C 440.613281 493.804688 440.613281 494.921875 440.613281 494.921875 C 440.613281 496.039062 440.613281 497.15625 440.613281 498.273438 C 440.613281 499.390625 440.613281 500.507812 440.613281 501.625 C 440.613281 503.863281 440.613281 506.097656 440.613281 507.214844 C 440.613281 508.332031 440.613281 509.449219 440.613281 510.566406 C 440.613281 511.683594 440.613281 512.800781 440.613281 512.800781 C 440.613281 515.035156 440.613281 517.269531 439.496094 519.507812 C 439.496094 520.625 439.496094 521.742188 439.496094 522.859375 C 439.496094 523.976562 439.496094 525.09375 439.496094 526.210938 C 439.496094 528.445312 438.378906 530.679688 438.378906 532.914062 C 438.378906 534.03125 438.378906 535.152344 438.378906 535.152344 C 438.378906 536.269531 438.378906 537.386719 437.261719 538.503906 C 437.261719 540.738281 436.144531 542.972656 436.144531 544.089844 C 436.144531 545.207031 435.027344 546.324219 435.027344 547.441406 C 435.027344 548.558594 433.910156 549.675781 433.910156 550.796875 C 432.792969 555.265625 431.675781 558.617188 430.558594 563.085938 C 429.441406 566.441406 428.324219 570.910156 427.207031 574.261719 C 426.09375 578.730469 424.976562 583.203125 423.859375 586.554688 C 422.742188 591.023438 421.625 595.492188 420.507812 598.847656 C 419.390625 602.199219 418.273438 606.667969 418.273438 610.019531 C 418.273438 612.253906 417.15625 613.371094 417.15625 615.609375 C 416.039062 621.195312 414.921875 626.78125 413.804688 632.371094 C 413.804688 635.722656 412.6875 637.957031 412.6875 641.308594 C 412.6875 642.425781 412.6875 644.660156 412.6875 645.78125 C 412.6875 646.898438 412.6875 649.132812 412.6875 650.25 C 412.6875 652.484375 412.6875 654.71875 412.6875 656.953125 C 412.6875 659.1875 412.6875 661.425781 412.6875 664.777344 C 412.6875 667.011719 412.6875 669.246094 412.6875 671.480469 C 412.6875 673.714844 412.6875 675.949219 412.6875 678.1875 C 412.6875 680.421875 412.6875 682.65625 412.6875 683.773438 C 412.6875 686.007812 412.6875 688.242188 413.804688 690.476562 C 413.804688 694.949219 414.921875 698.300781 414.921875 702.769531 C 416.039062 710.59375 417.15625 719.53125 418.273438 727.355469 C 419.390625 735.175781 419.390625 744.117188 420.507812 751.9375 C 420.507812 759.761719 421.625 768.699219 421.625 776.523438 C 421.625 780.992188 421.625 784.34375 421.625 788.816406 C 421.625 793.285156 421.625 796.636719 421.625 801.105469 C 421.625 804.460938 421.625 807.8125 420.507812 810.046875 C 418.273438 811.164062 417.15625 811.164062 414.921875 811.164062 C 412.6875 812.28125 413.804688 811.164062 413.804688 808.929688 Z M 413.804688 808.929688 " fill-opacity="1" fill-rule="nonzero"/><path fill="#d33c57" d="M 340.082031 779.875 C 340.082031 779.875 340.082031 778.757812 340.082031 778.757812 C 340.082031 775.40625 341.199219 770.9375 341.199219 767.582031 C 342.316406 753.054688 342.316406 737.410156 345.667969 722.882812 C 345.667969 721.765625 345.667969 720.648438 346.785156 719.53125 C 346.785156 718.414062 346.785156 717.296875 347.902344 717.296875 C 347.902344 715.0625 349.019531 713.945312 349.019531 711.710938 C 350.136719 708.359375 351.253906 705.003906 352.371094 700.535156 C 354.605469 693.832031 356.835938 686.007812 360.1875 679.304688 C 362.421875 672.597656 364.65625 665.894531 366.890625 659.1875 C 368.007812 656.953125 368.007812 655.835938 369.125 653.601562 C 371.359375 646.898438 373.59375 640.191406 376.945312 633.488281 C 379.179688 626.78125 382.527344 620.078125 384.761719 613.371094 C 388.113281 606.667969 391.464844 598.847656 393.699219 592.140625 C 394.816406 588.789062 397.050781 585.4375 398.167969 582.082031 C 399.285156 578.730469 400.402344 575.378906 401.519531 572.027344 C 401.519531 570.910156 402.636719 568.675781 402.636719 567.558594 C 402.636719 566.4375 402.636719 566.4375 403.75 565.320312 C 403.75 564.203125 403.75 563.085938 404.867188 563.085938 C 404.867188 561.96875 404.867188 561.96875 405.984375 560.851562 C 405.984375 559.734375 405.984375 558.617188 407.101562 558.617188 C 407.101562 557.5 407.101562 556.382812 408.21875 556.382812 C 408.21875 555.265625 408.21875 555.265625 408.21875 554.148438 C 408.21875 551.914062 409.335938 550.792969 409.335938 548.558594 C 409.335938 546.324219 410.453125 545.207031 410.453125 542.972656 C 411.570312 539.621094 411.570312 535.148438 412.6875 531.796875 C 413.804688 523.976562 414.921875 516.152344 416.039062 509.449219 C 416.039062 506.097656 417.15625 503.859375 417.15625 500.507812 C 417.15625 499.390625 417.15625 497.15625 417.15625 496.039062 C 417.15625 493.804688 417.15625 492.6875 417.15625 490.453125 C 417.15625 487.097656 417.15625 483.746094 417.15625 480.394531 C 417.15625 480.394531 417.15625 479.277344 417.15625 479.277344 C 419.390625 479.277344 420.507812 480.394531 422.742188 480.394531 C 422.742188 481.511719 422.742188 482.628906 422.742188 482.628906 C 422.742188 485.980469 422.742188 490.453125 421.625 493.804688 C 420.507812 500.507812 419.390625 508.332031 419.390625 515.035156 C 418.273438 522.859375 417.15625 529.5625 416.039062 537.386719 C 416.039062 539.621094 414.921875 540.738281 414.921875 542.972656 C 414.921875 545.207031 413.804688 546.324219 413.804688 548.558594 C 413.804688 550.792969 412.6875 551.914062 412.6875 554.148438 C 412.6875 555.265625 412.6875 556.382812 411.570312 557.5 C 411.570312 558.617188 411.570312 558.617188 411.570312 559.734375 C 410.453125 563.085938 409.335938 566.4375 408.21875 570.910156 C 407.101562 573.144531 407.101562 574.261719 405.984375 576.496094 C 404.867188 578.730469 404.867188 579.847656 403.75 582.082031 C 402.636719 585.4375 400.402344 588.789062 399.285156 592.140625 C 398.167969 595.492188 395.933594 598.847656 394.816406 602.199219 C 393.699219 605.550781 391.464844 608.902344 390.347656 612.253906 C 389.230469 615.609375 386.996094 618.960938 385.878906 622.3125 C 384.761719 624.546875 384.761719 625.664062 383.644531 627.898438 C 382.527344 630.136719 382.527344 631.253906 381.410156 633.488281 C 380.292969 635.722656 380.292969 636.839844 379.175781 639.074219 C 378.0625 641.308594 378.0625 642.425781 376.945312 644.660156 C 375.828125 646.898438 375.828125 649.132812 374.710938 651.367188 C 373.59375 653.601562 373.59375 655.835938 372.476562 658.070312 C 371.359375 660.304688 371.359375 661.425781 370.242188 663.660156 C 365.773438 674.832031 362.421875 686.007812 357.953125 697.183594 C 356.835938 699.417969 356.835938 701.652344 355.71875 703.886719 C 355.71875 705.003906 354.605469 706.121094 354.605469 707.238281 C 354.605469 708.355469 353.488281 710.59375 353.488281 711.710938 C 353.488281 712.828125 352.371094 713.945312 352.371094 715.0625 C 352.371094 716.179688 351.253906 717.296875 351.253906 718.414062 C 351.253906 719.53125 350.136719 720.648438 350.136719 721.765625 C 350.136719 722.882812 350.136719 724.003906 349.019531 726.238281 C 349.019531 728.472656 347.902344 730.707031 347.902344 732.941406 C 347.902344 734.058594 347.902344 735.175781 347.902344 736.292969 C 347.902344 737.410156 347.902344 739.648438 347.902344 740.765625 C 347.902344 743 347.902344 745.234375 346.785156 747.46875 C 346.785156 749.703125 346.785156 753.054688 346.785156 755.292969 C 346.785156 758.644531 346.785156 763.113281 345.667969 766.464844 C 345.667969 769.816406 344.550781 774.289062 344.550781 777.640625 C 344.550781 778.757812 344.550781 780.992188 343.433594 782.109375 C 343.433594 782.109375 342.316406 780.992188 340.082031 779.875 Z M 340.082031 779.875 " fill-opacity="1" fill-rule="nonzero"/><path fill="#d33c57" d="M 255.191406 756.410156 C 255.191406 755.292969 255.191406 755.292969 255.191406 754.171875 C 255.191406 751.9375 256.308594 750.820312 256.308594 748.585938 C 256.308594 746.351562 257.425781 745.234375 257.425781 743 C 257.425781 741.882812 258.542969 739.648438 258.542969 738.527344 C 258.542969 737.410156 258.542969 736.292969 259.660156 736.292969 C 259.660156 735.175781 259.660156 735.175781 260.777344 734.058594 C 261.894531 732.941406 261.894531 730.707031 263.011719 729.589844 C 264.125 727.355469 264.125 726.238281 265.242188 724.003906 C 265.242188 722.882812 266.359375 721.765625 266.359375 720.648438 C 266.359375 719.53125 267.476562 719.53125 267.476562 718.414062 C 267.476562 717.296875 268.59375 717.296875 268.59375 716.179688 C 268.59375 715.0625 269.710938 713.945312 269.710938 713.945312 C 269.710938 712.828125 270.828125 712.828125 270.828125 711.710938 C 270.828125 710.59375 271.945312 709.476562 271.945312 708.359375 C 273.0625 707.238281 274.179688 705.003906 275.296875 703.886719 C 277.53125 700.535156 278.648438 698.300781 280.882812 694.949219 C 283.117188 692.714844 284.234375 689.359375 286.464844 687.125 C 288.699219 683.773438 290.933594 681.539062 293.167969 678.1875 C 297.636719 672.597656 302.105469 665.894531 306.574219 660.304688 C 311.039062 654.71875 315.507812 649.132812 319.976562 643.542969 C 328.914062 632.371094 337.847656 621.195312 347.902344 611.136719 C 351.253906 606.667969 355.722656 602.199219 359.070312 597.730469 C 360.1875 596.609375 360.1875 595.492188 361.304688 594.375 C 362.421875 593.257812 363.539062 592.140625 363.539062 591.023438 C 364.65625 589.90625 364.65625 589.90625 365.773438 588.789062 C 365.773438 588.789062 366.890625 587.671875 366.890625 587.671875 C 368.007812 586.554688 369.125 585.4375 369.125 584.320312 C 370.242188 583.203125 370.242188 582.085938 371.359375 580.964844 C 372.476562 578.730469 372.476562 577.613281 372.476562 577.613281 C 372.476562 576.496094 373.59375 576.496094 373.59375 575.378906 C 373.59375 574.261719 374.710938 573.144531 374.710938 572.027344 C 374.710938 570.910156 375.828125 569.792969 375.828125 569.792969 C 375.828125 568.675781 376.945312 567.558594 376.945312 567.558594 C 376.945312 566.4375 378.0625 565.320312 378.0625 564.203125 C 378.0625 563.085938 379.179688 560.851562 379.179688 559.734375 C 379.179688 557.5 380.292969 556.382812 380.292969 554.148438 C 381.410156 550.792969 382.527344 547.441406 382.527344 544.089844 C 383.644531 537.386719 385.878906 530.679688 386.996094 523.976562 C 390.347656 510.566406 393.699219 496.039062 397.050781 482.628906 C 399.285156 481.511719 401.519531 480.394531 403.75 479.277344 C 402.636719 482.628906 401.519531 485.980469 401.519531 489.335938 C 399.285156 496.039062 398.167969 503.863281 395.933594 510.566406 C 393.699219 517.269531 392.582031 525.09375 391.464844 531.796875 C 390.347656 538.503906 388.113281 545.207031 386.996094 553.03125 C 385.878906 556.382812 385.878906 559.734375 384.761719 563.085938 C 384.761719 564.203125 384.761719 565.320312 383.644531 565.320312 C 383.644531 566.441406 383.644531 566.441406 382.527344 567.558594 C 381.410156 569.792969 381.410156 570.910156 380.292969 572.027344 C 380.292969 573.144531 379.179688 574.261719 379.179688 575.378906 C 379.179688 576.496094 378.0625 576.496094 378.0625 577.613281 C 378.0625 578.730469 376.945312 578.730469 376.945312 579.847656 C 376.945312 580.964844 375.828125 582.085938 375.828125 583.203125 C 374.710938 584.320312 373.59375 586.554688 372.476562 587.671875 C 372.476562 587.671875 371.359375 588.789062 371.359375 588.789062 C 370.242188 589.90625 370.242188 591.023438 369.125 592.140625 C 369.125 592.140625 368.007812 593.257812 368.007812 593.257812 C 366.890625 594.375 366.890625 595.492188 365.773438 595.492188 C 364.65625 596.609375 363.539062 598.847656 362.421875 599.964844 C 361.304688 601.082031 360.1875 603.316406 359.070312 604.433594 C 357.953125 605.550781 356.839844 606.667969 355.722656 608.902344 C 351.253906 614.492188 346.785156 618.960938 342.316406 624.546875 C 337.847656 630.136719 332.265625 635.722656 327.796875 641.308594 C 323.328125 646.898438 318.859375 652.484375 314.390625 658.070312 C 312.15625 660.304688 309.925781 663.660156 307.691406 665.894531 C 305.457031 668.128906 303.222656 671.480469 302.105469 673.714844 C 297.636719 679.304688 293.167969 684.890625 289.816406 691.59375 C 288.699219 693.832031 286.46875 696.066406 285.351562 697.183594 C 284.234375 699.417969 283.117188 700.535156 282 702.769531 C 280.882812 703.886719 279.765625 705.003906 279.765625 707.238281 C 279.765625 708.359375 278.648438 708.359375 278.648438 709.476562 C 278.648438 710.59375 277.53125 710.59375 277.53125 711.710938 C 277.53125 712.828125 276.414062 712.828125 276.414062 713.945312 C 276.414062 715.0625 275.296875 715.0625 275.296875 716.179688 C 275.296875 717.296875 274.179688 717.296875 274.179688 718.414062 C 274.179688 719.53125 273.0625 719.53125 273.0625 720.648438 C 271.945312 721.765625 271.945312 724 270.828125 725.121094 C 270.828125 726.238281 270.828125 726.238281 269.710938 727.355469 C 269.710938 728.472656 268.59375 729.589844 268.59375 729.589844 C 268.59375 730.707031 268.59375 730.707031 267.476562 731.824219 C 267.476562 732.941406 266.359375 732.941406 266.359375 734.058594 C 266.359375 735.175781 265.242188 737.410156 265.242188 738.527344 C 265.242188 739.644531 264.128906 741.882812 264.128906 743 C 264.128906 745.234375 263.011719 746.351562 263.011719 748.585938 C 261.894531 751.9375 261.894531 755.289062 260.777344 758.644531 C 260.777344 760.878906 259.660156 763.113281 259.660156 765.347656 C 258.542969 760.878906 256.308594 758.644531 255.191406 756.410156 Z M 255.191406 756.410156 " fill-opacity="1" fill-rule="nonzero"/></g></g></svg>