<svg xmlns="http://www.w3.org/2000/svg" xmlns:xlink="http://www.w3.org/1999/xlink" width="794" zoomAndPan="magnify" viewBox="0 0 595.5 842.249979" height="1123" preserveAspectRatio="xMidYMid meet" version="1.0"><defs><clipPath id="1a1c817c79"><path d="M 11 0 L 594.984375 0 L 594.984375 328 L 11 328 Z M 11 0 " clip-rule="nonzero"/></clipPath><clipPath id="8af40a2ca8"><path d="M 0.523438 8.5 L 574 8.5 L 574 308 L 0.523438 308 Z M 0.523438 8.5 " clip-rule="nonzero"/></clipPath><clipPath id="7ab0e281eb"><rect x="0" width="584" y="0" height="328"/></clipPath></defs><g clip-path="url(#1a1c817c79)"><g transform="matrix(1, 0, 0, 1, 11, 0)"><g clip-path="url(#7ab0e281eb)"><path fill="#ffd040" d="M 286.953125 247.5625 C 313.363281 247.5625 335.902344 264.640625 344.101562 288.316406 C 345.695312 293.097656 345.011719 297.652344 342.050781 301.75 C 339.320312 305.621094 334.992188 307.898438 330.210938 307.898438 L 243.695312 307.898438 C 238.914062 307.898438 234.585938 305.847656 231.855469 301.75 C 228.894531 297.878906 228.210938 293.097656 229.804688 288.546875 C 238 264.867188 260.769531 247.5625 286.953125 247.5625 Z M 286.953125 247.5625 " fill-opacity="1" fill-rule="evenodd"/><g clip-path="url(#8af40a2ca8)"><path fill="#4b73ff" d="M 99.570312 307.441406 C 64.964844 300.839844 33.773438 293.328125 20.566406 285.359375 C 6.453125 276.707031 0.757812 261.222656 0.757812 242.328125 C 12.597656 253.253906 28.082031 263.726562 47.660156 271.695312 C 77.941406 284.21875 129.855469 297.199219 179.488281 307.898438 L 104.582031 307.898438 C 102.757812 307.898438 101.394531 307.671875 99.570312 307.441406 Z M 418.324219 105.71875 C 426.746094 97.75 434.035156 91.601562 439.726562 88.414062 C 454.070312 80.675781 470.460938 83.40625 486.855469 92.742188 C 471.375 97.75 454.753906 105.71875 437.902344 118.695312 C 426.746094 127.347656 413.542969 139.1875 399.425781 153.074219 C 403.753906 141.238281 407.621094 129.398438 411.265625 117.332031 C 412.632812 112.777344 414.910156 108.90625 418.324219 105.71875 Z M 474.332031 307.441406 C 508.941406 300.839844 540.359375 293.328125 553.335938 285.359375 C 567.453125 276.707031 573.375 261.222656 573.144531 242.328125 C 561.304688 253.253906 546.050781 263.726562 526.242188 271.695312 C 495.960938 284.21875 444.050781 297.199219 394.644531 307.898438 L 469.324219 307.898438 C 471.144531 307.898438 472.738281 307.671875 474.332031 307.441406 Z M 569.503906 214.550781 C 567.679688 207.265625 565.40625 199.523438 562.445312 191.78125 C 550.378906 203.164062 534.441406 214.09375 513.949219 222.746094 C 480.253906 236.40625 429.253906 256.441406 384.855469 273.746094 C 373.472656 278.300781 366.867188 289 367.777344 301.066406 C 367.777344 302.207031 368.007812 303.34375 368.007812 304.484375 C 423.789062 292.871094 487.992188 277.84375 522.828125 263.5 C 537.855469 257.351562 550.148438 249.839844 560.167969 241.871094 C 568.59375 235.269531 572.007812 225.023438 569.503906 214.550781 Z M 549.011719 163.09375 C 548.101562 161.5 547.191406 159.90625 546.28125 158.085938 C 545.367188 156.492188 544.457031 154.898438 543.320312 153.304688 C 536.261719 141.691406 521.691406 137.136719 509.167969 143.058594 C 499.605469 147.382812 489.816406 153.304688 479.796875 161.046875 C 449.289062 184.496094 402.839844 221.378906 364.363281 252.34375 C 360.722656 255.304688 358.214844 258.71875 356.394531 263.046875 L 355.710938 264.867188 C 357.535156 267.597656 359.128906 270.558594 360.492188 273.746094 C 408.988281 255.078125 471.375 230.488281 510.535156 214.550781 C 522.144531 209.539062 532.390625 204.078125 540.816406 197.929688 C 552.199219 189.960938 555.613281 175.160156 549.011719 163.09375 Z M 508.941406 109.816406 C 514.632812 115.054688 520.097656 120.972656 525.105469 127.347656 C 509.167969 132.128906 491.863281 140.324219 474.332031 153.988281 C 445.644531 176.070312 403.296875 209.769531 366.183594 239.59375 C 374.609375 219.101562 382.804688 198.613281 390.320312 178.121094 C 391.914062 174.25 393.734375 171.289062 396.464844 168.558594 C 413.769531 151.253906 429.933594 136 443.367188 125.753906 C 456.117188 115.964844 468.867188 109.132812 480.707031 104.351562 C 490.726562 100.480469 501.425781 102.53125 508.941406 109.816406 Z M 233.449219 247.109375 C 214.550781 202.484375 172.65625 98.660156 173.339844 65.875 C 173.796875 49.480469 184.269531 36.503906 200.660156 27.167969 C 197.246094 43.105469 195.878906 61.550781 198.613281 82.722656 C 203.847656 120.972656 223.429688 185.632812 241.644531 240.734375 C 238.683594 242.554688 235.953125 244.832031 233.449219 247.109375 Z M 340.683594 247.109375 C 359.355469 202.484375 401.246094 98.660156 400.566406 65.875 C 400.335938 49.480469 389.636719 36.503906 373.242188 27.167969 C 376.886719 43.105469 378.253906 61.550781 375.292969 82.722656 C 370.285156 120.972656 350.476562 185.632812 332.261719 240.734375 C 335.21875 242.554688 337.953125 244.832031 340.683594 247.109375 Z M 347.515625 16.46875 C 340 14.417969 332.261719 12.597656 324.0625 11.460938 C 327.933594 27.625 329.527344 46.75 326.570312 68.835938 C 321.789062 104.808594 313.589844 158.996094 306.304688 206.125 C 304.484375 218.191406 310.632812 229.347656 321.558594 234.585938 C 322.46875 235.039062 323.609375 235.496094 324.519531 235.953125 C 342.507812 181.765625 361.402344 118.925781 366.640625 81.355469 C 368.691406 65.417969 368.234375 51.074219 366.414062 38.324219 C 364.820312 27.625 357.761719 19.65625 347.515625 16.46875 Z M 292.644531 8.5 C 290.824219 8.5 288.773438 8.5 286.953125 8.5 C 285.132812 8.5 283.308594 8.5 281.261719 8.5 C 267.601562 8.953125 256.445312 19.429688 255.304688 33.089844 C 254.394531 43.5625 254.394531 54.945312 256.214844 67.46875 C 261.679688 109.363281 271.925781 175.84375 279.667969 227.070312 C 282.171875 226.84375 284.449219 226.84375 286.953125 226.84375 C 289.457031 226.84375 291.734375 226.84375 294.238281 227.070312 C 302.207031 175.84375 312.226562 109.363281 317.917969 67.46875 C 319.511719 54.945312 319.738281 43.5625 318.601562 33.089844 C 317.460938 19.429688 306.304688 8.953125 292.644531 8.5 Z M 226.390625 16.46875 C 233.902344 14.417969 241.644531 12.597656 249.839844 11.460938 C 245.96875 27.625 244.375 46.75 247.335938 68.835938 C 252.117188 104.808594 260.3125 158.996094 267.601562 206.125 C 269.421875 218.191406 263.5 229.347656 252.574219 234.585938 C 251.433594 235.039062 250.523438 235.496094 249.386719 235.953125 C 231.398438 181.765625 212.5 118.925781 207.492188 81.355469 C 205.214844 65.417969 205.671875 51.074219 207.492188 38.324219 C 209.085938 27.625 216.371094 19.65625 226.390625 16.46875 Z M 155.582031 105.71875 C 147.15625 97.75 139.871094 91.601562 134.179688 88.414062 C 119.835938 80.675781 103.441406 83.40625 87.050781 92.742188 C 102.53125 97.75 119.152344 105.71875 136 118.695312 C 147.15625 127.347656 160.363281 139.1875 174.480469 153.074219 C 170.378906 141.238281 166.28125 129.398438 162.640625 117.332031 C 161.273438 112.777344 158.996094 108.90625 155.582031 105.71875 Z M 64.964844 109.816406 C 59.273438 115.054688 54.035156 120.972656 48.800781 127.347656 C 64.738281 132.128906 82.039062 140.324219 99.570312 153.988281 C 128.261719 176.070312 170.835938 209.769531 207.71875 239.59375 C 199.296875 219.101562 191.328125 198.613281 183.585938 178.121094 C 182.21875 174.25 180.171875 171.289062 177.4375 168.558594 C 160.136719 151.253906 143.96875 136 130.765625 125.753906 C 117.785156 115.964844 105.265625 109.132812 93.195312 104.351562 C 83.179688 100.480469 72.707031 102.53125 64.964844 109.816406 Z M 30.585938 153.304688 C 29.675781 154.898438 28.535156 156.492188 27.625 158.085938 C 26.714844 159.90625 25.804688 161.5 24.894531 163.09375 C 18.289062 175.160156 21.707031 189.960938 33.089844 197.929688 C 41.742188 204.078125 51.757812 209.539062 63.371094 214.550781 C 102.53125 230.488281 164.917969 255.078125 213.410156 273.746094 C 214.777344 270.558594 216.597656 267.597656 218.421875 264.867188 L 217.511719 263.046875 C 215.6875 258.71875 213.183594 255.304688 209.542969 252.34375 C 171.0625 221.378906 124.84375 184.496094 94.335938 161.042969 C 84.316406 153.304688 74.300781 147.382812 64.738281 143.058594 C 52.214844 137.136719 37.644531 141.691406 30.585938 153.304688 Z M 4.402344 214.550781 C 6.222656 207.265625 8.726562 199.523438 11.460938 191.78125 C 23.753906 203.164062 39.464844 214.09375 59.957031 222.746094 C 93.652344 236.40625 144.652344 256.441406 189.277344 273.746094 C 200.433594 278.300781 207.265625 289 206.125 301.066406 C 206.125 302.207031 205.898438 303.34375 205.898438 304.484375 C 150.117188 292.871094 86.140625 277.84375 51.078125 263.5 C 36.050781 257.351562 23.753906 249.839844 13.738281 241.871094 C 5.539062 235.269531 1.898438 225.023438 4.402344 214.550781 Z M 4.402344 214.550781 " fill-opacity="1" fill-rule="evenodd"/></g></g></g></g></svg>